{"glyphs":{"0":{"ha":833,"x_min":98,"x_max":738,"o":"m 738 378 l 738 609 q 716 776 738 703 q 654 899 694 849 q 553 976 612 949 q 418 1002 494 1002 q 283 976 342 1002 q 183 899 224 949 q 120 776 142 849 q 98 609 98 703 l 98 378 q 120 211 98 283 q 183 88 142 138 q 284 12 224 37 q 419 -14 344 -14 q 554 12 495 -14 q 654 88 613 38 q 716 211 694 138 q 738 378 738 283 m 224 403 q 224 437 224 420 q 224 471 224 454 l 224 637 q 238 759 224 706 q 281 844 252 811 q 339 885 304 871 q 418 899 373 899 q 495 886 462 899 q 552 847 529 873 q 590 784 576 822 q 609 698 604 747 l 224 403 m 612 351 q 597 225 612 279 q 551 138 583 172 q 495 101 528 114 q 419 88 462 88 q 346 100 378 88 q 290 135 313 112 q 250 197 265 159 q 228 284 234 235 l 612 578 q 612 530 612 559 q 612 491 612 501 l 612 351 z "},"1":{"ha":833,"x_min":141,"x_max":525,"o":"m 525 0 l 525 987 l 515 987 l 141 844 l 141 729 l 399 827 l 399 0 l 525 0 z "},"2":{"ha":833,"x_min":58,"x_max":724,"o":"m 724 0 l 724 102 l 228 102 l 493 390 q 564 472 530 431 q 623 555 597 513 q 663 640 648 597 q 678 727 678 683 q 657 836 678 786 q 598 923 637 886 q 504 980 559 960 q 378 1001 448 1001 q 242 977 302 1001 q 142 911 183 952 q 79 814 101 869 q 58 696 58 759 l 184 696 q 196 780 184 743 q 232 844 208 817 q 292 884 256 869 q 378 898 328 898 q 451 884 418 898 q 506 846 483 870 q 540 790 528 823 q 552 722 552 758 q 545 664 552 692 q 519 604 537 635 q 473 535 502 572 q 400 450 444 498 l 77 90 l 77 0 l 724 0 z "},"3":{"ha":833,"x_min":64,"x_max":690,"o":"m 264 554 l 264 452 l 354 452 q 440 441 401 452 q 507 408 479 431 q 549 352 534 386 q 564 273 564 319 q 551 192 564 226 q 513 134 538 157 q 454 100 489 111 q 377 89 420 89 q 299 101 334 89 q 240 136 264 113 q 202 190 216 158 q 189 260 189 222 l 64 260 q 89 144 64 195 q 155 58 113 94 q 255 5 197 23 q 377 -14 312 -14 q 501 6 444 -14 q 600 62 558 25 q 666 153 642 99 q 690 275 690 206 q 682 344 690 309 q 655 410 674 378 q 603 466 635 441 q 523 507 571 491 q 592 549 563 524 q 639 604 621 574 q 666 663 657 632 q 675 722 675 693 q 653 842 675 790 q 592 930 631 895 q 498 983 553 965 q 376 1001 443 1001 q 252 980 308 1001 q 156 922 196 958 q 94 834 116 884 q 72 728 72 785 l 198 728 q 211 798 198 767 q 248 852 224 829 q 303 886 271 874 q 376 898 336 898 q 450 887 418 898 q 504 856 482 877 q 538 801 526 834 q 549 724 549 768 q 536 656 549 687 q 499 602 524 625 q 438 567 474 580 q 354 554 401 554 l 264 554 z "},"4":{"ha":833,"x_min":51,"x_max":764,"o":"m 627 332 l 627 987 l 493 987 l 51 303 l 51 229 l 501 229 l 501 0 l 627 0 l 627 229 l 764 229 l 764 332 l 627 332 m 190 332 l 481 783 l 501 821 l 501 332 l 190 332 z "},"5":{"ha":833,"x_min":127,"x_max":748,"o":"m 163 495 l 263 469 q 296 496 280 484 q 330 515 312 507 q 371 528 349 524 q 425 532 394 532 q 509 515 473 532 q 571 469 546 498 q 609 399 596 439 q 623 313 623 359 q 611 221 623 262 q 576 151 599 180 q 517 105 552 121 q 438 89 483 89 q 308 132 359 89 q 246 260 258 176 l 127 260 q 160 140 134 191 q 229 54 187 88 q 324 3 271 20 q 438 -14 378 -14 q 575 11 517 -14 q 672 80 633 36 q 729 184 710 123 q 748 315 748 244 q 728 450 748 389 q 669 555 707 511 q 577 621 631 597 q 454 645 523 645 q 360 632 401 645 q 290 602 319 619 l 318 865 l 719 865 l 719 987 l 212 987 l 163 495 z "},"6":{"ha":833,"x_min":96,"x_max":720,"o":"m 581 988 l 570 988 q 380 959 464 988 q 239 871 297 929 q 125 667 154 786 q 96 424 96 547 l 96 365 q 117 221 96 293 q 183 96 139 150 q 280 17 222 47 q 414 -14 338 -14 q 546 13 489 -14 q 642 85 604 39 q 700 192 681 131 q 720 322 720 253 q 703 441 720 382 q 652 545 687 499 q 564 620 618 591 q 437 648 511 648 q 372 640 403 648 q 315 619 341 632 q 264 588 288 606 q 224 549 241 570 q 250 675 228 614 q 315 782 272 737 q 418 850 355 825 q 570 876 480 876 l 581 876 l 581 988 m 416 543 q 496 524 462 543 q 552 473 530 505 q 585 400 574 441 q 596 316 596 359 q 584 225 596 267 q 549 154 572 184 q 492 107 526 124 q 414 90 458 90 q 341 108 376 90 q 280 161 307 126 q 238 246 254 195 q 222 361 222 296 l 222 404 q 254 460 234 435 q 299 505 273 486 q 355 533 325 523 q 416 543 385 543 z "},"7":{"ha":833,"x_min":76,"x_max":743,"o":"m 743 917 l 743 987 l 76 987 l 76 878 l 610 878 l 203 0 l 334 0 l 743 917 z "},"8":{"ha":833,"x_min":120,"x_max":748,"o":"m 726 730 q 703 845 726 794 q 642 930 681 895 q 549 983 602 964 q 433 1001 495 1001 q 316 983 370 1001 q 225 930 263 964 q 165 845 186 895 q 143 730 143 794 q 153 660 143 693 q 182 599 163 627 q 227 548 200 570 q 286 509 253 525 q 217 468 248 492 q 165 413 186 444 q 132 345 143 382 q 120 267 120 308 q 144 146 120 199 q 212 59 169 94 q 311 5 254 23 q 435 -14 368 -14 q 557 5 500 -14 q 656 60 614 24 q 723 147 699 95 q 748 267 748 199 q 736 345 748 308 q 703 412 724 381 q 649 468 680 444 q 581 508 618 492 q 621 532 602 519 q 656 562 640 546 q 707 637 688 594 q 726 730 725 680 m 623 269 q 609 193 623 227 q 570 136 595 159 q 511 101 545 113 q 435 89 476 89 q 356 101 391 89 q 297 136 321 113 q 259 193 273 159 q 246 269 246 227 q 259 345 246 311 q 297 405 273 380 q 356 443 321 429 q 433 456 391 456 q 510 443 475 456 q 570 405 545 429 q 609 345 595 380 q 623 269 623 311 m 600 728 q 587 659 600 690 q 553 606 575 627 q 500 571 531 583 q 434 559 470 559 q 367 571 397 559 q 315 606 337 583 q 281 658 293 627 q 269 728 269 689 q 281 798 269 766 q 315 852 293 829 q 366 886 336 874 q 433 898 396 898 q 500 885 469 898 q 553 850 530 873 q 587 796 574 827 q 600 728 600 765 z "},"9":{"ha":833,"x_min":101,"x_max":722,"o":"m 253 111 l 240 111 l 240 -1 l 253 -1 q 460 33 375 -1 q 593 121 545 66 q 698 326 673 210 q 722 556 722 441 l 722 602 q 700 763 722 682 q 633 899 677 844 q 539 973 595 945 q 407 1001 483 1001 q 274 974 331 1001 q 178 900 216 946 q 120 791 140 853 q 101 659 101 729 q 117 541 101 600 q 168 435 134 481 q 256 359 203 388 q 382 330 309 330 q 453 338 420 330 q 511 359 485 346 q 559 391 538 373 q 596 429 580 409 l 596 428 q 576 307 593 366 q 513 198 560 249 q 411 134 475 157 q 253 111 348 111 m 403 434 q 324 454 357 434 q 269 507 290 474 q 235 581 246 539 q 224 666 224 623 q 237 757 224 715 q 273 831 249 800 q 330 879 296 861 q 408 897 363 897 q 480 878 446 897 q 541 823 515 859 q 582 736 567 787 q 597 618 597 684 l 597 578 q 566 520 586 546 q 521 475 546 494 q 465 445 495 455 q 403 434 435 434 z "}," ":{"ha":833,"x_min":0,"x_max":0,"o":""},"A":{"ha":833,"x_min":55,"x_max":792,"o":"m 589 256 l 667 0 l 792 0 l 479 987 l 374 987 l 55 0 l 180 0 l 260 256 l 589 256 m 294 365 l 426 793 l 556 365 l 294 365 z "},"B":{"ha":833,"x_min":117,"x_max":760,"o":"m 117 0 l 433 0 q 555 20 496 1 q 660 75 614 39 q 732 163 705 110 q 759 285 760 216 q 746 367 759 329 q 709 435 732 405 q 652 486 686 463 q 580 518 617 509 l 580 520 q 641 553 616 536 q 688 597 667 571 q 720 654 708 622 q 732 724 732 686 q 706 843 733 793 q 633 924 679 892 q 530 971 588 956 q 410 987 471 987 l 117 987 l 117 0 m 243 462 l 443 462 q 517 448 483 460 q 578 414 552 436 q 618 358 604 391 q 632 283 633 326 q 616 210 632 242 q 573 155 600 177 q 511 120 546 132 q 436 106 475 107 l 243 106 l 243 462 m 243 566 l 243 880 l 414 880 q 486 871 451 880 q 548 844 521 862 q 590 795 574 825 q 606 725 606 766 q 590 657 606 686 q 547 608 574 628 q 487 577 521 588 q 418 566 453 567 l 243 566 z "},"C":{"ha":833,"x_min":73,"x_max":758,"o":"m 758 297 l 632 297 q 611 214 626 252 q 571 148 596 176 q 510 104 546 119 q 424 88 473 88 q 345 103 378 88 q 286 143 311 117 q 244 201 260 168 q 218 273 228 235 q 203 349 208 310 q 199 425 199 388 l 199 564 q 203 639 199 600 q 218 715 208 678 q 244 786 228 753 q 286 844 261 819 q 345 884 311 869 q 424 899 379 899 q 510 882 473 899 q 571 836 546 865 q 611 768 596 807 q 632 685 626 730 l 758 685 q 724 814 749 755 q 656 914 699 872 q 556 978 614 956 q 424 1001 498 1001 q 313 984 362 1001 q 224 936 263 966 q 157 864 185 905 q 111 773 129 822 q 82 671 92 724 q 73 562 73 617 l 73 425 q 82 316 73 370 q 111 214 92 262 q 157 123 129 165 q 224 52 185 82 q 313 4 263 21 q 424 -14 363 -14 q 553 9 495 -14 q 654 73 611 32 q 722 171 696 114 q 758 297 749 229 z "},"D":{"ha":833,"x_min":105,"x_max":770,"o":"m 105 0 l 334 0 q 466 17 405 1 q 576 64 528 33 q 660 134 623 93 q 722 227 697 176 q 758 334 745 275 q 770 457 770 392 l 770 530 q 756 657 770 597 q 718 767 743 717 q 644 871 690 826 q 537 944 597 916 q 443 976 494 964 q 334 987 391 987 l 105 987 l 105 0 m 233 884 l 334 884 q 420 874 380 884 q 491 846 459 864 q 567 784 536 823 q 616 699 597 746 q 637 620 630 662 q 645 531 644 577 l 645 457 q 637 370 644 412 q 617 292 631 328 q 575 213 602 248 q 511 153 548 177 q 432 116 477 129 q 334 102 388 103 l 233 102 l 233 884 z "},"E":{"ha":833,"x_min":123,"x_max":730,"o":"m 661 456 l 661 563 l 249 563 l 249 880 l 724 880 l 724 987 l 123 987 l 123 0 l 730 0 l 730 106 l 249 106 l 249 456 l 661 456 z "},"F":{"ha":833,"x_min":130,"x_max":736,"o":"m 667 436 l 667 543 l 256 543 l 256 880 l 736 880 l 736 987 l 130 987 l 130 0 l 256 0 l 256 436 l 667 436 z "},"G":{"ha":833,"x_min":68,"x_max":757,"o":"m 757 130 l 755 492 l 435 492 l 435 386 l 635 386 l 634 164 q 595 128 618 142 q 546 106 572 114 q 491 95 519 98 q 437 93 463 92 q 357 109 393 94 q 296 150 322 124 q 250 210 269 176 q 218 281 231 243 q 200 359 206 319 q 194 436 195 399 l 194 552 q 199 628 194 589 q 214 705 203 667 q 242 778 225 743 q 285 838 259 812 q 345 879 311 863 q 425 894 380 894 q 507 879 471 894 q 568 839 542 865 q 608 777 593 813 q 631 698 624 741 l 755 698 q 723 823 749 767 q 653 919 696 879 q 551 980 610 958 q 424 1001 493 1001 q 311 983 361 1001 q 222 933 261 964 q 153 858 182 901 q 106 765 125 815 q 78 660 87 715 q 68 551 68 606 l 68 436 q 79 326 68 380 q 111 222 90 271 q 161 129 131 172 q 233 55 192 86 q 325 5 273 23 q 437 -14 376 -13 q 552 0 497 -14 q 654 42 607 14 q 708 80 682 58 q 757 130 734 102 z "},"H":{"ha":833,"x_min":96,"x_max":737,"o":"m 737 0 l 737 987 l 618 987 l 618 563 l 214 563 l 214 987 l 96 987 l 96 0 l 214 0 l 214 456 l 618 456 l 618 0 l 737 0 z "},"I":{"ha":833,"x_min":118,"x_max":715,"o":"m 118 987 l 118 878 l 349 878 l 349 109 l 118 109 l 118 0 l 715 0 l 715 109 l 478 109 l 478 878 l 715 878 l 715 987 l 118 987 z "},"J":{"ha":833,"x_min":66,"x_max":709,"o":"m 581 987 l 581 300 q 567 221 580 258 q 529 155 553 183 q 469 110 504 126 q 389 93 433 93 q 310 107 345 93 q 250 148 275 121 q 211 209 225 174 q 194 286 196 244 l 66 286 q 98 162 73 217 q 165 68 123 106 q 263 7 206 28 q 389 -14 319 -14 q 515 10 457 -14 q 616 75 573 33 q 683 174 659 117 q 709 300 708 232 l 709 987 l 581 987 z "},"K":{"ha":833,"x_min":117,"x_max":806,"o":"m 355 458 l 653 0 l 806 0 l 437 555 l 783 987 l 630 987 l 340 625 l 245 505 l 245 987 l 117 987 l 117 0 l 245 0 l 245 334 l 355 458 z "},"L":{"ha":833,"x_min":134,"x_max":743,"o":"m 260 106 l 260 987 l 134 987 l 134 0 l 743 0 l 743 106 l 260 106 z "},"M":{"ha":833,"x_min":100,"x_max":746,"o":"m 256 987 l 100 987 l 100 0 l 222 0 l 222 394 l 212 792 l 380 275 l 452 275 l 634 806 l 624 394 l 624 0 l 746 0 l 746 987 l 590 987 l 416 494 l 256 987 z "},"N":{"ha":833,"x_min":97,"x_max":736,"o":"m 736 0 l 736 987 l 610 987 l 608 251 l 224 987 l 97 987 l 97 0 l 224 0 l 226 738 l 609 0 l 736 0 z "},"O":{"ha":833,"x_min":72,"x_max":760,"o":"m 760 437 l 760 549 q 751 656 760 602 q 725 761 743 711 q 679 855 707 811 q 614 931 652 899 q 526 982 576 964 q 416 1001 477 1001 q 306 982 355 1001 q 218 931 256 964 q 153 854 180 898 q 108 760 125 810 q 81 656 90 710 q 72 549 73 602 l 72 437 q 81 330 73 384 q 109 227 90 277 q 154 133 126 176 q 220 56 182 89 q 307 5 258 24 q 417 -14 356 -14 q 527 5 478 -14 q 614 56 576 24 q 680 132 652 89 q 725 226 707 176 q 751 330 743 276 q 760 437 760 384 m 636 551 l 636 437 q 632 363 635 401 q 618 287 628 324 q 592 215 608 249 q 553 155 576 180 q 495 113 528 128 q 417 97 461 97 q 340 113 373 97 q 282 155 307 128 q 241 215 258 180 q 215 288 225 250 q 200 363 205 325 q 195 437 196 402 l 195 551 q 200 624 196 585 q 215 700 205 662 q 241 771 224 737 q 281 832 257 806 q 339 873 306 858 q 416 889 372 889 q 493 874 460 889 q 551 833 526 859 q 591 772 575 806 q 618 701 608 738 q 631 624 627 663 q 636 551 635 586 z "},"P":{"ha":833,"x_min":130,"x_max":777,"o":"m 255 396 l 450 396 q 575 416 516 397 q 680 473 635 436 q 750 565 724 511 q 777 691 777 620 q 750 817 777 762 q 680 909 724 872 q 575 966 635 947 q 450 987 516 986 l 130 987 l 130 0 l 255 0 l 255 396 m 255 499 l 255 884 l 450 884 q 530 870 493 884 q 594 831 567 857 q 636 770 621 806 q 651 690 651 734 q 636 610 651 645 q 593 551 621 575 q 530 513 566 526 q 450 499 493 500 l 255 499 z "},"Q":{"ha":833,"x_min":64,"x_max":789,"o":"m 769 450 l 769 536 q 760 647 768 591 q 733 754 751 703 q 687 851 715 806 q 620 929 659 896 q 530 982 581 962 q 416 1001 479 1001 q 303 982 353 1001 q 214 929 252 962 q 146 850 174 895 q 100 753 119 805 q 73 646 82 702 q 64 536 64 591 l 64 450 q 73 340 64 395 q 100 233 82 285 q 147 137 119 182 q 215 58 176 92 q 304 6 254 25 q 417 -14 354 -14 q 464 -11 441 -14 q 508 -1 487 -7 l 703 -167 l 789 -85 l 619 57 q 687 135 659 90 q 733 232 715 180 q 760 339 751 283 q 769 450 768 395 m 644 538 l 644 450 q 640 372 644 412 q 627 292 636 332 q 600 218 616 253 q 559 156 584 182 q 499 113 534 129 q 417 97 464 97 q 336 113 371 97 q 276 156 301 129 q 234 218 251 183 q 208 293 218 254 q 193 373 197 332 q 189 450 189 413 l 189 538 q 193 615 189 574 q 208 694 197 655 q 234 768 218 733 q 276 831 251 804 q 336 873 301 857 q 416 889 370 889 q 498 873 463 889 q 558 831 533 858 q 600 769 583 804 q 627 695 616 734 q 640 615 636 656 q 644 538 644 575 z "},"R":{"ha":833,"x_min":123,"x_max":772,"o":"m 445 403 l 639 0 l 771 0 l 772 8 l 562 430 q 637 473 603 448 q 695 530 671 498 q 733 603 720 563 q 747 691 747 643 q 721 821 747 766 q 650 913 695 876 q 543 968 604 949 q 412 987 481 986 l 123 987 l 123 0 l 248 0 l 248 403 l 445 403 m 248 506 l 248 884 l 412 884 q 496 871 458 884 q 562 836 534 859 q 606 775 590 811 q 621 692 621 740 q 605 613 621 648 q 561 555 589 579 q 495 519 532 532 q 416 506 458 507 l 248 506 z "},"S":{"ha":833,"x_min":80,"x_max":766,"o":"m 635 250 q 617 179 635 209 q 572 131 600 150 q 508 102 544 111 q 436 93 473 93 q 351 105 390 93 q 282 143 312 118 q 233 203 252 168 q 208 285 214 239 l 80 285 q 108 169 82 221 q 179 79 134 117 q 297 10 229 34 q 436 -14 366 -14 q 554 3 495 -14 q 660 53 613 20 q 736 135 707 85 q 766 251 766 184 q 738 367 766 317 q 666 452 711 417 q 566 513 621 489 q 456 554 511 537 q 385 578 422 564 q 315 612 347 591 q 262 662 283 632 q 240 734 241 691 q 256 803 240 773 q 299 853 272 833 q 360 884 326 873 q 430 894 394 894 q 510 880 475 894 q 572 841 546 866 q 613 781 597 816 q 634 703 629 746 l 763 703 q 734 826 762 771 q 660 920 706 881 q 554 980 614 958 q 430 1001 494 1001 q 314 983 372 1001 q 211 930 256 965 q 137 846 165 896 q 109 732 109 795 q 137 621 109 668 q 210 539 165 574 q 308 481 254 505 q 414 440 362 457 q 489 414 450 429 q 561 379 528 400 q 614 326 593 357 q 635 250 635 295 z "},"T":{"ha":833,"x_min":52,"x_max":784,"o":"m 784 880 l 784 987 l 52 987 l 52 880 l 357 880 l 357 0 l 479 0 l 479 880 l 784 880 z "},"U":{"ha":833,"x_min":94,"x_max":739,"o":"m 738 987 l 616 987 l 614 319 q 600 234 613 275 q 563 162 587 193 q 501 112 538 130 q 416 93 465 93 q 331 112 368 93 q 270 162 294 131 q 232 234 245 193 q 218 319 218 275 l 215 987 l 96 987 l 94 319 q 119 189 95 250 q 184 83 142 128 q 286 12 227 38 q 416 -14 345 -14 q 546 13 487 -14 q 648 84 605 39 q 715 189 690 129 q 739 319 739 250 l 738 987 z "},"V":{"ha":833,"x_min":48,"x_max":781,"o":"m 360 0 l 469 0 l 781 987 l 647 987 l 429 252 l 414 202 l 399 250 l 182 987 l 48 987 l 360 0 z "},"W":{"ha":833,"x_min":50,"x_max":802,"o":"m 170 0 l 298 0 l 419 702 l 427 744 l 433 703 l 553 0 l 682 0 l 802 987 l 683 987 l 612 308 l 608 267 l 600 307 l 480 987 l 371 987 l 252 308 l 244 267 l 240 307 l 169 987 l 50 987 l 170 0 z "},"X":{"ha":833,"x_min":59,"x_max":791,"o":"m 424 600 l 214 987 l 66 987 l 353 498 l 59 0 l 208 0 l 427 395 l 645 0 l 791 0 l 498 498 l 785 987 l 637 987 l 424 600 z "},"Y":{"ha":833,"x_min":41,"x_max":777,"o":"m 409 492 l 184 987 l 41 987 l 349 368 l 351 0 l 467 0 l 469 368 l 777 987 l 634 987 l 409 492 z "},"Z":{"ha":833,"x_min":77,"x_max":732,"o":"m 220 106 l 713 892 l 712 987 l 86 987 l 86 880 l 569 880 l 77 98 l 79 0 l 732 0 l 732 106 l 220 106 z "},"a":{"ha":833,"x_min":106,"x_max":731,"o":"m 600 0 l 731 0 l 731 11 q 712 82 719 41 q 705 160 705 123 l 705 501 q 683 609 705 563 q 622 686 661 655 q 529 732 583 717 q 413 747 475 747 q 291 728 345 747 q 199 679 237 709 q 141 609 161 648 q 121 530 121 570 l 247 530 q 258 575 247 553 q 290 612 269 596 q 339 637 310 627 q 406 646 369 646 q 478 636 446 646 q 533 608 511 626 q 568 562 555 589 q 580 503 580 536 l 580 445 l 443 445 q 304 430 366 445 q 198 385 242 415 q 130 309 154 355 q 106 203 106 264 q 124 118 106 157 q 175 50 142 78 q 255 3 208 20 q 360 -14 302 -14 q 428 -6 396 -14 q 488 14 460 1 q 539 44 516 27 q 582 80 563 61 q 588 36 584 57 q 600 0 593 14 m 378 96 q 314 105 342 96 q 268 132 286 115 q 240 171 250 148 q 231 221 231 194 q 242 272 231 250 q 273 311 252 294 q 350 345 301 334 q 463 356 398 356 l 580 356 l 580 208 q 550 166 569 186 q 505 130 531 146 q 447 105 479 115 q 378 96 415 96 z "},"b":{"ha":833,"x_min":119,"x_max":740,"o":"m 740 359 l 740 373 q 730 483 740 431 q 703 577 721 534 q 662 646 685 615 q 610 699 639 677 q 537 734 577 722 q 450 747 497 747 q 379 740 412 747 q 319 718 347 732 q 279 691 298 707 q 244 655 260 675 l 244 1042 l 119 1042 l 119 0 l 234 0 l 240 83 q 266 55 252 68 q 294 31 279 42 q 365 -2 326 9 q 451 -14 404 -14 q 528 -3 492 -14 q 593 25 564 7 q 664 92 635 52 q 712 183 694 132 q 733 266 726 222 q 740 359 740 311 m 614 373 l 614 359 q 610 295 614 326 q 597 237 606 264 q 568 172 587 201 q 523 123 550 142 q 477 101 503 109 q 420 93 451 93 q 360 101 387 93 q 311 125 333 110 q 273 162 290 141 q 244 207 256 182 l 244 528 q 272 573 256 552 q 311 609 289 593 q 359 632 332 624 q 418 641 386 641 q 473 634 448 641 q 517 615 497 627 q 565 568 545 598 q 597 503 585 538 q 610 440 606 473 q 614 373 614 408 z "},"c":{"ha":833,"x_min":97,"x_max":729,"o":"m 431 88 q 332 112 372 88 q 269 173 292 135 q 234 257 244 210 q 223 353 223 304 l 223 381 q 234 475 223 429 q 269 560 244 522 q 333 621 293 597 q 431 644 372 644 q 502 631 469 644 q 558 596 534 618 q 596 544 582 574 q 610 481 610 515 l 729 481 q 707 586 729 537 q 645 671 684 635 q 550 727 605 706 q 431 747 496 747 q 285 718 347 747 q 181 637 222 688 q 118 520 139 587 q 97 381 97 454 l 97 353 q 118 213 97 279 q 181 97 139 147 q 285 16 222 46 q 431 -14 347 -14 q 543 6 489 -14 q 637 60 596 26 q 704 138 679 94 q 729 231 728 182 l 610 231 q 594 175 610 201 q 554 130 579 149 q 497 99 529 110 q 431 88 465 88 z "},"d":{"ha":833,"x_min":94,"x_max":713,"o":"m 94 373 l 94 359 q 115 212 94 280 q 174 94 136 144 q 266 15 212 43 q 387 -14 320 -14 q 505 9 454 -14 q 593 77 556 33 l 598 0 l 713 0 l 713 1042 l 588 1042 l 588 661 q 503 725 552 703 q 388 747 454 747 q 267 720 321 747 q 174 642 212 692 q 115 524 136 593 q 94 373 94 455 m 220 359 l 220 373 q 231 475 220 427 q 267 561 243 524 q 329 619 291 597 q 419 641 366 641 q 522 612 481 641 q 588 538 564 583 l 588 198 q 522 121 564 150 q 418 93 481 93 q 328 114 366 93 q 267 172 291 136 q 231 257 243 209 q 220 359 220 305 z "},"e":{"ha":833,"x_min":92,"x_max":741,"o":"m 442 -14 q 622 30 549 -14 q 732 128 695 73 l 655 188 q 568 116 621 143 q 449 89 516 89 q 356 108 398 89 q 284 160 314 127 q 238 232 255 191 q 217 326 222 273 l 217 331 l 741 331 l 741 387 q 722 530 741 464 q 663 644 703 595 q 565 720 624 692 q 426 747 505 747 q 303 722 363 747 q 196 648 243 696 q 120 529 149 599 q 92 370 92 458 l 92 341 q 117 199 92 264 q 189 87 143 134 q 300 13 235 39 q 442 -14 365 -14 m 426 644 q 509 627 474 644 q 567 581 544 609 q 603 513 590 552 q 616 440 616 474 l 616 434 l 221 434 q 247 524 229 485 q 293 590 266 563 q 354 630 320 616 q 426 644 388 644 z "},"f":{"ha":833,"x_min":103,"x_max":767,"o":"m 305 0 l 431 0 l 431 637 l 714 637 l 714 734 l 431 734 l 431 785 q 443 866 431 831 q 478 922 455 901 q 533 954 500 943 q 608 964 566 964 q 687 957 650 964 q 752 941 724 950 l 767 1044 q 732 1053 749 1049 q 699 1060 715 1057 q 646 1068 673 1065 q 593 1071 620 1071 q 475 1053 528 1071 q 385 998 422 1034 q 326 909 347 962 q 305 785 305 856 l 305 734 l 103 734 l 103 637 l 305 637 l 305 0 z "},"g":{"ha":833,"x_min":95,"x_max":714,"o":"m 95 373 l 95 359 q 115 212 95 280 q 174 94 136 144 q 265 15 211 43 q 387 -14 319 -14 q 461 -5 427 -14 q 524 19 496 3 q 558 43 543 29 q 589 73 574 56 l 589 9 q 575 -75 589 -38 q 536 -136 562 -111 q 475 -174 511 -161 q 394 -186 439 -186 q 344 -181 369 -186 q 294 -165 319 -176 q 244 -134 269 -153 q 197 -87 220 -115 l 132 -162 q 192 -222 157 -198 q 264 -261 227 -247 q 338 -282 302 -276 q 404 -289 375 -289 q 530 -269 473 -289 q 628 -209 587 -248 q 691 -113 669 -170 q 714 16 714 -57 l 714 734 l 600 734 l 594 654 q 567 684 581 670 q 536 707 552 697 q 469 737 506 727 q 388 747 432 747 q 265 720 319 747 q 173 642 211 692 q 115 524 135 593 q 95 373 95 455 m 220 359 l 220 373 q 232 475 220 427 q 267 561 243 524 q 329 619 291 597 q 419 641 366 641 q 476 633 450 641 q 523 612 502 625 q 560 578 544 597 q 589 536 576 559 l 589 200 q 560 157 576 176 q 524 123 544 137 q 476 101 503 109 q 418 93 450 93 q 328 114 366 93 q 267 172 291 136 q 232 257 243 209 q 220 359 220 305 z "},"h":{"ha":833,"x_min":118,"x_max":724,"o":"m 243 625 l 243 1042 l 118 1042 l 118 0 l 243 0 l 243 533 q 274 573 257 555 q 312 604 292 591 q 368 631 338 622 q 433 641 399 641 q 506 630 474 642 q 559 594 538 618 q 589 539 578 572 q 599 463 599 507 l 599 0 l 724 0 l 724 462 q 706 590 724 536 q 655 679 688 644 q 575 731 622 714 q 470 747 528 747 q 387 734 426 747 q 315 699 348 722 q 277 666 295 684 q 243 625 258 647 z "},"i":{"ha":833,"x_min":138,"x_max":752,"o":"m 138 734 l 138 625 l 387 625 l 387 109 l 138 109 l 138 0 l 752 0 l 752 109 l 513 109 l 513 734 l 138 734 m 371 926 q 390 876 371 896 q 446 855 408 855 q 503 876 484 855 q 522 926 522 896 q 516 958 522 943 q 500 981 511 972 q 477 995 491 990 q 446 1000 464 1000 q 415 995 429 1000 q 392 981 401 990 q 376 957 381 971 q 371 926 371 943 z "},"j":{"ha":833,"x_min":143,"x_max":581,"o":"m 203 734 l 203 625 l 448 625 l 448 -5 q 434 -93 448 -57 q 398 -150 421 -128 q 344 -181 375 -172 q 277 -190 313 -190 q 251 -190 268 -190 q 217 -188 235 -189 q 181 -185 199 -187 q 152 -182 163 -184 l 143 -285 q 176 -290 160 -288 q 207 -294 191 -292 q 245 -296 226 -295 q 286 -296 265 -296 q 407 -277 354 -296 q 498 -220 460 -258 q 554 -130 534 -184 q 573 -5 573 -75 l 573 734 l 203 734 m 430 927 q 448 876 430 897 q 505 855 467 855 q 562 876 543 855 q 581 927 581 897 q 562 979 581 958 q 505 1000 543 1000 q 448 979 467 1000 q 430 927 430 958 z "},"k":{"ha":833,"x_min":119,"x_max":766,"o":"m 338 342 l 607 0 l 766 0 l 424 428 l 721 734 l 568 734 l 328 492 l 245 404 l 245 1042 l 119 1042 l 119 0 l 245 0 l 245 254 l 338 342 z "},"l":{"ha":833,"x_min":138,"x_max":752,"o":"m 138 1042 l 138 932 l 387 932 l 387 109 l 138 109 l 138 0 l 752 0 l 752 109 l 513 109 l 513 1042 l 138 1042 z "},"m":{"ha":833,"x_min":63,"x_max":772,"o":"m 176 734 l 63 734 l 63 0 l 182 0 l 182 584 q 193 604 186 595 q 208 621 199 614 q 236 636 220 631 q 275 641 253 641 q 311 636 296 641 q 336 620 326 631 q 352 591 347 608 q 357 550 357 573 l 357 0 l 477 0 l 477 549 q 477 556 477 553 q 477 563 477 559 q 485 594 479 580 q 502 618 491 608 q 529 635 513 629 q 568 641 545 641 q 605 635 589 641 q 631 619 621 630 q 647 590 642 608 q 652 549 652 572 l 652 0 l 772 0 l 772 548 q 760 640 772 601 q 724 703 747 679 q 673 736 703 725 q 604 747 642 747 q 553 740 576 747 q 511 722 530 733 q 483 698 496 711 q 460 669 470 684 q 443 699 453 686 q 419 722 432 713 q 378 741 401 734 q 326 747 355 747 q 238 725 274 747 q 179 665 201 703 l 176 734 z "},"n":{"ha":833,"x_min":118,"x_max":722,"o":"m 118 0 l 243 0 l 243 526 q 274 570 256 550 q 311 604 291 589 q 366 631 336 621 q 431 641 396 641 q 502 631 471 641 q 554 601 532 622 q 586 546 575 580 q 597 463 597 512 l 597 0 l 722 0 l 722 466 q 704 592 722 539 q 653 680 686 646 q 573 731 620 715 q 468 747 526 747 q 387 735 425 747 q 316 701 349 723 q 275 668 294 687 q 239 625 256 648 l 231 734 l 118 734 l 118 0 z "},"o":{"ha":833,"x_min":83,"x_max":750,"o":"m 83 374 l 83 359 q 106 212 83 279 q 172 94 129 144 q 277 15 215 43 q 417 -14 339 -14 q 556 15 494 -14 q 661 94 618 43 q 727 212 704 144 q 750 359 750 279 l 750 374 q 727 521 750 453 q 661 640 704 589 q 556 719 618 690 q 416 747 494 747 q 277 719 338 747 q 172 640 215 690 q 106 521 129 589 q 83 374 83 453 m 208 359 l 208 374 q 221 476 208 427 q 260 563 234 526 q 325 622 286 600 q 416 644 363 644 q 507 622 468 644 q 572 563 546 600 q 611 476 598 526 q 625 374 625 427 l 625 359 q 612 255 625 304 q 573 169 599 206 q 508 110 547 132 q 417 88 469 88 q 326 110 365 88 q 260 169 286 132 q 221 255 234 206 q 208 359 208 304 z "},"p":{"ha":833,"x_min":117,"x_max":737,"o":"m 117 -282 l 243 -282 l 243 71 q 272 43 256 56 q 305 20 288 31 q 371 -5 334 4 q 449 -14 407 -14 q 572 15 518 -14 q 663 94 626 43 q 718 212 699 144 q 737 359 737 280 l 737 373 q 718 524 737 455 q 663 642 699 593 q 572 720 626 692 q 447 747 517 747 q 372 739 407 747 q 309 714 337 730 q 271 688 288 703 q 238 654 253 673 l 232 734 l 117 734 l 117 -282 m 612 373 l 612 359 q 600 256 612 305 q 564 170 588 208 q 501 111 539 133 q 411 89 463 89 q 352 97 378 89 q 303 119 325 105 q 269 149 284 132 q 243 187 254 167 l 243 541 q 273 583 256 564 q 311 614 290 602 q 356 634 331 627 q 410 641 380 641 q 500 619 463 641 q 564 561 538 597 q 600 475 588 524 q 612 373 612 427 z "},"q":{"ha":833,"x_min":95,"x_max":713,"o":"m 95 373 l 95 359 q 115 212 95 280 q 173 94 135 144 q 266 15 211 43 q 390 -14 320 -14 q 457 -7 426 -14 q 515 13 488 0 q 554 36 536 22 q 588 66 572 50 l 588 -282 l 713 -282 l 713 734 l 598 734 l 593 661 q 562 691 578 677 q 528 715 546 705 q 465 739 499 731 q 391 747 431 747 q 266 720 321 747 q 172 642 210 692 q 115 524 134 593 q 95 373 95 455 m 220 359 l 220 373 q 232 475 220 427 q 269 562 244 524 q 332 622 294 600 q 422 644 370 644 q 476 637 451 644 q 522 617 500 630 q 558 587 542 604 q 588 549 575 570 l 588 186 q 557 145 574 164 q 519 114 541 127 q 474 96 498 102 q 420 89 450 89 q 331 111 368 89 q 269 170 293 133 q 232 256 244 208 q 220 359 220 305 z "},"r":{"ha":833,"x_min":223,"x_max":728,"o":"m 599 747 q 456 712 519 747 q 349 617 393 677 l 348 635 l 342 734 l 223 734 l 223 0 l 349 0 l 349 471 q 380 532 361 505 q 424 578 399 559 q 489 611 452 600 q 572 623 526 623 q 641 619 608 623 q 711 607 674 615 l 728 730 q 671 743 709 738 q 599 747 633 747 z "},"s":{"ha":833,"x_min":119,"x_max":731,"o":"m 606 195 q 599 161 606 177 q 579 133 592 146 q 521 100 558 112 q 433 88 484 88 q 369 95 401 88 q 310 118 336 102 q 265 161 283 134 q 244 226 247 187 l 119 226 q 140 136 119 179 q 202 60 161 92 q 300 6 242 26 q 433 -14 359 -14 q 553 2 498 -14 q 648 46 608 18 q 709 115 687 75 q 731 203 731 155 q 712 283 731 249 q 656 345 692 318 q 566 389 619 370 q 444 422 512 408 q 359 443 393 432 q 306 467 326 454 q 277 498 286 481 q 269 536 269 515 q 279 577 269 557 q 310 612 290 597 q 360 635 330 627 q 430 644 390 644 q 499 633 469 644 q 552 605 530 623 q 586 565 574 587 q 598 518 598 542 l 724 518 q 703 608 724 566 q 644 681 682 650 q 552 730 606 712 q 430 747 498 747 q 314 730 367 747 q 224 684 262 713 q 165 616 186 655 q 144 532 144 577 q 164 453 144 487 q 222 393 184 418 q 310 349 258 368 q 425 318 362 331 q 511 295 477 308 q 567 268 546 283 q 597 235 588 253 q 606 195 606 217 z "},"t":{"ha":833,"x_min":96,"x_max":722,"o":"m 415 911 l 289 911 l 289 734 l 96 734 l 96 637 l 289 637 l 289 238 q 307 122 289 170 q 356 45 325 75 q 430 0 387 14 q 521 -14 472 -14 q 579 -11 550 -14 q 635 -3 609 -8 q 684 9 662 2 q 722 26 707 16 l 705 115 q 675 108 693 112 q 637 101 657 104 q 594 95 616 98 q 552 93 572 93 q 499 100 524 93 q 456 123 475 106 q 426 168 437 140 q 415 238 415 195 l 415 637 l 694 637 l 694 734 l 415 734 l 415 911 z "},"u":{"ha":833,"x_min":122,"x_max":715,"o":"m 602 0 l 715 0 l 715 734 l 589 734 l 589 208 q 564 164 579 184 q 528 130 549 144 q 471 102 504 112 q 395 92 437 92 q 332 102 359 92 q 286 135 304 111 q 257 197 267 158 q 248 296 248 237 l 248 734 l 122 734 l 122 298 q 140 157 122 216 q 191 60 158 98 q 271 4 224 22 q 376 -14 318 -14 q 503 17 448 -14 q 594 101 557 47 l 602 0 z "},"v":{"ha":833,"x_min":66,"x_max":763,"o":"m 368 0 l 464 0 l 763 734 l 635 734 l 429 180 l 417 135 l 406 180 l 195 734 l 66 734 l 368 0 z "},"w":{"ha":833,"x_min":33,"x_max":808,"o":"m 189 0 l 288 0 l 401 450 l 419 564 l 438 450 l 553 0 l 652 0 l 808 734 l 696 734 l 615 266 l 597 151 l 577 266 l 460 734 l 380 734 l 262 266 l 244 161 l 229 266 l 144 734 l 33 734 l 189 0 z "},"x":{"ha":833,"x_min":75,"x_max":772,"o":"m 421 462 l 227 734 l 82 734 l 355 371 l 75 0 l 221 0 l 424 279 l 627 0 l 772 0 l 491 371 l 764 734 l 617 734 l 421 462 z "},"y":{"ha":833,"x_min":46,"x_max":785,"o":"m 177 -296 q 264 -278 227 -296 q 331 -233 302 -260 q 379 -174 359 -205 q 412 -113 399 -142 l 785 734 l 644 734 l 455 258 l 420 172 l 388 260 l 186 734 l 46 734 l 362 35 l 312 -63 q 293 -98 305 -77 q 265 -138 281 -119 q 227 -172 248 -158 q 180 -186 205 -186 q 154 -185 170 -186 q 120 -183 137 -184 l 100 -286 q 136 -292 112 -288 q 177 -296 159 -296 z "},"z":{"ha":833,"x_min":109,"x_max":736,"o":"m 269 102 l 711 645 l 711 734 l 115 734 l 115 630 l 547 630 l 109 92 l 109 0 l 736 0 l 736 102 l 269 102 z "},"¹":{"ha":833,"x_min":262,"x_max":514,"o":"m 514 451 l 514 986 l 502 986 l 262 907 l 262 820 l 408 859 l 408 451 l 514 451 z "},"²":{"ha":833,"x_min":214,"x_max":633,"o":"m 633 452 l 633 539 l 363 539 l 481 637 q 535 688 511 664 q 576 736 559 712 q 603 783 593 759 q 612 834 612 807 q 598 901 612 871 q 559 951 585 930 q 498 984 534 972 q 418 995 463 995 q 333 981 371 995 q 269 943 296 967 q 229 886 243 919 q 214 817 214 854 l 321 817 q 328 853 321 837 q 346 882 334 870 q 377 901 358 894 q 420 907 395 907 q 456 902 440 907 q 483 886 472 897 q 499 863 494 876 q 505 833 505 849 q 498 803 505 819 q 477 768 492 787 q 454 740 468 755 q 422 709 440 726 l 227 526 l 227 452 l 633 452 z "},"³":{"ha":833,"x_min":219,"x_max":629,"o":"m 357 763 l 357 684 l 414 684 q 468 677 444 684 q 505 656 491 671 q 517 635 513 647 q 522 606 522 623 q 516 577 522 590 q 500 554 511 564 q 468 537 488 543 q 425 531 449 531 q 381 537 401 531 q 349 554 362 543 q 332 576 338 564 q 326 602 326 588 l 219 602 q 236 531 219 561 q 282 482 254 501 q 346 453 310 463 q 421 444 382 444 q 503 455 465 444 q 569 485 541 465 q 613 534 597 505 q 629 601 629 563 q 622 647 629 626 q 601 683 615 667 q 570 708 589 697 q 527 726 551 719 q 560 742 545 732 q 586 763 575 751 q 611 799 602 779 q 619 842 619 819 q 605 907 619 879 q 564 956 590 936 q 500 984 537 975 q 420 994 464 994 q 345 984 380 994 q 283 954 309 973 q 242 907 257 935 q 227 844 227 879 l 333 844 q 337 866 333 856 q 349 882 342 876 q 380 901 361 895 q 422 907 399 907 q 461 902 444 907 q 489 888 477 897 q 507 866 500 879 q 513 837 513 852 q 505 803 513 818 q 481 779 497 788 q 452 767 469 771 q 414 763 435 763 l 357 763 z "},"ª":{"ha":833,"x_min":193,"x_max":641,"o":"m 529 478 l 641 478 q 627 538 631 509 q 623 601 623 568 l 623 814 q 609 895 623 860 q 570 954 595 930 q 508 989 544 977 q 427 1001 471 1001 q 342 989 380 1001 q 276 957 303 978 q 233 907 248 936 q 217 843 218 878 l 326 835 q 332 863 326 850 q 349 884 338 876 q 382 901 362 895 q 427 906 402 906 q 464 900 448 906 q 490 884 479 895 q 507 854 501 872 q 513 814 512 837 l 513 779 l 417 779 q 323 769 365 779 q 253 741 281 760 q 208 691 224 721 q 193 623 193 661 q 203 559 193 587 q 235 511 214 531 q 289 480 257 491 q 361 469 321 469 q 420 477 394 469 q 467 498 447 486 q 494 520 482 508 q 515 544 506 532 q 520 510 517 526 q 529 478 524 493 m 388 562 q 347 567 364 562 q 319 583 330 572 q 307 601 311 590 q 302 625 302 612 q 309 653 302 640 q 327 676 315 666 q 365 696 341 688 q 418 703 388 703 l 513 703 l 513 629 q 494 605 507 617 q 464 583 481 593 q 426 567 446 573 q 388 562 406 562 z "},"º":{"ha":833,"x_min":184,"x_max":648,"o":"m 184 774 l 184 694 q 201 604 184 646 q 248 532 217 562 q 320 485 277 502 q 418 468 363 468 q 514 485 471 468 q 587 532 557 502 q 632 604 616 562 q 648 694 648 646 l 648 774 q 632 865 648 823 q 587 937 616 907 q 513 984 556 967 q 416 1001 470 1001 q 320 984 363 1001 q 248 937 277 967 q 201 865 217 907 q 184 774 184 823 m 295 694 l 295 774 q 302 826 295 802 q 326 868 310 850 q 363 896 340 886 q 416 906 386 906 q 470 896 447 906 q 508 868 492 886 q 531 826 523 850 q 538 774 538 802 l 538 694 q 531 642 538 666 q 508 600 523 618 q 470 572 493 583 q 418 562 448 562 q 363 572 387 562 q 326 600 340 583 q 302 642 310 618 q 295 694 295 666 z "},"½":{"ha":833,"x_min":24,"x_max":796,"o":"m 252 507 l 252 988 l 241 988 l 24 917 l 24 839 l 156 873 l 156 507 l 252 507 m 796 0 l 796 78 l 553 78 l 659 167 q 707 212 686 191 q 745 255 729 234 q 768 298 760 276 q 777 344 777 319 q 764 404 777 377 q 730 449 752 431 q 674 478 707 468 q 602 488 642 488 q 526 476 560 488 q 469 442 492 463 q 432 391 444 420 q 419 328 419 361 l 515 328 q 522 361 516 347 q 538 388 527 376 q 566 404 549 398 q 604 410 583 410 q 636 405 622 410 q 659 392 650 400 q 675 370 669 382 q 680 342 680 357 q 675 318 680 331 q 661 291 671 306 q 638 263 652 278 q 606 231 625 248 l 431 66 l 431 0 l 796 0 m 232 150 l 581 797 l 503 842 l 155 195 l 232 150 z "},"¼":{"ha":833,"x_min":33,"x_max":789,"o":"m 260 509 l 260 991 l 249 991 l 33 920 l 33 842 l 164 876 l 164 509 l 260 509 m 724 182 l 724 481 l 626 481 l 396 165 l 399 103 l 629 103 l 629 0 l 724 0 l 724 103 l 789 103 l 789 182 l 724 182 m 492 182 l 618 342 l 629 359 l 629 182 l 492 182 m 273 150 l 621 797 l 544 842 l 196 195 l 273 150 z "},"¾":{"ha":833,"x_min":26,"x_max":812,"o":"m 747 182 l 747 481 l 648 481 l 418 165 l 422 103 l 651 103 l 651 0 l 747 0 l 747 103 l 812 103 l 812 182 l 747 182 m 515 182 l 641 342 l 651 359 l 651 182 l 515 182 m 150 785 l 150 714 l 201 714 q 242 710 224 714 q 274 696 261 705 q 292 675 286 688 q 298 644 298 662 q 293 617 298 629 q 278 596 288 605 q 249 581 266 587 q 211 576 233 576 q 170 582 188 576 q 141 599 153 588 q 127 617 132 606 q 122 640 122 628 l 26 640 q 41 576 26 603 q 83 532 57 549 q 140 506 107 514 q 208 498 173 498 q 281 507 247 498 q 340 534 315 517 q 380 578 366 552 q 394 639 394 605 q 387 683 394 663 q 365 718 380 703 q 338 737 354 728 q 302 751 323 746 q 333 766 319 758 q 357 785 346 774 q 378 818 370 800 q 386 856 386 836 q 373 915 386 889 q 336 958 359 941 q 279 984 312 975 q 207 993 246 993 q 139 983 170 993 q 83 957 107 974 q 46 914 60 939 q 33 858 33 889 l 128 858 q 133 879 128 869 q 146 896 138 888 q 173 909 157 905 q 209 914 189 914 q 246 909 230 914 q 272 895 262 904 q 286 875 281 886 q 290 851 290 864 q 284 823 290 836 q 265 801 277 810 q 238 789 254 793 q 201 785 222 785 l 150 785 m 318 149 l 667 796 l 589 841 l 241 194 l 318 149 z "},"Æ":{"ha":833,"x_min":22,"x_max":810,"o":"m 810 0 l 810 102 l 568 102 l 568 463 l 772 463 l 772 565 l 568 565 l 566 884 l 795 884 l 795 987 l 401 987 l 22 0 l 156 0 l 239 239 l 450 239 l 450 0 l 810 0 m 281 357 l 448 836 l 450 357 l 281 357 z "},"æ":{"ha":833,"x_min":29,"x_max":809,"o":"m 608 -14 q 679 -7 648 -14 q 734 8 711 -1 q 773 27 758 17 q 798 43 789 37 l 766 136 q 743 120 755 128 q 714 105 730 112 q 678 93 698 98 q 632 88 658 88 q 562 99 591 87 q 513 128 532 110 q 490 158 499 142 q 477 192 481 174 q 470 233 473 211 q 467 279 467 254 l 467 337 l 809 337 l 809 496 q 794 599 809 553 q 751 679 780 646 q 681 729 723 711 q 585 747 640 747 q 525 740 553 747 q 474 718 497 732 q 448 699 460 709 q 425 675 435 688 q 400 701 414 689 q 372 721 387 713 q 320 741 349 734 q 257 747 291 747 q 168 733 208 747 q 100 692 128 718 q 57 627 72 665 q 41 543 41 589 l 163 537 q 169 582 163 562 q 188 615 176 602 q 219 637 201 629 q 258 644 237 644 q 295 638 279 644 q 321 619 311 631 q 340 582 334 604 q 347 531 347 559 l 347 431 l 304 431 q 183 414 235 431 q 96 366 131 397 q 46 292 63 336 q 29 193 29 248 q 42 108 29 146 q 81 43 56 70 q 142 1 106 16 q 227 -14 179 -14 q 287 -5 260 -14 q 336 16 314 3 q 376 48 359 30 q 406 85 393 66 q 432 52 418 67 q 464 25 447 37 q 528 -4 492 6 q 608 -14 564 -14 m 252 88 q 209 96 227 88 q 178 119 190 104 q 158 151 165 132 q 152 191 152 170 q 162 246 152 220 q 193 292 173 272 q 241 324 212 312 q 305 336 269 336 l 347 336 q 347 269 347 292 q 347 204 347 247 q 347 162 347 175 q 347 137 347 149 q 328 120 338 128 q 307 105 318 112 q 279 93 294 98 q 252 88 265 88 m 690 434 l 467 434 l 467 481 q 470 521 467 501 q 478 558 473 541 q 495 594 485 578 q 520 623 505 609 q 548 639 532 633 q 585 644 565 644 q 629 634 610 644 q 663 606 649 623 q 683 567 676 589 q 690 521 690 545 l 690 434 z "},"Œ":{"ha":833,"x_min":54,"x_max":807,"o":"m 807 0 l 807 102 l 531 102 l 531 458 l 764 458 l 764 562 l 531 562 l 531 884 l 800 884 l 800 987 l 517 987 q 429 997 475 993 q 337 1001 384 1001 q 219 978 271 1001 q 130 910 166 955 q 73 799 93 865 q 54 646 54 733 l 54 340 q 74 188 54 254 q 131 77 94 121 q 220 9 168 32 q 338 -14 273 -14 q 430 -9 385 -14 q 517 0 475 -5 l 807 0 m 338 89 q 270 101 300 89 q 220 143 240 114 q 189 221 199 172 q 179 340 179 269 l 179 648 q 189 767 179 719 q 219 844 199 814 q 269 885 239 873 q 337 898 298 898 q 372 897 355 898 q 406 895 389 897 l 406 91 q 372 90 389 90 q 338 89 355 89 z "},"œ":{"ha":833,"x_min":31,"x_max":814,"o":"m 31 433 l 31 299 q 46 170 31 228 q 92 72 62 113 q 165 9 121 31 q 264 -14 208 -14 q 330 -5 300 -14 q 385 21 360 4 q 413 44 399 31 q 437 73 426 57 q 459 46 447 58 q 485 24 471 34 q 544 -4 511 5 q 615 -14 576 -14 q 673 -8 648 -14 q 720 6 699 -3 q 755 26 740 15 q 782 50 770 38 l 745 136 q 722 118 734 126 q 694 103 709 110 q 659 92 678 96 q 615 88 639 88 q 580 95 595 88 q 552 114 564 101 q 529 149 539 127 q 512 197 519 170 q 505 242 507 218 q 503 293 503 267 l 503 336 l 814 336 l 814 459 q 801 574 814 521 q 762 665 788 627 q 693 726 734 704 q 596 747 652 747 q 540 739 567 747 q 490 713 513 730 q 461 690 475 703 q 437 660 448 676 q 414 687 427 675 q 388 709 402 700 q 332 738 363 728 q 263 747 300 747 q 164 725 208 747 q 92 661 121 703 q 46 562 62 620 q 31 433 31 505 m 157 299 l 157 433 q 163 518 157 479 q 182 585 170 557 q 215 628 195 612 q 263 644 235 644 q 312 629 292 644 q 346 585 333 613 q 357 555 352 572 q 365 520 361 538 q 369 479 368 501 q 371 433 371 457 l 371 299 q 368 242 371 269 q 361 192 365 215 q 348 151 357 172 q 321 112 338 130 q 297 95 312 101 q 264 88 282 88 q 215 104 235 88 q 182 147 195 119 q 163 214 169 175 q 157 299 157 253 m 596 644 q 638 632 621 644 q 667 599 656 619 q 683 551 678 578 q 688 496 688 525 l 688 439 l 503 439 l 503 441 q 505 486 503 465 q 510 526 507 507 q 525 583 515 556 q 550 624 536 609 q 572 639 560 634 q 596 644 583 644 z "},"ð":{"ha":833,"x_min":50,"x_max":723,"o":"m 573 872 l 716 954 l 667 1022 l 511 932 q 419 992 468 967 q 317 1031 371 1017 l 278 924 q 339 899 309 913 q 396 867 368 885 l 234 774 l 283 707 l 464 810 q 536 710 506 767 q 583 578 567 653 q 492 640 544 616 q 380 663 440 663 q 249 638 309 663 q 144 568 188 613 q 74 458 99 522 q 50 317 50 395 q 74 187 50 248 q 143 82 98 127 q 249 12 187 37 q 383 -14 310 -14 q 475 -2 431 -14 q 555 33 518 10 q 631 100 598 59 q 688 192 665 140 q 714 282 705 233 q 723 387 723 332 l 723 429 q 683 681 723 569 q 573 872 644 792 m 386 88 q 297 108 336 88 q 231 161 258 128 q 190 234 204 193 q 176 317 176 275 q 190 410 176 366 q 231 488 204 454 q 296 540 258 521 q 380 559 334 559 q 519 530 465 559 q 597 465 574 501 q 597 448 597 456 q 597 431 597 439 l 597 387 q 591 307 597 345 q 574 237 585 269 q 539 169 560 198 q 492 121 519 140 q 443 97 470 105 q 386 88 416 88 z "},"Þ":{"ha":833,"x_min":114,"x_max":758,"o":"m 239 987 l 114 987 l 114 0 l 239 0 l 239 212 l 427 212 q 568 234 507 212 q 672 294 629 255 q 736 385 714 332 q 758 500 758 437 q 736 616 758 564 q 672 708 714 669 q 568 767 629 746 q 427 789 507 789 l 239 789 l 239 987 m 239 686 l 427 686 q 519 670 480 686 q 583 629 558 655 q 621 569 608 603 q 633 499 633 536 q 621 430 633 463 q 583 372 608 397 q 519 331 557 346 q 427 315 480 315 l 239 315 l 239 686 z "},"þ":{"ha":833,"x_min":117,"x_max":737,"o":"m 737 359 l 737 373 q 719 524 737 455 q 665 642 701 593 q 575 720 629 692 q 451 747 522 747 q 377 740 412 747 q 315 716 343 732 q 276 691 294 705 q 243 658 258 676 l 243 1057 l 117 1057 l 117 -282 l 243 -282 l 243 73 q 276 41 258 55 q 315 17 294 27 q 378 -6 344 2 q 453 -14 413 -14 q 575 15 522 -14 q 665 94 628 43 q 719 212 701 144 q 737 359 737 280 m 612 373 l 612 359 q 600 256 612 305 q 565 170 589 208 q 504 111 541 133 q 415 89 467 89 q 353 97 381 89 q 304 121 326 106 q 270 151 285 134 q 243 189 255 168 l 243 540 q 271 580 255 562 q 307 611 287 598 q 355 633 328 625 q 414 641 382 641 q 503 619 466 641 q 565 561 541 597 q 600 475 589 524 q 612 373 612 427 z "},"ß":{"ha":833,"x_min":115,"x_max":746,"o":"m 239 0 l 239 737 q 280 898 240 842 q 388 954 321 954 q 431 945 410 954 q 469 919 452 936 q 496 876 486 901 q 506 817 506 850 q 499 769 506 791 q 482 728 492 748 q 459 689 471 708 q 437 651 447 671 q 419 608 426 631 q 412 559 412 586 q 428 478 412 513 q 467 416 444 444 q 517 363 490 387 q 567 316 544 339 q 605 266 590 292 q 621 208 621 240 q 613 161 621 182 q 591 123 606 139 q 553 97 576 106 q 498 88 530 88 q 452 93 475 88 q 408 106 429 98 q 368 123 386 114 q 338 140 350 132 l 309 35 q 346 15 323 24 q 397 0 369 6 q 454 -11 424 -7 q 511 -14 484 -14 q 606 0 563 -14 q 680 43 649 14 q 729 114 711 71 q 746 214 746 157 q 731 292 746 258 q 692 354 715 326 q 642 406 669 382 q 592 453 615 429 q 554 502 569 477 q 538 558 538 527 q 552 618 538 592 q 581 673 565 644 q 611 738 597 701 q 625 827 625 774 q 606 929 625 886 q 553 1000 587 972 q 476 1043 520 1029 q 381 1057 432 1057 q 275 1035 323 1057 q 191 973 226 1014 q 135 873 155 932 q 115 737 115 813 l 115 0 l 239 0 z "},"$":{"ha":833,"x_min":110,"x_max":741,"o":"m 615 254 q 602 188 615 217 q 564 138 589 158 q 505 106 540 117 q 425 95 469 95 q 357 104 391 95 q 296 136 323 114 q 252 196 269 159 q 235 291 235 234 l 110 291 q 132 159 110 214 q 192 68 155 104 q 278 13 229 32 q 379 -12 326 -6 l 379 -141 l 480 -141 l 480 -11 q 588 16 539 -5 q 670 70 636 36 q 723 150 704 103 q 741 256 741 197 q 723 361 741 316 q 669 441 704 407 q 583 502 633 476 q 468 549 532 528 q 379 585 416 566 q 319 625 342 604 q 284 673 295 647 q 273 734 273 700 q 283 797 273 768 q 312 845 293 825 q 365 880 332 867 q 440 892 397 892 q 511 876 480 892 q 564 833 543 861 q 596 767 585 806 q 608 684 608 729 l 732 684 q 711 822 732 762 q 652 922 691 882 q 582 972 623 953 q 492 998 541 991 l 492 1147 l 391 1147 l 391 998 q 291 970 336 991 q 214 916 245 949 q 165 835 182 881 q 148 732 148 789 q 168 625 148 671 q 224 544 187 579 q 311 482 260 508 q 425 437 361 456 q 511 401 475 420 q 571 359 548 382 q 605 311 594 337 q 615 254 615 285 z "},"¢":{"ha":833,"x_min":100,"x_max":732,"o":"m 433 88 q 335 112 374 88 q 271 173 295 135 q 236 257 247 210 q 226 353 226 304 l 226 381 q 236 475 226 429 q 271 560 247 522 q 335 621 296 597 q 433 644 375 644 q 504 631 471 644 q 561 596 537 618 q 598 544 585 574 q 613 481 612 515 l 732 481 q 714 575 732 531 q 663 654 696 619 q 586 712 631 688 q 487 743 541 735 l 487 894 l 361 894 l 361 741 q 247 695 296 728 q 165 613 198 661 q 116 505 133 564 q 100 381 100 446 l 100 353 q 116 229 100 288 q 165 121 133 169 q 247 39 198 73 q 361 -7 296 5 l 361 -166 l 487 -166 l 487 -9 q 581 22 536 -1 q 659 77 625 44 q 711 148 692 109 q 732 231 731 188 l 613 231 q 597 175 612 201 q 557 130 582 149 q 499 99 532 110 q 433 88 467 88 z "},"£":{"ha":833,"x_min":77,"x_max":779,"o":"m 314 425 l 528 425 l 528 528 l 311 528 l 305 705 q 318 786 305 750 q 352 848 330 823 q 404 885 374 872 q 469 899 434 899 q 531 889 501 899 q 583 861 560 880 q 619 811 606 842 q 632 739 632 781 l 758 739 q 739 846 758 798 q 685 928 720 894 q 597 982 649 963 q 481 1001 546 1001 q 360 981 416 1001 q 264 922 304 960 q 202 829 224 884 q 179 705 179 774 l 185 528 l 77 528 l 77 425 l 189 425 l 194 271 q 191 222 194 250 q 181 170 189 195 q 161 126 174 145 q 130 102 149 107 l 79 102 l 79 0 l 778 0 l 779 102 l 278 102 q 293 130 287 115 q 304 161 300 145 q 316 215 312 186 q 319 271 319 243 l 314 425 z "},"¥":{"ha":833,"x_min":22,"x_max":810,"o":"m 351 0 l 477 0 l 477 221 l 741 221 l 741 302 l 477 302 l 477 417 l 741 417 l 741 499 l 525 499 l 810 987 l 667 987 l 448 587 l 417 529 l 416 529 l 385 587 l 166 987 l 22 987 l 308 499 l 94 499 l 94 417 l 351 417 l 351 302 l 94 302 l 94 221 l 351 221 l 351 0 z "},"¤":{"ha":833,"x_min":70,"x_max":793,"o":"m 631 57 l 704 -18 l 793 74 l 715 155 q 753 246 739 197 q 766 349 766 295 q 751 458 766 407 q 709 553 736 510 l 793 640 l 704 732 l 623 648 q 533 695 582 678 q 430 711 484 711 q 327 695 376 711 q 238 649 279 679 l 159 732 l 70 640 l 151 556 q 108 460 123 512 q 93 349 93 408 q 106 244 93 294 q 146 152 120 195 l 70 74 l 159 -18 l 229 56 q 322 5 271 23 q 430 -14 372 -14 q 538 5 488 -14 q 631 57 589 23 m 210 349 q 227 444 210 399 q 273 523 243 489 q 343 576 302 556 q 430 595 383 595 q 517 576 477 595 q 587 523 557 556 q 632 444 616 489 q 649 349 649 399 q 632 254 649 299 q 587 176 616 210 q 517 122 557 142 q 430 102 477 102 q 343 122 383 102 q 273 176 302 142 q 227 254 243 210 q 210 349 210 299 z "},"!":{"ha":833,"x_min":330,"x_max":486,"o":"m 468 319 l 468 987 l 342 987 l 342 319 l 468 319 m 330 66 q 349 14 330 35 q 407 -7 368 -7 q 466 14 446 -7 q 486 66 486 35 q 466 120 486 98 q 407 142 446 142 q 349 120 368 142 q 330 66 330 98 z "},"¡":{"ha":833,"x_min":338,"x_max":494,"o":"m 354 414 l 354 -252 l 479 -252 l 479 414 l 354 414 m 494 671 q 474 726 494 704 q 416 748 454 748 q 357 726 377 748 q 338 671 338 704 q 357 619 338 640 q 416 597 377 597 q 474 619 454 597 q 494 671 494 640 z "},"?":{"ha":833,"x_min":130,"x_max":713,"o":"m 347 278 l 472 278 q 473 325 472 304 q 480 364 475 346 q 497 400 486 382 q 528 437 508 418 q 593 499 560 466 q 652 571 626 532 q 696 652 679 609 q 713 744 713 695 q 693 852 713 805 q 636 933 673 900 q 545 984 599 966 q 422 1001 491 1001 q 308 984 361 1001 q 216 937 254 968 q 153 859 176 905 q 130 757 130 814 l 255 757 q 269 818 255 792 q 307 860 283 843 q 360 884 330 876 q 422 892 391 892 q 496 881 464 892 q 549 849 528 870 q 577 803 568 830 q 587 740 587 775 q 574 675 587 706 q 542 618 562 645 q 497 565 522 590 q 450 516 473 540 q 396 462 416 485 q 365 415 376 439 q 351 358 354 390 q 347 278 347 327 m 332 66 q 352 14 332 35 q 410 -7 371 -7 q 468 14 448 -7 q 488 66 488 35 q 468 120 488 98 q 410 142 448 142 q 352 120 371 142 q 332 66 332 98 z "},"¿":{"ha":833,"x_min":138,"x_max":694,"o":"m 491 456 l 366 456 q 365 410 366 430 q 359 372 363 389 q 342 336 353 353 q 312 300 332 319 q 251 237 281 271 q 195 165 220 203 q 154 83 170 127 q 138 -9 138 40 q 157 -117 138 -70 q 212 -198 176 -165 q 299 -249 247 -231 q 416 -266 351 -266 q 526 -249 475 -266 q 614 -201 576 -233 q 672 -124 651 -170 q 694 -22 694 -79 l 569 -22 q 556 -82 569 -57 q 522 -124 543 -108 q 473 -149 500 -141 q 416 -157 446 -157 q 349 -146 378 -157 q 300 -115 319 -136 q 273 -68 282 -96 q 264 -5 264 -41 q 276 60 264 30 q 307 119 288 91 q 347 172 325 146 q 391 221 370 197 q 444 274 424 252 q 474 321 464 297 q 487 377 484 346 q 491 456 490 408 m 345 670 q 365 617 345 639 q 423 596 385 596 q 481 617 462 596 q 501 670 501 639 q 481 725 501 703 q 423 747 462 747 q 365 725 385 747 q 345 670 345 703 z "},",":{"ha":833,"x_min":240,"x_max":436,"o":"m 436 29 l 436 149 l 300 149 l 300 27 q 286 -84 300 -31 q 240 -185 273 -138 l 318 -228 q 404 -109 372 -180 q 436 29 436 -39 z "},".":{"ha":833,"x_min":336,"x_max":534,"o":"m 336 81 q 361 15 336 42 q 435 -13 386 -13 q 509 14 483 -13 q 534 81 534 41 q 509 150 534 122 q 435 178 484 178 q 361 150 385 178 q 336 81 336 121 z "},":":{"ha":833,"x_min":370,"x_max":568,"o":"m 370 81 q 395 15 370 42 q 469 -13 420 -13 q 543 14 517 -13 q 568 81 568 41 q 543 150 568 122 q 469 178 517 178 q 395 150 419 178 q 370 81 370 121 m 370 675 q 395 609 370 636 q 469 581 420 581 q 543 608 517 581 q 568 675 568 635 q 543 744 568 716 q 469 772 517 772 q 395 744 419 772 q 370 675 370 715 z "},";":{"ha":833,"x_min":330,"x_max":562,"o":"m 364 675 q 389 609 364 636 q 463 581 414 581 q 536 608 511 581 q 562 675 562 635 q 537 744 562 716 q 463 772 511 772 q 389 744 413 772 q 364 675 364 715 m 526 29 l 526 149 l 389 149 l 389 27 q 376 -84 389 -31 q 330 -185 362 -138 l 408 -228 q 494 -109 462 -180 q 526 29 526 -39 z "},"…":{"ha":833,"x_min":180,"x_max":894,"o":"m 180 81 q 204 15 180 42 q 278 -13 229 -13 q 352 14 326 -13 q 378 81 378 41 q 352 150 378 122 q 278 178 327 178 q 204 150 229 178 q 180 81 180 121 m 442 81 q 467 15 442 42 q 541 -13 492 -13 q 614 14 589 -13 q 640 81 640 41 q 615 150 640 122 q 541 178 589 178 q 467 150 491 178 q 442 81 442 121 m 696 81 q 721 15 696 42 q 794 -13 745 -13 q 868 14 842 -13 q 894 81 894 41 q 868 150 894 122 q 794 178 843 178 q 720 150 745 178 q 696 81 696 121 z "},"·":{"ha":833,"x_min":342,"x_max":498,"o":"m 342 494 q 361 441 342 463 q 420 420 381 420 q 478 441 458 420 q 498 494 498 463 q 478 549 498 527 q 420 570 458 570 q 361 549 381 570 q 342 494 342 527 z "},"•":{"ha":833,"x_min":278,"x_max":554,"o":"m 278 536 l 278 496 q 288 443 278 467 q 316 401 298 418 q 359 373 334 382 q 416 363 385 363 q 474 373 448 363 q 517 401 499 382 q 545 443 535 418 q 554 496 554 467 l 554 536 q 545 590 554 565 q 517 632 535 614 q 473 660 499 650 q 416 670 448 670 q 358 660 384 670 q 315 632 333 650 q 288 590 298 614 q 278 536 278 565 z "},"_":{"ha":833,"x_min":105,"x_max":727,"o":"m 727 -102 l 727 0 l 105 0 l 105 -102 l 727 -102 z "},"-":{"ha":833,"x_min":148,"x_max":667,"o":"m 667 380 l 667 484 l 148 484 l 148 380 l 667 380 z "},"–":{"ha":833,"x_min":50,"x_max":786,"o":"m 786 441 l 786 544 l 50 544 l 50 441 l 786 441 z "},"—":{"ha":833,"x_min":54,"x_max":789,"o":"m 789 441 l 789 544 l 54 544 l 54 441 l 789 441 z "},"'":{"ha":833,"x_min":335,"x_max":443,"o":"m 443 966 l 443 1042 l 336 1042 l 336 956 l 335 717 l 429 717 l 443 966 z "},"\"":{"ha":833,"x_min":240,"x_max":585,"o":"m 342 968 l 342 1042 l 241 1042 l 241 957 l 240 717 l 328 717 l 342 968 m 585 968 l 585 1042 l 484 1042 l 484 957 l 483 717 l 570 717 l 585 968 z "},"‘":{"ha":833,"x_min":334,"x_max":520,"o":"m 334 804 l 334 705 l 456 705 l 456 806 q 472 914 456 864 q 520 1013 488 964 l 452 1061 q 401 1006 423 1037 q 365 941 380 975 q 341 871 349 906 q 334 804 334 836 z "},"’":{"ha":833,"x_min":313,"x_max":499,"o":"m 499 957 l 499 1057 l 376 1057 l 376 955 q 360 846 376 897 q 313 748 345 796 l 381 699 q 431 755 410 724 q 469 821 453 786 q 491 890 484 854 q 499 957 499 925 z "},"‚":{"ha":833,"x_min":301,"x_max":490,"o":"m 490 52 l 490 153 l 365 153 l 365 50 q 349 -58 365 -8 q 301 -156 333 -109 l 372 -205 q 422 -150 401 -181 q 460 -84 444 -118 q 483 -15 475 -50 q 490 52 490 20 z "},"“":{"ha":833,"x_min":223,"x_max":630,"o":"m 223 804 l 223 705 l 346 705 l 346 806 q 362 914 346 864 q 410 1013 378 964 l 341 1061 q 291 1006 313 1037 q 254 941 269 975 q 231 871 239 906 q 223 804 223 836 m 444 804 l 444 705 l 566 705 l 566 806 q 582 914 566 864 q 630 1013 598 964 l 562 1061 q 511 1006 533 1037 q 475 941 490 975 q 451 871 459 906 q 444 804 444 836 z "},"”":{"ha":833,"x_min":204,"x_max":616,"o":"m 391 957 l 391 1057 l 268 1057 l 268 955 q 252 846 268 897 q 204 748 236 796 l 273 699 q 323 755 301 724 q 360 821 345 786 q 383 890 375 854 q 391 957 391 925 m 616 957 l 616 1057 l 493 1057 l 493 955 q 477 846 493 897 q 429 748 461 796 l 498 699 q 548 755 526 724 q 585 821 570 786 q 608 890 600 854 q 616 957 616 925 z "},"„":{"ha":833,"x_min":205,"x_max":591,"o":"m 395 51 l 395 151 l 269 151 l 269 49 q 253 -60 269 -9 q 205 -157 237 -110 l 277 -207 q 327 -151 305 -182 q 364 -85 349 -119 q 387 -16 379 -52 q 395 51 395 19 m 591 51 l 591 151 l 466 151 l 466 49 q 450 -60 466 -9 q 402 -157 434 -110 l 473 -207 q 524 -151 502 -182 q 561 -85 545 -119 q 584 -16 576 -52 q 591 51 591 19 z "},"′":{"ha":833,"x_min":335,"x_max":443,"o":"m 443 966 l 443 1042 l 336 1042 l 336 956 l 335 717 l 429 717 l 443 966 z "},"″":{"ha":833,"x_min":240,"x_max":585,"o":"m 342 968 l 342 1042 l 241 1042 l 241 957 l 240 717 l 328 717 l 342 968 m 585 968 l 585 1042 l 484 1042 l 484 957 l 483 717 l 570 717 l 585 968 z "},"(":{"ha":833,"x_min":242,"x_max":600,"o":"m 242 401 l 242 394 q 257 212 242 297 q 298 54 273 126 q 357 -80 323 -20 q 428 -186 391 -140 q 502 -267 465 -234 q 574 -319 540 -300 l 600 -242 q 545 -188 572 -220 q 492 -116 517 -157 q 444 -19 467 -73 q 403 98 420 35 q 377 234 387 160 q 368 393 368 308 l 368 402 q 378 567 368 490 q 406 707 388 644 q 454 837 425 778 q 513 941 482 897 q 556 992 534 969 q 600 1031 578 1015 l 574 1114 q 503 1062 540 1095 q 429 982 465 1029 q 358 875 391 935 q 298 742 324 814 q 257 583 273 669 q 242 401 242 498 z "},")":{"ha":833,"x_min":217,"x_max":576,"o":"m 576 394 l 576 401 q 560 588 576 505 q 519 742 544 671 q 461 875 494 816 q 390 982 428 934 q 315 1062 353 1029 q 243 1114 277 1095 l 217 1038 q 263 993 239 1019 q 309 932 287 967 q 366 829 338 888 q 414 695 394 770 q 438 568 427 643 q 450 402 450 494 l 450 393 q 441 241 450 312 q 417 109 433 170 q 379 -12 402 43 q 330 -111 355 -67 q 275 -188 304 -155 q 217 -242 245 -221 l 243 -319 q 315 -267 277 -300 q 390 -186 353 -234 q 460 -80 427 -140 q 519 54 494 -20 q 561 212 545 126 q 576 394 576 297 z "},"[":{"ha":833,"x_min":289,"x_max":557,"o":"m 557 1025 l 557 1128 l 289 1128 l 289 -212 l 557 -212 l 557 -109 l 408 -109 l 408 1025 l 557 1025 z "},"]":{"ha":833,"x_min":275,"x_max":544,"o":"m 275 1128 l 275 1025 l 425 1025 l 425 -109 l 275 -109 l 275 -212 l 544 -212 l 544 1128 l 275 1128 z "},"{":{"ha":833,"x_min":219,"x_max":677,"o":"m 663 -248 l 677 -170 q 608 -147 635 -169 q 564 -92 581 -125 q 541 -17 547 -58 q 534 67 534 25 l 534 182 q 496 324 533 262 q 380 416 458 385 q 496 510 458 448 q 534 652 534 571 l 534 768 q 538 851 534 809 q 557 927 542 893 q 600 982 571 960 q 677 1005 629 1004 l 663 1083 q 547 1054 595 1081 q 469 983 498 1026 q 422 880 437 937 q 408 768 408 823 l 408 652 q 361 510 408 554 q 219 467 315 467 l 219 368 q 361 323 315 368 q 408 182 408 279 l 408 67 q 423 -42 408 13 q 469 -142 439 -98 q 549 -218 501 -189 q 663 -248 597 -246 z "},"}":{"ha":833,"x_min":219,"x_max":677,"o":"m 219 -170 l 233 -248 q 348 -218 300 -247 q 428 -143 396 -189 q 474 -42 459 -98 q 489 67 489 13 l 489 182 q 500 264 489 229 q 533 321 511 298 q 592 356 556 345 q 677 368 629 368 l 677 467 q 582 481 622 467 q 520 528 543 496 q 497 581 505 550 q 489 652 489 612 l 489 768 q 474 883 489 825 q 424 988 458 941 q 346 1055 393 1029 q 233 1083 299 1081 l 220 1005 q 297 982 269 1004 q 340 927 326 960 q 359 851 355 893 q 363 768 363 809 l 363 652 q 379 554 363 600 q 427 475 395 509 q 467 442 444 457 q 517 416 490 427 q 468 391 490 406 q 429 359 446 377 q 379 281 395 326 q 363 182 363 235 l 363 67 q 356 -17 363 25 q 333 -92 349 -58 q 288 -147 316 -125 q 219 -170 260 -169 z "},"‹":{"ha":833,"x_min":269,"x_max":564,"o":"m 389 373 l 564 644 l 469 644 l 269 380 l 269 367 l 469 104 l 564 104 l 389 373 z "},"›":{"ha":833,"x_min":269,"x_max":564,"o":"m 365 644 l 269 644 l 444 373 l 269 103 l 365 103 l 564 367 l 564 380 l 365 644 z "},"+":{"ha":833,"x_min":81,"x_max":758,"o":"m 481 530 l 481 818 l 356 818 l 356 530 l 81 530 l 81 405 l 356 405 l 356 99 l 481 99 l 481 405 l 758 405 l 758 530 l 481 530 z "},"−":{"ha":833,"x_min":115,"x_max":681,"o":"m 681 441 l 681 544 l 115 544 l 115 441 l 681 441 z "},"±":{"ha":833,"x_min":106,"x_max":727,"o":"m 481 580 l 481 859 l 367 859 l 367 580 l 106 580 l 106 477 l 367 477 l 367 196 l 481 196 l 481 477 l 727 477 l 727 580 l 481 580 m 699 1 l 699 103 l 132 103 l 132 1 l 699 1 z "},"×":{"ha":833,"x_min":123,"x_max":734,"o":"m 123 223 l 203 140 l 428 368 l 653 140 l 734 223 l 509 452 l 732 678 l 651 762 l 428 534 l 205 762 l 125 678 l 347 452 l 123 223 z "},"÷":{"ha":833,"x_min":78,"x_max":755,"o":"m 755 407 l 755 532 l 78 532 l 78 407 l 755 407 m 344 744 q 362 693 344 713 q 418 673 381 673 q 473 693 454 673 q 492 744 492 713 q 473 795 492 774 q 418 817 454 817 q 362 795 381 817 q 344 744 344 774 m 342 191 q 361 141 342 161 q 416 120 380 120 q 472 141 453 120 q 491 191 491 161 q 472 243 491 222 q 416 264 453 264 q 361 243 380 264 q 342 191 342 222 z "},"=":{"ha":833,"x_min":117,"x_max":723,"o":"m 723 529 l 723 638 l 117 638 l 117 529 l 723 529 m 723 248 l 723 356 l 117 356 l 117 248 l 723 248 z "},"<":{"ha":833,"x_min":115,"x_max":690,"o":"m 690 133 l 690 266 l 275 426 l 239 438 l 275 450 l 690 612 l 690 745 l 115 489 l 115 390 l 690 133 z "},">":{"ha":833,"x_min":121,"x_max":720,"o":"m 121 134 l 720 391 l 720 490 l 121 746 l 121 616 l 559 454 l 600 441 l 559 429 l 121 264 l 121 134 z "},"¬":{"ha":833,"x_min":128,"x_max":691,"o":"m 691 254 l 691 543 l 128 543 l 128 433 l 566 433 l 566 254 l 691 254 z "},"/":{"ha":833,"x_min":171,"x_max":695,"o":"m 283 -85 l 695 987 l 583 987 l 171 -85 l 283 -85 z "},"\\":{"ha":833,"x_min":157,"x_max":682,"o":"m 157 987 l 569 -85 l 682 -85 l 270 987 l 157 987 z "},"⁄":{"ha":833,"x_min":203,"x_max":628,"o":"m 279 144 l 628 791 l 551 836 l 203 189 l 279 144 z "},"%":{"ha":833,"x_min":30,"x_max":802,"o":"m 30 810 l 30 758 q 42 684 30 719 q 77 624 54 650 q 134 582 100 597 q 212 567 168 567 q 290 582 256 567 q 347 624 324 597 q 381 684 370 650 q 393 758 393 719 l 393 810 q 381 883 393 848 q 347 945 370 918 q 290 986 324 971 q 211 1002 256 1002 q 133 986 167 1002 q 77 945 99 971 q 42 883 54 918 q 30 810 30 848 m 123 758 l 123 810 q 128 851 123 831 q 144 886 133 871 q 171 910 154 901 q 211 920 187 920 q 252 910 235 920 q 279 886 269 901 q 295 851 290 871 q 300 810 300 831 l 300 758 q 295 717 300 736 q 279 683 290 698 q 253 658 269 667 q 212 649 236 649 q 171 658 188 649 q 144 683 155 667 q 128 717 133 698 q 123 758 123 736 m 437 229 l 437 176 q 449 103 437 138 q 484 43 461 68 q 542 1 507 16 q 621 -14 576 -14 q 698 1 665 -14 q 755 43 732 16 q 790 103 778 68 q 802 176 802 138 l 802 229 q 790 302 802 268 q 755 363 778 337 q 698 405 732 390 q 619 420 664 420 q 541 405 575 420 q 484 363 507 390 q 449 302 461 337 q 437 229 437 268 m 531 176 l 531 229 q 536 270 531 250 q 551 305 541 290 q 578 329 562 320 q 619 338 595 338 q 660 329 643 338 q 688 305 677 320 q 703 270 698 290 q 707 229 707 250 l 707 176 q 703 136 707 155 q 688 101 698 116 q 661 76 677 85 q 621 67 644 67 q 579 76 596 67 q 552 101 562 85 q 536 136 541 116 q 531 176 531 155 m 270 127 l 654 831 l 579 873 l 195 170 l 270 127 z "},"|":{"ha":833,"x_min":366,"x_max":467,"o":"m 467 -270 l 467 987 l 366 987 l 366 -270 l 467 -270 z "},"¦":{"ha":833,"x_min":347,"x_max":472,"o":"m 347 -183 l 472 -183 l 472 353 l 347 353 l 347 -183 m 472 473 l 472 987 l 347 987 l 347 473 l 472 473 z "},"©":{"ha":833,"x_min":61,"x_max":783,"o":"m 585 300 l 510 300 q 505 259 510 277 q 488 231 499 242 q 459 213 477 218 q 416 207 441 207 q 371 217 390 207 q 338 245 351 227 q 319 286 326 262 q 313 338 313 310 l 313 397 q 319 449 313 425 q 338 490 326 473 q 371 517 351 507 q 416 528 390 528 q 459 522 441 528 q 489 504 477 516 q 505 475 500 492 q 511 435 511 458 l 585 435 q 575 500 585 471 q 546 549 565 528 q 491 583 524 571 q 416 594 458 594 q 341 579 374 594 q 286 538 309 564 q 252 475 264 511 q 239 397 239 439 l 239 338 q 252 259 239 295 q 286 197 264 223 q 341 156 309 171 q 416 141 374 141 q 490 152 458 141 q 545 185 523 163 q 574 234 564 205 q 585 300 585 263 m 120 368 q 143 491 120 433 q 207 593 166 549 q 303 661 248 636 q 422 686 358 686 q 542 661 486 686 q 637 593 597 636 q 701 491 678 549 q 724 368 724 433 q 701 243 724 301 q 637 141 678 184 q 542 72 597 97 q 422 46 486 46 q 303 71 358 46 q 207 140 248 96 q 143 242 166 184 q 120 368 120 301 m 61 368 q 89 219 61 288 q 165 98 117 149 q 280 16 214 45 q 422 -14 346 -14 q 565 16 499 -14 q 680 98 631 45 q 755 219 728 149 q 783 368 783 288 q 755 516 783 447 q 680 637 728 585 q 565 718 631 688 q 422 747 499 747 q 284 719 350 747 q 170 641 218 691 q 91 520 120 591 q 61 368 62 450 z "},"®":{"ha":833,"x_min":59,"x_max":781,"o":"m 59 366 q 87 217 59 287 q 163 97 115 148 q 278 16 212 45 q 420 -14 344 -14 q 563 16 497 -14 q 677 97 629 45 q 753 217 726 148 q 781 366 781 287 q 753 515 781 446 q 677 636 726 585 q 563 717 629 688 q 420 747 497 747 q 278 717 344 747 q 163 636 212 688 q 87 515 115 585 q 59 366 59 446 m 118 366 q 141 491 118 433 q 205 593 164 549 q 301 660 245 635 q 420 685 356 685 q 539 660 484 685 q 635 593 595 635 q 699 491 676 549 q 722 366 722 433 q 699 242 722 300 q 635 140 676 184 q 539 72 595 97 q 420 47 484 47 q 301 72 356 47 q 205 140 245 97 q 141 242 164 184 q 118 366 118 300 m 345 329 l 429 329 l 511 157 l 585 157 l 486 352 q 554 393 530 367 q 578 458 578 420 q 533 556 578 524 q 415 588 489 588 l 272 588 l 272 157 l 345 157 l 345 329 m 345 395 l 345 522 l 415 522 q 485 507 465 522 q 505 455 505 492 q 499 430 505 441 q 482 411 492 419 q 456 399 471 404 q 425 395 441 395 l 345 395 z "},"™":{"ha":833,"x_min":70,"x_max":732,"o":"m 671 890 l 671 623 l 732 623 l 732 987 l 656 987 l 558 717 l 461 987 l 385 987 l 385 623 l 446 623 l 446 890 l 541 623 l 576 623 l 671 890 m 332 932 l 332 987 l 70 987 l 70 932 l 170 932 l 170 623 l 231 623 l 231 932 l 332 932 z "},"°":{"ha":833,"x_min":245,"x_max":587,"o":"m 245 825 q 259 756 245 788 q 296 702 273 725 q 351 665 319 678 q 418 651 382 651 q 483 665 452 651 q 537 702 514 678 q 574 757 560 725 q 587 825 587 789 q 574 893 587 861 q 537 949 560 925 q 483 987 514 973 q 418 1001 452 1001 q 351 987 382 1001 q 296 949 319 973 q 259 893 273 925 q 245 825 245 861 m 329 825 q 336 860 329 844 q 355 889 343 877 q 383 908 367 901 q 418 915 399 915 q 452 908 436 915 q 479 889 467 901 q 497 860 491 877 q 504 825 504 844 q 497 790 504 806 q 479 763 491 774 q 452 744 467 751 q 418 738 436 738 q 383 744 399 738 q 355 763 367 751 q 336 790 343 774 q 329 825 329 806 z "},"*":{"ha":833,"x_min":109,"x_max":760,"o":"m 364 621 l 187 399 l 286 327 l 430 567 l 575 321 l 674 395 l 500 615 l 760 679 l 723 800 l 477 698 l 496 987 l 376 987 l 393 702 l 145 804 l 109 686 l 364 621 z "},"#":{"ha":833,"x_min":41,"x_max":798,"o":"m 479 278 l 425 0 l 522 0 l 576 278 l 747 278 l 747 371 l 594 371 l 641 611 l 798 611 l 798 705 l 659 705 l 715 987 l 618 987 l 562 705 l 383 705 l 439 987 l 342 987 l 286 705 l 93 705 l 93 611 l 268 611 l 221 371 l 41 371 l 41 278 l 203 278 l 149 0 l 246 0 l 300 278 l 479 278 m 318 371 l 365 611 l 544 611 l 497 371 l 318 371 z "},"&":{"ha":833,"x_min":73,"x_max":809,"o":"m 73 253 q 93 145 73 195 q 152 61 114 96 q 244 6 190 26 q 366 -14 298 -14 q 446 -5 407 -14 q 521 21 485 4 q 563 45 543 31 q 603 75 584 58 l 659 0 l 809 0 l 686 161 q 759 295 734 220 q 783 456 783 369 l 670 456 q 656 345 669 396 q 618 250 642 293 l 410 523 l 474 577 q 530 623 504 600 q 574 671 555 646 q 603 727 593 697 q 614 792 614 756 q 599 872 614 834 q 557 939 584 910 q 490 985 529 968 q 402 1002 450 1002 q 302 986 347 1002 q 225 941 257 970 q 176 866 193 910 q 159 764 159 821 q 164 711 159 736 q 180 660 170 685 q 213 598 193 629 q 258 532 233 566 l 233 515 q 173 464 200 490 q 124 410 145 438 q 86 337 100 376 q 73 253 73 298 m 366 88 q 293 101 324 88 q 241 136 262 114 q 209 189 220 159 q 198 253 198 218 q 202 285 198 266 q 217 328 205 304 q 249 378 228 351 q 304 432 270 404 l 323 448 l 542 156 q 508 131 526 142 q 473 112 491 120 q 420 94 448 100 q 366 88 393 88 m 285 765 q 292 816 285 792 q 315 859 300 840 q 351 888 329 877 q 402 899 373 899 q 442 889 425 899 q 473 866 460 880 q 491 832 485 851 q 498 792 498 812 q 495 760 498 777 q 484 728 492 744 q 463 696 477 712 q 429 667 450 681 l 349 604 q 319 651 332 628 q 298 696 307 674 q 288 731 292 713 q 285 765 285 748 z "},"@":{"ha":833,"x_min":43,"x_max":789,"o":"m 786 535 q 767 721 789 637 q 702 865 745 805 q 593 957 658 924 q 446 989 529 989 q 291 950 361 989 q 170 844 221 911 q 83 675 115 772 q 47 469 51 577 q 63 278 43 365 q 129 127 83 191 q 245 30 174 64 q 416 -5 317 -5 q 463 -2 438 -5 q 511 7 487 1 q 556 23 534 14 q 595 45 578 33 l 573 125 q 540 106 558 115 q 501 93 522 98 q 460 84 481 87 q 418 81 439 81 q 287 107 342 81 q 195 183 231 133 q 142 304 159 233 q 130 469 126 376 q 157 649 132 567 q 228 790 182 732 q 325 874 271 844 q 444 903 378 903 q 560 878 509 903 q 646 806 611 853 q 698 690 681 758 q 712 535 715 621 q 705 441 711 486 q 685 365 698 397 q 653 312 672 332 q 608 293 633 293 q 588 296 597 293 q 572 310 578 300 q 562 337 566 319 q 561 382 559 354 l 591 724 q 543 766 573 748 q 468 784 513 784 q 380 761 420 784 q 310 696 340 739 q 260 593 279 654 q 235 457 241 532 q 237 360 231 404 q 258 284 243 316 q 298 235 273 252 q 355 217 322 217 q 399 224 378 217 q 439 243 420 231 q 467 268 454 254 q 491 299 480 282 q 503 270 496 283 q 521 246 511 256 q 555 224 535 232 q 599 217 574 217 q 684 246 649 217 q 741 321 718 275 q 773 424 762 368 q 786 535 784 481 m 319 457 q 335 558 324 513 q 365 635 347 603 q 410 683 383 666 q 473 701 437 701 q 493 699 483 701 q 512 692 503 696 l 486 397 l 486 390 q 469 361 478 374 q 451 339 460 349 q 417 317 435 324 q 378 311 398 311 q 350 320 361 311 q 330 349 338 330 q 320 395 323 368 q 319 457 317 422 z "},"§":{"ha":833,"x_min":59,"x_max":773,"o":"m 773 292 q 751 401 773 356 q 688 479 729 446 q 642 509 667 495 q 587 535 616 523 q 525 558 558 547 q 456 579 492 569 q 397 596 424 588 q 348 612 370 604 q 304 631 323 622 q 270 651 284 641 q 231 694 242 670 q 219 754 219 719 q 232 811 219 785 q 271 857 245 838 q 335 887 297 876 q 425 899 374 899 q 513 884 474 899 q 578 844 552 869 q 619 783 605 818 q 633 709 633 748 l 758 709 q 735 834 758 779 q 669 926 711 888 q 564 982 625 962 q 425 1001 502 1001 q 290 984 351 1001 q 185 934 229 966 q 118 856 142 901 q 94 753 94 810 q 104 674 94 709 q 134 612 114 640 q 158 584 144 597 q 186 559 171 571 q 148 537 166 549 q 117 511 130 525 q 77 449 91 484 q 63 374 63 415 q 85 264 63 309 q 149 185 108 218 q 200 152 172 167 q 260 124 228 137 q 347 95 300 108 q 435 68 395 81 q 510 40 478 54 q 564 12 542 26 q 605 -32 592 -8 q 618 -88 618 -56 q 604 -146 618 -120 q 563 -192 589 -173 q 498 -222 536 -211 q 412 -233 460 -233 q 331 -223 372 -233 q 258 -190 290 -213 q 205 -131 225 -168 q 184 -42 184 -95 l 59 -43 q 90 -181 59 -125 q 170 -271 120 -237 q 282 -320 219 -305 q 412 -336 346 -336 q 547 -319 486 -336 q 652 -271 608 -302 q 719 -193 695 -239 q 743 -87 743 -146 q 735 -16 743 -47 q 710 41 726 16 q 683 76 699 60 q 647 106 667 92 q 684 126 667 115 q 715 151 701 138 q 758 213 743 178 q 773 292 773 248 m 406 469 q 470 448 441 458 q 524 428 500 438 q 562 411 545 420 q 592 393 578 402 q 635 348 621 372 q 648 290 648 323 q 638 240 648 263 q 611 201 629 218 q 579 177 597 187 q 538 161 560 168 q 486 179 513 171 q 429 196 458 187 q 353 218 387 208 q 293 241 319 229 q 212 296 235 266 q 189 375 189 326 q 197 426 189 403 q 224 467 206 449 q 255 489 237 479 q 295 503 273 498 q 348 485 320 494 q 406 469 375 477 z "},"¶":{"ha":833,"x_min":143,"x_max":662,"o":"m 536 0 l 662 0 l 662 987 l 477 987 q 335 963 397 987 q 230 897 273 939 q 165 797 187 854 q 143 670 143 739 q 165 543 143 601 q 230 442 187 484 q 335 376 273 400 q 477 353 397 353 l 536 353 l 536 0 z "},"^":{"ha":833,"x_min":157,"x_max":676,"o":"m 157 459 l 273 459 l 406 789 l 416 835 l 426 789 l 560 459 l 676 459 l 460 987 l 374 987 l 157 459 z "},"~":{"ha":833,"x_min":33,"x_max":800,"o":"m 800 502 l 709 514 q 701 465 709 488 q 677 423 692 441 q 641 394 661 405 q 596 383 620 383 q 557 388 576 382 q 519 403 538 393 q 488 423 504 411 q 454 450 471 435 q 402 489 427 471 q 350 519 376 507 q 295 537 323 531 q 236 544 267 544 q 153 526 191 544 q 90 477 116 508 q 47 406 62 447 q 33 321 33 366 l 123 309 q 132 358 123 335 q 156 397 141 380 q 192 424 171 414 q 236 433 212 433 q 266 431 252 433 q 295 422 281 428 q 336 400 315 414 q 379 368 357 386 q 432 327 406 345 q 484 297 457 309 q 537 279 509 285 q 596 273 564 273 q 679 292 642 273 q 743 342 716 311 q 785 416 770 374 q 800 502 800 457 z "},"Á":{"ha":833,"x_min":55,"x_max":792,"o":"m 589 256 l 667 0 l 792 0 l 479 987 l 374 987 l 55 0 l 180 0 l 260 256 l 589 256 m 294 365 l 426 793 l 556 365 l 294 365 m 493 1237 l 368 1057 l 463 1057 l 645 1237 l 493 1237 z "},"Â":{"ha":833,"x_min":55,"x_max":792,"o":"m 589 256 l 667 0 l 792 0 l 479 987 l 374 987 l 55 0 l 180 0 l 260 256 l 589 256 m 294 365 l 426 793 l 556 365 l 294 365 m 633 1101 l 465 1264 l 389 1264 l 222 1102 l 222 1084 l 326 1084 l 427 1187 l 528 1084 l 633 1084 l 633 1101 z "},"Ä":{"ha":833,"x_min":55,"x_max":792,"o":"m 589 256 l 667 0 l 792 0 l 479 987 l 374 987 l 55 0 l 180 0 l 260 256 l 589 256 m 294 365 l 426 793 l 556 365 l 294 365 m 205 1165 q 223 1114 205 1135 q 279 1094 242 1094 q 334 1114 315 1094 q 353 1165 353 1135 q 334 1216 353 1196 q 279 1237 315 1237 q 223 1216 242 1237 q 205 1165 205 1196 m 496 1164 q 515 1113 496 1134 q 570 1093 534 1093 q 626 1113 607 1093 q 645 1164 645 1134 q 626 1215 645 1194 q 570 1236 607 1236 q 515 1215 534 1236 q 496 1164 496 1194 z "},"À":{"ha":833,"x_min":55,"x_max":792,"o":"m 589 256 l 667 0 l 792 0 l 479 987 l 374 987 l 55 0 l 180 0 l 260 256 l 589 256 m 294 365 l 426 793 l 556 365 l 294 365 m 481 1059 l 363 1239 l 212 1239 l 380 1059 l 481 1059 z "},"Å":{"ha":833,"x_min":55,"x_max":792,"o":"m 589 256 l 667 0 l 792 0 l 479 987 l 374 987 l 55 0 l 180 0 l 260 256 l 589 256 m 294 365 l 426 793 l 556 365 l 294 365 m 288 1175 q 299 1121 288 1145 q 329 1080 310 1097 q 373 1053 347 1062 q 427 1043 398 1043 q 480 1053 455 1043 q 524 1080 505 1062 q 553 1121 542 1097 q 564 1175 564 1145 q 553 1229 564 1204 q 524 1272 542 1253 q 480 1299 505 1289 q 427 1310 455 1310 q 373 1299 398 1310 q 329 1272 347 1289 q 299 1229 310 1253 q 288 1175 288 1204 m 355 1175 q 361 1205 355 1192 q 377 1230 367 1219 q 399 1243 387 1238 q 427 1249 412 1249 q 454 1243 441 1249 q 476 1229 467 1238 q 491 1205 486 1219 q 496 1175 496 1191 q 491 1146 496 1159 q 476 1124 486 1133 q 454 1109 467 1114 q 427 1103 441 1103 q 399 1109 412 1103 q 376 1124 386 1114 q 360 1147 366 1134 q 355 1175 355 1160 z "},"Ã":{"ha":833,"x_min":55,"x_max":792,"o":"m 589 256 l 667 0 l 792 0 l 479 987 l 374 987 l 55 0 l 180 0 l 260 256 l 589 256 m 294 365 l 426 793 l 556 365 l 294 365 m 660 1251 l 590 1271 q 584 1241 590 1255 q 570 1217 578 1227 q 547 1201 560 1207 q 520 1195 534 1195 q 472 1205 494 1195 q 429 1227 450 1215 q 384 1249 407 1239 q 333 1259 361 1259 q 276 1246 302 1259 q 233 1213 251 1234 q 204 1163 214 1191 q 193 1104 193 1135 l 264 1088 q 284 1141 264 1119 q 333 1163 303 1163 q 366 1158 351 1163 q 395 1147 381 1154 q 420 1131 408 1139 q 448 1116 433 1122 q 480 1103 463 1108 q 520 1099 498 1099 q 576 1111 551 1099 q 621 1144 602 1123 q 649 1192 639 1164 q 660 1251 660 1220 z "},"Ç":{"ha":833,"x_min":73,"x_max":758,"o":"m 758 297 l 632 297 q 611 214 626 252 q 571 148 596 176 q 510 104 546 119 q 424 88 473 88 q 345 103 378 88 q 286 143 311 117 q 244 201 260 168 q 218 273 228 235 q 203 349 208 310 q 199 425 199 388 l 199 564 q 203 639 199 600 q 218 715 208 678 q 244 786 228 753 q 286 844 261 819 q 345 884 311 869 q 424 899 379 899 q 510 882 473 899 q 571 836 546 865 q 611 768 596 807 q 632 685 626 730 l 758 685 q 724 814 749 755 q 656 914 699 872 q 556 978 614 956 q 424 1001 498 1001 q 313 984 362 1001 q 224 936 263 966 q 157 864 185 905 q 111 773 129 822 q 82 671 92 724 q 73 562 73 617 l 73 425 q 82 316 73 370 q 111 214 92 262 q 157 123 129 165 q 224 52 185 82 q 313 4 263 21 q 424 -14 363 -14 q 553 9 495 -14 q 654 73 611 32 q 722 171 696 114 q 758 297 749 229 m 464 0 l 374 0 l 353 -91 q 400 -97 380 -93 q 435 -108 420 -101 q 455 -127 448 -115 q 462 -155 462 -138 q 453 -186 462 -174 q 429 -207 444 -199 q 393 -219 413 -215 q 349 -222 372 -222 l 354 -295 q 430 -288 395 -295 q 489 -267 464 -280 q 541 -220 523 -249 q 559 -153 559 -191 q 551 -103 559 -123 q 528 -68 542 -82 q 494 -47 513 -55 q 456 -35 475 -39 l 464 0 z "},"É":{"ha":833,"x_min":123,"x_max":730,"o":"m 661 456 l 661 563 l 249 563 l 249 880 l 724 880 l 724 987 l 123 987 l 123 0 l 730 0 l 730 106 l 249 106 l 249 456 l 661 456 m 486 1237 l 361 1057 l 456 1057 l 638 1237 l 486 1237 z "},"Ê":{"ha":833,"x_min":123,"x_max":730,"o":"m 661 456 l 661 563 l 249 563 l 249 880 l 724 880 l 724 987 l 123 987 l 123 0 l 730 0 l 730 106 l 249 106 l 249 456 l 661 456 m 626 1101 l 458 1264 l 382 1264 l 216 1102 l 216 1084 l 319 1084 l 420 1187 l 522 1084 l 626 1084 l 626 1101 z "},"Ë":{"ha":833,"x_min":123,"x_max":730,"o":"m 661 456 l 661 563 l 249 563 l 249 880 l 724 880 l 724 987 l 123 987 l 123 0 l 730 0 l 730 106 l 249 106 l 249 456 l 661 456 m 198 1165 q 217 1114 198 1135 q 272 1094 235 1094 q 328 1114 309 1094 q 347 1165 347 1135 q 328 1216 347 1196 q 272 1237 309 1237 q 217 1216 235 1237 q 198 1165 198 1196 m 490 1164 q 508 1113 490 1134 q 564 1093 527 1093 q 619 1113 600 1093 q 638 1164 638 1134 q 619 1215 638 1194 q 564 1236 600 1236 q 508 1215 527 1236 q 490 1164 490 1194 z "},"È":{"ha":833,"x_min":123,"x_max":730,"o":"m 661 456 l 661 563 l 249 563 l 249 880 l 724 880 l 724 987 l 123 987 l 123 0 l 730 0 l 730 106 l 249 106 l 249 456 l 661 456 m 475 1059 l 356 1239 l 205 1239 l 373 1059 l 475 1059 z "},"Ð":{"ha":833,"x_min":-40,"x_max":781,"o":"m 115 0 l 344 0 q 528 34 447 1 q 665 128 609 68 q 750 272 721 188 q 781 457 780 355 l 781 530 q 750 715 780 631 q 665 859 721 799 q 528 952 609 919 q 344 987 447 986 l 115 987 l 115 554 l -40 554 l -40 452 l 115 452 l 115 0 m 392 452 l 392 554 l 243 554 l 243 884 l 344 884 q 482 856 424 883 q 578 782 541 829 q 635 670 616 734 q 655 531 654 606 l 655 457 q 636 317 654 382 q 579 205 617 253 q 482 131 541 158 q 344 102 424 103 l 243 102 l 243 452 l 392 452 z "},"Í":{"ha":833,"x_min":118,"x_max":715,"o":"m 118 987 l 118 878 l 349 878 l 349 109 l 118 109 l 118 0 l 715 0 l 715 109 l 478 109 l 478 878 l 715 878 l 715 987 l 118 987 m 451 1237 l 326 1057 l 421 1057 l 603 1237 l 451 1237 z "},"Î":{"ha":833,"x_min":118,"x_max":715,"o":"m 118 987 l 118 878 l 349 878 l 349 109 l 118 109 l 118 0 l 715 0 l 715 109 l 478 109 l 478 878 l 715 878 l 715 987 l 118 987 m 591 1101 l 422 1264 l 347 1264 l 180 1102 l 180 1084 l 283 1084 l 385 1187 l 486 1084 l 591 1084 l 591 1101 z "},"Ï":{"ha":833,"x_min":118,"x_max":715,"o":"m 118 987 l 118 878 l 349 878 l 349 109 l 118 109 l 118 0 l 715 0 l 715 109 l 478 109 l 478 878 l 715 878 l 715 987 l 118 987 m 163 1165 q 182 1114 163 1135 q 237 1094 201 1094 q 293 1114 274 1094 q 312 1165 312 1135 q 293 1216 312 1196 q 237 1237 274 1237 q 182 1216 201 1237 q 163 1165 163 1196 m 455 1164 q 474 1113 455 1134 q 529 1093 492 1093 q 585 1113 566 1093 q 604 1164 604 1134 q 585 1215 604 1194 q 529 1236 566 1236 q 474 1215 492 1236 q 455 1164 455 1194 z "},"Ì":{"ha":833,"x_min":118,"x_max":715,"o":"m 118 987 l 118 878 l 349 878 l 349 109 l 118 109 l 118 0 l 715 0 l 715 109 l 478 109 l 478 878 l 715 878 l 715 987 l 118 987 m 439 1059 l 321 1239 l 170 1239 l 338 1059 l 439 1059 z "},"Ñ":{"ha":833,"x_min":97,"x_max":736,"o":"m 736 0 l 736 987 l 610 987 l 608 251 l 224 987 l 97 987 l 97 0 l 224 0 l 226 738 l 609 0 l 736 0 m 633 1251 l 564 1271 q 558 1241 564 1255 q 543 1217 552 1227 q 521 1201 534 1207 q 494 1195 508 1195 q 445 1205 467 1195 q 402 1227 423 1215 q 358 1249 380 1239 q 307 1259 335 1259 q 250 1246 275 1259 q 206 1213 224 1234 q 177 1163 188 1191 q 167 1104 167 1135 l 237 1088 q 257 1141 238 1119 q 307 1163 277 1163 q 340 1158 325 1163 q 368 1147 355 1154 q 394 1131 381 1139 q 422 1116 407 1122 q 454 1103 436 1108 q 494 1099 471 1099 q 550 1111 524 1099 q 594 1144 576 1123 q 623 1192 612 1164 q 633 1251 633 1220 z "},"Ó":{"ha":833,"x_min":72,"x_max":760,"o":"m 760 437 l 760 549 q 751 656 760 602 q 725 761 743 711 q 679 855 707 811 q 614 931 652 899 q 526 982 576 964 q 416 1001 477 1001 q 306 982 355 1001 q 218 931 256 964 q 153 854 180 898 q 108 760 125 810 q 81 656 90 710 q 72 549 73 602 l 72 437 q 81 330 73 384 q 109 227 90 277 q 154 133 126 176 q 220 56 182 89 q 307 5 258 24 q 417 -14 356 -14 q 527 5 478 -14 q 614 56 576 24 q 680 132 652 89 q 725 226 707 176 q 751 330 743 276 q 760 437 760 384 m 636 551 l 636 437 q 632 363 635 401 q 618 287 628 324 q 592 215 608 249 q 553 155 576 180 q 495 113 528 128 q 417 97 461 97 q 340 113 373 97 q 282 155 307 128 q 241 215 258 180 q 215 288 225 250 q 200 363 205 325 q 195 437 196 402 l 195 551 q 200 624 196 585 q 215 700 205 662 q 241 771 224 737 q 281 832 257 806 q 339 873 306 858 q 416 889 372 889 q 493 874 460 889 q 551 833 526 859 q 591 772 575 806 q 618 701 608 738 q 631 624 627 663 q 636 551 635 586 m 496 1251 l 371 1071 l 466 1071 l 648 1251 l 496 1251 z "},"Ô":{"ha":833,"x_min":72,"x_max":760,"o":"m 760 437 l 760 549 q 751 656 760 602 q 725 761 743 711 q 679 855 707 811 q 614 931 652 899 q 526 982 576 964 q 416 1001 477 1001 q 306 982 355 1001 q 218 931 256 964 q 153 854 180 898 q 108 760 125 810 q 81 656 90 710 q 72 549 73 602 l 72 437 q 81 330 73 384 q 109 227 90 277 q 154 133 126 176 q 220 56 182 89 q 307 5 258 24 q 417 -14 356 -14 q 527 5 478 -14 q 614 56 576 24 q 680 132 652 89 q 725 226 707 176 q 751 330 743 276 q 760 437 760 384 m 636 551 l 636 437 q 632 363 635 401 q 618 287 628 324 q 592 215 608 249 q 553 155 576 180 q 495 113 528 128 q 417 97 461 97 q 340 113 373 97 q 282 155 307 128 q 241 215 258 180 q 215 288 225 250 q 200 363 205 325 q 195 437 196 402 l 195 551 q 200 624 196 585 q 215 700 205 662 q 241 771 224 737 q 281 832 257 806 q 339 873 306 858 q 416 889 372 889 q 493 874 460 889 q 551 833 526 859 q 591 772 575 806 q 618 701 608 738 q 631 624 627 663 q 636 551 635 586 m 635 1116 l 467 1278 l 391 1278 l 225 1116 l 225 1099 l 328 1099 l 429 1201 l 531 1099 l 635 1099 l 635 1116 z "},"Ö":{"ha":833,"x_min":72,"x_max":760,"o":"m 760 437 l 760 549 q 751 656 760 602 q 725 761 743 711 q 679 855 707 811 q 614 931 652 899 q 526 982 576 964 q 416 1001 477 1001 q 306 982 355 1001 q 218 931 256 964 q 153 854 180 898 q 108 760 125 810 q 81 656 90 710 q 72 549 73 602 l 72 437 q 81 330 73 384 q 109 227 90 277 q 154 133 126 176 q 220 56 182 89 q 307 5 258 24 q 417 -14 356 -14 q 527 5 478 -14 q 614 56 576 24 q 680 132 652 89 q 725 226 707 176 q 751 330 743 276 q 760 437 760 384 m 636 551 l 636 437 q 632 363 635 401 q 618 287 628 324 q 592 215 608 249 q 553 155 576 180 q 495 113 528 128 q 417 97 461 97 q 340 113 373 97 q 282 155 307 128 q 241 215 258 180 q 215 288 225 250 q 200 363 205 325 q 195 437 196 402 l 195 551 q 200 624 196 585 q 215 700 205 662 q 241 771 224 737 q 281 832 257 806 q 339 873 306 858 q 416 889 372 889 q 493 874 460 889 q 551 833 526 859 q 591 772 575 806 q 618 701 608 738 q 631 624 627 663 q 636 551 635 586 m 208 1179 q 226 1128 208 1149 q 281 1108 245 1108 q 337 1128 318 1108 q 356 1179 356 1149 q 337 1231 356 1210 q 281 1251 318 1251 q 226 1231 245 1251 q 208 1179 208 1210 m 499 1178 q 518 1127 499 1148 q 573 1107 536 1107 q 629 1127 610 1107 q 648 1178 648 1148 q 629 1230 648 1208 q 573 1251 610 1251 q 518 1230 536 1251 q 499 1178 499 1208 z "},"Ò":{"ha":833,"x_min":72,"x_max":760,"o":"m 760 437 l 760 549 q 751 656 760 602 q 725 761 743 711 q 679 855 707 811 q 614 931 652 899 q 526 982 576 964 q 416 1001 477 1001 q 306 982 355 1001 q 218 931 256 964 q 153 854 180 898 q 108 760 125 810 q 81 656 90 710 q 72 549 73 602 l 72 437 q 81 330 73 384 q 109 227 90 277 q 154 133 126 176 q 220 56 182 89 q 307 5 258 24 q 417 -14 356 -14 q 527 5 478 -14 q 614 56 576 24 q 680 132 652 89 q 725 226 707 176 q 751 330 743 276 q 760 437 760 384 m 636 551 l 636 437 q 632 363 635 401 q 618 287 628 324 q 592 215 608 249 q 553 155 576 180 q 495 113 528 128 q 417 97 461 97 q 340 113 373 97 q 282 155 307 128 q 241 215 258 180 q 215 288 225 250 q 200 363 205 325 q 195 437 196 402 l 195 551 q 200 624 196 585 q 215 700 205 662 q 241 771 224 737 q 281 832 257 806 q 339 873 306 858 q 416 889 372 889 q 493 874 460 889 q 551 833 526 859 q 591 772 575 806 q 618 701 608 738 q 631 624 627 663 q 636 551 635 586 m 484 1073 l 366 1253 l 214 1253 l 382 1073 l 484 1073 z "},"Ø":{"ha":833,"x_min":48,"x_max":789,"o":"m 754 437 l 755 549 q 737 702 755 625 q 680 844 718 779 l 789 1028 l 693 1028 l 626 914 q 591 944 610 930 q 551 969 572 958 q 486 992 522 984 q 410 1001 451 1001 q 258 963 322 1001 q 155 865 195 924 q 89 716 109 801 q 66 549 68 632 l 66 437 q 72 353 66 395 q 89 270 77 311 q 117 191 100 229 q 157 120 134 153 l 48 -63 l 144 -63 l 215 56 q 302 5 254 24 q 412 -14 350 -14 q 558 22 496 -14 q 662 116 621 58 q 732 267 709 181 q 754 437 754 353 m 190 437 l 190 551 q 202 668 190 605 q 241 784 214 732 q 308 858 267 827 q 410 889 349 889 q 463 883 439 889 q 506 864 486 876 q 538 840 524 854 q 564 809 552 826 l 226 237 q 213 274 218 255 q 203 313 207 294 q 193 376 196 344 q 190 437 190 408 m 631 551 l 631 437 q 617 302 629 372 q 564 176 604 232 q 501 119 538 140 q 412 97 464 97 q 333 113 367 97 q 274 157 299 129 l 607 720 q 625 634 620 677 q 631 551 630 590 z "},"Õ":{"ha":833,"x_min":72,"x_max":760,"o":"m 760 437 l 760 549 q 751 656 760 602 q 725 761 743 711 q 679 855 707 811 q 614 931 652 899 q 526 982 576 964 q 416 1001 477 1001 q 306 982 355 1001 q 218 931 256 964 q 153 854 180 898 q 108 760 125 810 q 81 656 90 710 q 72 549 73 602 l 72 437 q 81 330 73 384 q 109 227 90 277 q 154 133 126 176 q 220 56 182 89 q 307 5 258 24 q 417 -14 356 -14 q 527 5 478 -14 q 614 56 576 24 q 680 132 652 89 q 725 226 707 176 q 751 330 743 276 q 760 437 760 384 m 636 551 l 636 437 q 632 363 635 401 q 618 287 628 324 q 592 215 608 249 q 553 155 576 180 q 495 113 528 128 q 417 97 461 97 q 340 113 373 97 q 282 155 307 128 q 241 215 258 180 q 215 288 225 250 q 200 363 205 325 q 195 437 196 402 l 195 551 q 200 624 196 585 q 215 700 205 662 q 241 771 224 737 q 281 832 257 806 q 339 873 306 858 q 416 889 372 889 q 493 874 460 889 q 551 833 526 859 q 591 772 575 806 q 618 701 608 738 q 631 624 627 663 q 636 551 635 586 m 663 1265 l 593 1285 q 587 1256 593 1270 q 572 1232 581 1242 q 550 1215 563 1221 q 523 1209 537 1209 q 474 1219 496 1209 q 431 1242 452 1230 q 387 1263 410 1253 q 336 1274 364 1274 q 279 1261 304 1274 q 235 1227 254 1248 q 207 1177 217 1205 q 196 1118 196 1149 l 267 1102 q 287 1155 267 1133 q 336 1177 306 1177 q 369 1173 354 1177 q 397 1161 384 1168 q 423 1145 410 1154 q 451 1130 436 1137 q 483 1118 465 1122 q 523 1113 500 1113 q 579 1125 553 1113 q 623 1158 605 1137 q 652 1206 642 1179 q 663 1265 663 1234 z "},"Ú":{"ha":833,"x_min":94,"x_max":739,"o":"m 738 987 l 616 987 l 614 319 q 600 234 613 275 q 563 162 587 193 q 501 112 538 130 q 416 93 465 93 q 331 112 368 93 q 270 162 294 131 q 232 234 245 193 q 218 319 218 275 l 215 987 l 96 987 l 94 319 q 119 189 95 250 q 184 83 142 128 q 286 12 227 38 q 416 -14 345 -14 q 546 13 487 -14 q 648 84 605 39 q 715 189 690 129 q 739 319 739 250 l 738 987 m 513 1229 l 389 1048 l 484 1048 l 665 1229 l 513 1229 z "},"Û":{"ha":833,"x_min":94,"x_max":739,"o":"m 738 987 l 616 987 l 614 319 q 600 234 613 275 q 563 162 587 193 q 501 112 538 130 q 416 93 465 93 q 331 112 368 93 q 270 162 294 131 q 232 234 245 193 q 218 319 218 275 l 215 987 l 96 987 l 94 319 q 119 189 95 250 q 184 83 142 128 q 286 12 227 38 q 416 -14 345 -14 q 546 13 487 -14 q 648 84 605 39 q 715 189 690 129 q 739 319 739 250 l 738 987 m 653 1093 l 485 1256 l 409 1256 l 243 1094 l 243 1076 l 346 1076 l 447 1179 l 549 1076 l 653 1076 l 653 1093 z "},"Ü":{"ha":833,"x_min":94,"x_max":739,"o":"m 738 987 l 616 987 l 614 319 q 600 234 613 275 q 563 162 587 193 q 501 112 538 130 q 416 93 465 93 q 331 112 368 93 q 270 162 294 131 q 232 234 245 193 q 218 319 218 275 l 215 987 l 96 987 l 94 319 q 119 189 95 250 q 184 83 142 128 q 286 12 227 38 q 416 -14 345 -14 q 546 13 487 -14 q 648 84 605 39 q 715 189 690 129 q 739 319 739 250 l 738 987 m 225 1157 q 244 1106 225 1126 q 299 1086 262 1086 q 355 1106 336 1086 q 374 1157 374 1126 q 355 1208 374 1187 q 299 1229 336 1229 q 244 1208 262 1229 q 225 1157 225 1187 m 517 1156 q 535 1105 517 1126 q 591 1084 554 1084 q 646 1105 627 1084 q 665 1156 665 1126 q 646 1207 665 1186 q 591 1228 627 1228 q 535 1207 554 1228 q 517 1156 517 1186 z "},"Ù":{"ha":833,"x_min":94,"x_max":739,"o":"m 738 987 l 616 987 l 614 319 q 600 234 613 275 q 563 162 587 193 q 501 112 538 130 q 416 93 465 93 q 331 112 368 93 q 270 162 294 131 q 232 234 245 193 q 218 319 218 275 l 215 987 l 96 987 l 94 319 q 119 189 95 250 q 184 83 142 128 q 286 12 227 38 q 416 -14 345 -14 q 546 13 487 -14 q 648 84 605 39 q 715 189 690 129 q 739 319 739 250 l 738 987 m 502 1050 l 383 1231 l 232 1231 l 400 1050 l 502 1050 z "},"Ý":{"ha":833,"x_min":41,"x_max":777,"o":"m 409 492 l 184 987 l 41 987 l 349 368 l 351 0 l 467 0 l 469 368 l 777 987 l 634 987 l 409 492 m 479 1236 l 355 1056 l 450 1056 l 631 1236 l 479 1236 z "},"á":{"ha":833,"x_min":106,"x_max":731,"o":"m 600 0 l 731 0 l 731 11 q 712 82 719 41 q 705 160 705 123 l 705 501 q 683 609 705 563 q 622 686 661 655 q 529 732 583 717 q 413 747 475 747 q 291 728 345 747 q 199 679 237 709 q 141 609 161 648 q 121 530 121 570 l 247 530 q 258 575 247 553 q 290 612 269 596 q 339 637 310 627 q 406 646 369 646 q 478 636 446 646 q 533 608 511 626 q 568 562 555 589 q 580 503 580 536 l 580 445 l 443 445 q 304 430 366 445 q 198 385 242 415 q 130 309 154 355 q 106 203 106 264 q 124 118 106 157 q 175 50 142 78 q 255 3 208 20 q 360 -14 302 -14 q 428 -6 396 -14 q 488 14 460 1 q 539 44 516 27 q 582 80 563 61 q 588 36 584 57 q 600 0 593 14 m 378 96 q 314 105 342 96 q 268 132 286 115 q 240 171 250 148 q 231 221 231 194 q 242 272 231 250 q 273 311 252 294 q 350 345 301 334 q 463 356 398 356 l 580 356 l 580 208 q 550 166 569 186 q 505 130 531 146 q 447 105 479 115 q 378 96 415 96 m 490 1019 l 366 838 l 460 838 l 642 1019 l 490 1019 z "},"â":{"ha":833,"x_min":106,"x_max":731,"o":"m 600 0 l 731 0 l 731 11 q 712 82 719 41 q 705 160 705 123 l 705 501 q 683 609 705 563 q 622 686 661 655 q 529 732 583 717 q 413 747 475 747 q 291 728 345 747 q 199 679 237 709 q 141 609 161 648 q 121 530 121 570 l 247 530 q 258 575 247 553 q 290 612 269 596 q 339 637 310 627 q 406 646 369 646 q 478 636 446 646 q 533 608 511 626 q 568 562 555 589 q 580 503 580 536 l 580 445 l 443 445 q 304 430 366 445 q 198 385 242 415 q 130 309 154 355 q 106 203 106 264 q 124 118 106 157 q 175 50 142 78 q 255 3 208 20 q 360 -14 302 -14 q 428 -6 396 -14 q 488 14 460 1 q 539 44 516 27 q 582 80 563 61 q 588 36 584 57 q 600 0 593 14 m 378 96 q 314 105 342 96 q 268 132 286 115 q 240 171 250 148 q 231 221 231 194 q 242 272 231 250 q 273 311 252 294 q 350 345 301 334 q 463 356 398 356 l 580 356 l 580 208 q 550 166 569 186 q 505 130 531 146 q 447 105 479 115 q 378 96 415 96 m 630 883 l 462 1046 l 386 1046 l 220 884 l 220 866 l 323 866 l 424 968 l 526 866 l 630 866 l 630 883 z "},"ä":{"ha":833,"x_min":106,"x_max":731,"o":"m 600 0 l 731 0 l 731 11 q 712 82 719 41 q 705 160 705 123 l 705 501 q 683 609 705 563 q 622 686 661 655 q 529 732 583 717 q 413 747 475 747 q 291 728 345 747 q 199 679 237 709 q 141 609 161 648 q 121 530 121 570 l 247 530 q 258 575 247 553 q 290 612 269 596 q 339 637 310 627 q 406 646 369 646 q 478 636 446 646 q 533 608 511 626 q 568 562 555 589 q 580 503 580 536 l 580 445 l 443 445 q 304 430 366 445 q 198 385 242 415 q 130 309 154 355 q 106 203 106 264 q 124 118 106 157 q 175 50 142 78 q 255 3 208 20 q 360 -14 302 -14 q 428 -6 396 -14 q 488 14 460 1 q 539 44 516 27 q 582 80 563 61 q 588 36 584 57 q 600 0 593 14 m 378 96 q 314 105 342 96 q 268 132 286 115 q 240 171 250 148 q 231 221 231 194 q 242 272 231 250 q 273 311 252 294 q 350 345 301 334 q 463 356 398 356 l 580 356 l 580 208 q 550 166 569 186 q 505 130 531 146 q 447 105 479 115 q 378 96 415 96 m 202 947 q 221 896 202 916 q 276 876 239 876 q 332 896 313 876 q 351 947 351 916 q 332 998 351 977 q 276 1019 313 1019 q 221 998 239 1019 q 202 947 202 977 m 494 945 q 512 895 494 916 q 568 874 531 874 q 623 895 604 874 q 642 945 642 916 q 623 997 642 976 q 568 1018 604 1018 q 512 997 531 1018 q 494 945 494 976 z "},"à":{"ha":833,"x_min":106,"x_max":731,"o":"m 600 0 l 731 0 l 731 11 q 712 82 719 41 q 705 160 705 123 l 705 501 q 683 609 705 563 q 622 686 661 655 q 529 732 583 717 q 413 747 475 747 q 291 728 345 747 q 199 679 237 709 q 141 609 161 648 q 121 530 121 570 l 247 530 q 258 575 247 553 q 290 612 269 596 q 339 637 310 627 q 406 646 369 646 q 478 636 446 646 q 533 608 511 626 q 568 562 555 589 q 580 503 580 536 l 580 445 l 443 445 q 304 430 366 445 q 198 385 242 415 q 130 309 154 355 q 106 203 106 264 q 124 118 106 157 q 175 50 142 78 q 255 3 208 20 q 360 -14 302 -14 q 428 -6 396 -14 q 488 14 460 1 q 539 44 516 27 q 582 80 563 61 q 588 36 584 57 q 600 0 593 14 m 378 96 q 314 105 342 96 q 268 132 286 115 q 240 171 250 148 q 231 221 231 194 q 242 272 231 250 q 273 311 252 294 q 350 345 301 334 q 463 356 398 356 l 580 356 l 580 208 q 550 166 569 186 q 505 130 531 146 q 447 105 479 115 q 378 96 415 96 m 479 840 l 360 1021 l 209 1021 l 377 840 l 479 840 z "},"å":{"ha":833,"x_min":106,"x_max":731,"o":"m 600 0 l 731 0 l 731 11 q 712 82 719 41 q 705 160 705 123 l 705 501 q 683 609 705 563 q 622 686 661 655 q 529 732 583 717 q 413 747 475 747 q 291 728 345 747 q 199 679 237 709 q 141 609 161 648 q 121 530 121 570 l 247 530 q 258 575 247 553 q 290 612 269 596 q 339 637 310 627 q 406 646 369 646 q 478 636 446 646 q 533 608 511 626 q 568 562 555 589 q 580 503 580 536 l 580 445 l 443 445 q 304 430 366 445 q 198 385 242 415 q 130 309 154 355 q 106 203 106 264 q 124 118 106 157 q 175 50 142 78 q 255 3 208 20 q 360 -14 302 -14 q 428 -6 396 -14 q 488 14 460 1 q 539 44 516 27 q 582 80 563 61 q 588 36 584 57 q 600 0 593 14 m 378 96 q 314 105 342 96 q 268 132 286 115 q 240 171 250 148 q 231 221 231 194 q 242 272 231 250 q 273 311 252 294 q 350 345 301 334 q 463 356 398 356 l 580 356 l 580 208 q 550 166 569 186 q 505 130 531 146 q 447 105 479 115 q 378 96 415 96 m 285 956 q 296 903 285 927 q 326 861 307 878 q 370 834 345 844 q 424 825 395 825 q 477 834 452 825 q 521 861 502 844 q 550 903 539 878 q 561 956 561 927 q 550 1010 561 985 q 521 1053 539 1035 q 477 1081 502 1071 q 424 1091 452 1091 q 370 1081 395 1091 q 326 1053 345 1071 q 296 1010 307 1035 q 285 956 285 985 m 352 956 q 358 987 352 973 q 374 1011 364 1001 q 397 1025 384 1020 q 424 1030 410 1030 q 451 1025 439 1030 q 473 1010 464 1020 q 488 986 483 1000 q 494 956 494 972 q 488 928 494 941 q 473 905 483 915 q 451 890 464 896 q 424 885 439 885 q 396 890 409 885 q 374 906 383 896 q 358 928 363 916 q 352 956 352 941 z "},"ã":{"ha":833,"x_min":106,"x_max":731,"o":"m 600 0 l 731 0 l 731 11 q 712 82 719 41 q 705 160 705 123 l 705 501 q 683 609 705 563 q 622 686 661 655 q 529 732 583 717 q 413 747 475 747 q 291 728 345 747 q 199 679 237 709 q 141 609 161 648 q 121 530 121 570 l 247 530 q 258 575 247 553 q 290 612 269 596 q 339 637 310 627 q 406 646 369 646 q 478 636 446 646 q 533 608 511 626 q 568 562 555 589 q 580 503 580 536 l 580 445 l 443 445 q 304 430 366 445 q 198 385 242 415 q 130 309 154 355 q 106 203 106 264 q 124 118 106 157 q 175 50 142 78 q 255 3 208 20 q 360 -14 302 -14 q 428 -6 396 -14 q 488 14 460 1 q 539 44 516 27 q 582 80 563 61 q 588 36 584 57 q 600 0 593 14 m 378 96 q 314 105 342 96 q 268 132 286 115 q 240 171 250 148 q 231 221 231 194 q 242 272 231 250 q 273 311 252 294 q 350 345 301 334 q 463 356 398 356 l 580 356 l 580 208 q 550 166 569 186 q 505 130 531 146 q 447 105 479 115 q 378 96 415 96 m 657 1032 l 587 1053 q 582 1023 587 1037 q 567 999 576 1009 q 545 983 557 989 q 517 977 532 977 q 469 987 491 977 q 426 1009 447 997 q 381 1031 404 1021 q 330 1041 359 1041 q 274 1028 299 1041 q 230 994 248 1015 q 201 944 212 972 q 191 886 191 916 l 261 869 q 281 923 262 901 q 330 945 300 945 q 363 940 349 945 q 392 928 378 935 q 418 912 405 921 q 446 897 431 904 q 477 885 460 890 q 517 880 495 880 q 574 892 548 880 q 618 926 600 905 q 647 974 636 946 q 657 1032 657 1002 z "},"ç":{"ha":833,"x_min":97,"x_max":729,"o":"m 431 88 q 332 112 372 88 q 269 173 292 135 q 234 257 244 210 q 223 353 223 304 l 223 381 q 234 475 223 429 q 269 560 244 522 q 333 621 293 597 q 431 644 372 644 q 502 631 469 644 q 558 596 534 618 q 596 544 582 574 q 610 481 610 515 l 729 481 q 707 586 729 537 q 645 671 684 635 q 550 727 605 706 q 431 747 496 747 q 285 718 347 747 q 181 637 222 688 q 118 520 139 587 q 97 381 97 454 l 97 353 q 118 213 97 279 q 181 97 139 147 q 285 16 222 46 q 431 -14 347 -14 q 543 6 489 -14 q 637 60 596 26 q 704 138 679 94 q 729 231 728 182 l 610 231 q 594 175 610 201 q 554 130 579 149 q 497 99 529 110 q 431 88 465 88 m 478 0 l 388 0 l 367 -91 q 414 -97 394 -93 q 449 -108 435 -101 q 469 -127 463 -115 q 476 -155 476 -138 q 467 -186 476 -174 q 443 -207 458 -199 q 407 -219 427 -215 q 363 -222 387 -222 l 368 -295 q 444 -288 410 -295 q 503 -267 478 -280 q 555 -220 537 -249 q 574 -153 574 -191 q 565 -103 574 -123 q 542 -68 556 -82 q 508 -47 527 -55 q 470 -35 490 -39 l 478 0 z "},"é":{"ha":833,"x_min":92,"x_max":741,"o":"m 442 -14 q 622 30 549 -14 q 732 128 695 73 l 655 188 q 568 116 621 143 q 449 89 516 89 q 356 108 398 89 q 284 160 314 127 q 238 232 255 191 q 217 326 222 273 l 217 331 l 741 331 l 741 387 q 722 530 741 464 q 663 644 703 595 q 565 720 624 692 q 426 747 505 747 q 303 722 363 747 q 196 648 243 696 q 120 529 149 599 q 92 370 92 458 l 92 341 q 117 199 92 264 q 189 87 143 134 q 300 13 235 39 q 442 -14 365 -14 m 426 644 q 509 627 474 644 q 567 581 544 609 q 603 513 590 552 q 616 440 616 474 l 616 434 l 221 434 q 247 524 229 485 q 293 590 266 563 q 354 630 320 616 q 426 644 388 644 m 487 1019 l 362 839 l 457 839 l 639 1019 l 487 1019 z "},"ê":{"ha":833,"x_min":92,"x_max":741,"o":"m 442 -14 q 622 30 549 -14 q 732 128 695 73 l 655 188 q 568 116 621 143 q 449 89 516 89 q 356 108 398 89 q 284 160 314 127 q 238 232 255 191 q 217 326 222 273 l 217 331 l 741 331 l 741 387 q 722 530 741 464 q 663 644 703 595 q 565 720 624 692 q 426 747 505 747 q 303 722 363 747 q 196 648 243 696 q 120 529 149 599 q 92 370 92 458 l 92 341 q 117 199 92 264 q 189 87 143 134 q 300 13 235 39 q 442 -14 365 -14 m 426 644 q 509 627 474 644 q 567 581 544 609 q 603 513 590 552 q 616 440 616 474 l 616 434 l 221 434 q 247 524 229 485 q 293 590 266 563 q 354 630 320 616 q 426 644 388 644 m 627 884 l 458 1046 l 382 1046 l 216 884 l 216 867 l 319 867 l 420 969 l 522 867 l 627 867 l 627 884 z "},"ë":{"ha":833,"x_min":92,"x_max":741,"o":"m 442 -14 q 622 30 549 -14 q 732 128 695 73 l 655 188 q 568 116 621 143 q 449 89 516 89 q 356 108 398 89 q 284 160 314 127 q 238 232 255 191 q 217 326 222 273 l 217 331 l 741 331 l 741 387 q 722 530 741 464 q 663 644 703 595 q 565 720 624 692 q 426 747 505 747 q 303 722 363 747 q 196 648 243 696 q 120 529 149 599 q 92 370 92 458 l 92 341 q 117 199 92 264 q 189 87 143 134 q 300 13 235 39 q 442 -14 365 -14 m 426 644 q 509 627 474 644 q 567 581 544 609 q 603 513 590 552 q 616 440 616 474 l 616 434 l 221 434 q 247 524 229 485 q 293 590 266 563 q 354 630 320 616 q 426 644 388 644 m 199 947 q 217 897 199 917 q 273 876 236 876 q 328 897 309 876 q 347 947 347 917 q 328 999 347 978 q 273 1019 309 1019 q 217 999 236 1019 q 199 947 199 978 m 490 946 q 509 896 490 916 q 564 875 528 875 q 620 896 601 875 q 639 946 639 916 q 620 998 639 977 q 564 1019 601 1019 q 509 998 528 1019 q 490 946 490 977 z "},"è":{"ha":833,"x_min":92,"x_max":741,"o":"m 442 -14 q 622 30 549 -14 q 732 128 695 73 l 655 188 q 568 116 621 143 q 449 89 516 89 q 356 108 398 89 q 284 160 314 127 q 238 232 255 191 q 217 326 222 273 l 217 331 l 741 331 l 741 387 q 722 530 741 464 q 663 644 703 595 q 565 720 624 692 q 426 747 505 747 q 303 722 363 747 q 196 648 243 696 q 120 529 149 599 q 92 370 92 458 l 92 341 q 117 199 92 264 q 189 87 143 134 q 300 13 235 39 q 442 -14 365 -14 m 426 644 q 509 627 474 644 q 567 581 544 609 q 603 513 590 552 q 616 440 616 474 l 616 434 l 221 434 q 247 524 229 485 q 293 590 266 563 q 354 630 320 616 q 426 644 388 644 m 475 841 l 357 1021 l 205 1021 l 374 841 l 475 841 z "},"í":{"ha":833,"x_min":138,"x_max":752,"o":"m 138 734 l 138 625 l 387 625 l 387 109 l 138 109 l 138 0 l 752 0 l 752 109 l 513 109 l 513 734 l 138 734 m 518 1004 l 393 824 l 488 824 l 670 1004 l 518 1004 z "},"î":{"ha":833,"x_min":138,"x_max":752,"o":"m 138 734 l 138 625 l 387 625 l 387 109 l 138 109 l 138 0 l 752 0 l 752 109 l 513 109 l 513 734 l 138 734 m 658 869 l 490 1031 l 414 1031 l 248 869 l 248 852 l 351 852 l 452 954 l 553 852 l 658 852 l 658 869 z "},"ï":{"ha":833,"x_min":138,"x_max":752,"o":"m 138 734 l 138 625 l 387 625 l 387 109 l 138 109 l 138 0 l 752 0 l 752 109 l 513 109 l 513 734 l 138 734 m 230 932 q 249 882 230 902 q 304 861 267 861 q 359 882 340 861 q 378 932 378 902 q 359 984 378 963 q 304 1004 340 1004 q 249 984 267 1004 q 230 932 230 963 m 522 931 q 540 881 522 901 q 595 860 559 860 q 651 881 632 860 q 670 931 670 901 q 651 983 670 962 q 595 1004 632 1004 q 540 983 559 1004 q 522 931 522 962 z "},"ì":{"ha":833,"x_min":138,"x_max":752,"o":"m 138 734 l 138 625 l 387 625 l 387 109 l 138 109 l 138 0 l 752 0 l 752 109 l 513 109 l 513 734 l 138 734 m 507 826 l 388 1006 l 237 1006 l 405 826 l 507 826 z "},"ñ":{"ha":833,"x_min":118,"x_max":722,"o":"m 118 0 l 243 0 l 243 526 q 274 570 256 550 q 311 604 291 589 q 366 631 336 621 q 431 641 396 641 q 502 631 471 641 q 554 601 532 622 q 586 546 575 580 q 597 463 597 512 l 597 0 l 722 0 l 722 466 q 704 592 722 539 q 653 680 686 646 q 573 731 620 715 q 468 747 526 747 q 387 735 425 747 q 316 701 349 723 q 275 668 294 687 q 239 625 256 648 l 231 734 l 118 734 l 118 0 m 644 1032 l 574 1053 q 568 1023 574 1037 q 553 999 562 1009 q 531 983 544 989 q 504 977 518 977 q 455 987 477 977 q 412 1009 433 997 q 368 1031 391 1021 q 317 1041 345 1041 q 260 1028 286 1041 q 216 994 235 1015 q 188 944 198 972 q 177 886 177 916 l 248 869 q 268 923 248 901 q 317 945 287 945 q 350 940 335 945 q 378 928 365 935 q 404 912 391 921 q 432 897 417 904 q 464 885 446 890 q 504 880 481 880 q 560 892 534 880 q 604 926 586 905 q 633 974 623 946 q 644 1032 644 1002 z "},"ó":{"ha":833,"x_min":83,"x_max":750,"o":"m 83 374 l 83 359 q 106 212 83 279 q 172 94 129 144 q 277 15 215 43 q 417 -14 339 -14 q 556 15 494 -14 q 661 94 618 43 q 727 212 704 144 q 750 359 750 279 l 750 374 q 727 521 750 453 q 661 640 704 589 q 556 719 618 690 q 416 747 494 747 q 277 719 338 747 q 172 640 215 690 q 106 521 129 589 q 83 374 83 453 m 208 359 l 208 374 q 221 476 208 427 q 260 563 234 526 q 325 622 286 600 q 416 644 363 644 q 507 622 468 644 q 572 563 546 600 q 611 476 598 526 q 625 374 625 427 l 625 359 q 612 255 625 304 q 573 169 599 206 q 508 110 547 132 q 417 88 469 88 q 326 110 365 88 q 260 169 286 132 q 221 255 234 206 q 208 359 208 304 m 483 1019 l 358 838 l 453 838 l 635 1019 l 483 1019 z "},"ô":{"ha":833,"x_min":83,"x_max":750,"o":"m 83 374 l 83 359 q 106 212 83 279 q 172 94 129 144 q 277 15 215 43 q 417 -14 339 -14 q 556 15 494 -14 q 661 94 618 43 q 727 212 704 144 q 750 359 750 279 l 750 374 q 727 521 750 453 q 661 640 704 589 q 556 719 618 690 q 416 747 494 747 q 277 719 338 747 q 172 640 215 690 q 106 521 129 589 q 83 374 83 453 m 208 359 l 208 374 q 221 476 208 427 q 260 563 234 526 q 325 622 286 600 q 416 644 363 644 q 507 622 468 644 q 572 563 546 600 q 611 476 598 526 q 625 374 625 427 l 625 359 q 612 255 625 304 q 573 169 599 206 q 508 110 547 132 q 417 88 469 88 q 326 110 365 88 q 260 169 286 132 q 221 255 234 206 q 208 359 208 304 m 623 883 l 454 1046 l 378 1046 l 212 884 l 212 866 l 315 866 l 416 968 l 518 866 l 623 866 l 623 883 z "},"ö":{"ha":833,"x_min":83,"x_max":750,"o":"m 83 374 l 83 359 q 106 212 83 279 q 172 94 129 144 q 277 15 215 43 q 417 -14 339 -14 q 556 15 494 -14 q 661 94 618 43 q 727 212 704 144 q 750 359 750 279 l 750 374 q 727 521 750 453 q 661 640 704 589 q 556 719 618 690 q 416 747 494 747 q 277 719 338 747 q 172 640 215 690 q 106 521 129 589 q 83 374 83 453 m 208 359 l 208 374 q 221 476 208 427 q 260 563 234 526 q 325 622 286 600 q 416 644 363 644 q 507 622 468 644 q 572 563 546 600 q 611 476 598 526 q 625 374 625 427 l 625 359 q 612 255 625 304 q 573 169 599 206 q 508 110 547 132 q 417 88 469 88 q 326 110 365 88 q 260 169 286 132 q 221 255 234 206 q 208 359 208 304 m 195 947 q 213 896 195 916 q 269 876 232 876 q 324 896 305 876 q 343 947 343 916 q 324 998 343 977 q 269 1019 305 1019 q 213 998 232 1019 q 195 947 195 977 m 486 945 q 505 895 486 916 q 560 874 524 874 q 616 895 597 874 q 635 945 635 916 q 616 997 635 976 q 560 1018 597 1018 q 505 997 524 1018 q 486 945 486 976 z "},"ò":{"ha":833,"x_min":83,"x_max":750,"o":"m 83 374 l 83 359 q 106 212 83 279 q 172 94 129 144 q 277 15 215 43 q 417 -14 339 -14 q 556 15 494 -14 q 661 94 618 43 q 727 212 704 144 q 750 359 750 279 l 750 374 q 727 521 750 453 q 661 640 704 589 q 556 719 618 690 q 416 747 494 747 q 277 719 338 747 q 172 640 215 690 q 106 521 129 589 q 83 374 83 453 m 208 359 l 208 374 q 221 476 208 427 q 260 563 234 526 q 325 622 286 600 q 416 644 363 644 q 507 622 468 644 q 572 563 546 600 q 611 476 598 526 q 625 374 625 427 l 625 359 q 612 255 625 304 q 573 169 599 206 q 508 110 547 132 q 417 88 469 88 q 326 110 365 88 q 260 169 286 132 q 221 255 234 206 q 208 359 208 304 m 471 840 l 353 1021 l 201 1021 l 370 840 l 471 840 z "},"ø":{"ha":833,"x_min":83,"x_max":750,"o":"m 83 374 l 83 359 q 119 178 83 258 q 222 47 155 97 l 153 -92 l 237 -92 l 287 11 q 348 -7 316 -1 q 417 -14 380 -14 q 556 15 494 -14 q 661 94 618 43 q 727 212 704 144 q 750 359 750 279 l 750 374 q 740 472 750 425 q 712 559 730 519 q 672 626 696 595 q 618 681 648 657 l 686 820 l 603 820 l 553 720 q 489 740 523 733 q 416 747 454 747 q 277 719 338 747 q 172 640 215 690 q 106 521 129 589 q 83 374 83 453 m 208 359 l 208 374 q 221 476 208 427 q 260 563 234 526 q 325 622 286 600 q 416 644 363 644 q 464 638 441 644 q 505 623 486 633 l 273 152 q 224 244 241 191 q 208 359 208 297 m 625 374 l 625 359 q 612 255 625 304 q 573 169 599 206 q 508 110 547 132 q 417 88 469 88 q 373 93 394 88 q 334 106 353 97 l 564 573 q 586 541 576 558 q 603 504 595 523 q 619 442 614 475 q 625 374 625 409 z "},"õ":{"ha":833,"x_min":83,"x_max":750,"o":"m 83 374 l 83 359 q 106 212 83 279 q 172 94 129 144 q 277 15 215 43 q 417 -14 339 -14 q 556 15 494 -14 q 661 94 618 43 q 727 212 704 144 q 750 359 750 279 l 750 374 q 727 521 750 453 q 661 640 704 589 q 556 719 618 690 q 416 747 494 747 q 277 719 338 747 q 172 640 215 690 q 106 521 129 589 q 83 374 83 453 m 208 359 l 208 374 q 221 476 208 427 q 260 563 234 526 q 325 622 286 600 q 416 644 363 644 q 507 622 468 644 q 572 563 546 600 q 611 476 598 526 q 625 374 625 427 l 625 359 q 612 255 625 304 q 573 169 599 206 q 508 110 547 132 q 417 88 469 88 q 326 110 365 88 q 260 169 286 132 q 221 255 234 206 q 208 359 208 304 m 650 1032 l 580 1053 q 574 1023 580 1037 q 559 999 568 1009 q 537 983 550 989 q 510 977 524 977 q 461 987 484 977 q 418 1009 439 997 q 374 1031 397 1021 q 323 1041 351 1041 q 266 1028 292 1041 q 222 994 241 1015 q 194 944 204 972 q 183 886 183 916 l 254 869 q 274 923 254 901 q 323 945 293 945 q 356 940 341 945 q 385 928 371 935 q 410 912 397 921 q 438 897 423 904 q 470 885 452 890 q 510 880 488 880 q 566 892 541 880 q 610 926 592 905 q 639 974 629 946 q 650 1032 650 1002 z "},"ú":{"ha":833,"x_min":122,"x_max":715,"o":"m 602 0 l 715 0 l 715 734 l 589 734 l 589 208 q 564 164 579 184 q 528 130 549 144 q 471 102 504 112 q 395 92 437 92 q 332 102 359 92 q 286 135 304 111 q 257 197 267 158 q 248 296 248 237 l 248 734 l 122 734 l 122 298 q 140 157 122 216 q 191 60 158 98 q 271 4 224 22 q 376 -14 318 -14 q 503 17 448 -14 q 594 101 557 47 l 602 0 m 482 1005 l 357 825 l 452 825 l 634 1005 l 482 1005 z "},"û":{"ha":833,"x_min":122,"x_max":715,"o":"m 602 0 l 715 0 l 715 734 l 589 734 l 589 208 q 564 164 579 184 q 528 130 549 144 q 471 102 504 112 q 395 92 437 92 q 332 102 359 92 q 286 135 304 111 q 257 197 267 158 q 248 296 248 237 l 248 734 l 122 734 l 122 298 q 140 157 122 216 q 191 60 158 98 q 271 4 224 22 q 376 -14 318 -14 q 503 17 448 -14 q 594 101 557 47 l 602 0 m 622 869 l 454 1032 l 378 1032 l 212 870 l 212 852 l 315 852 l 416 955 l 517 852 l 622 852 l 622 869 z "},"ü":{"ha":833,"x_min":122,"x_max":715,"o":"m 602 0 l 715 0 l 715 734 l 589 734 l 589 208 q 564 164 579 184 q 528 130 549 144 q 471 102 504 112 q 395 92 437 92 q 332 102 359 92 q 286 135 304 111 q 257 197 267 158 q 248 296 248 237 l 248 734 l 122 734 l 122 298 q 140 157 122 216 q 191 60 158 98 q 271 4 224 22 q 376 -14 318 -14 q 503 17 448 -14 q 594 101 557 47 l 602 0 m 195 933 q 213 882 195 903 q 269 862 232 862 q 324 882 305 862 q 343 933 343 903 q 324 984 343 964 q 269 1005 305 1005 q 213 984 232 1005 q 195 933 195 964 m 486 932 q 505 881 486 902 q 560 861 524 861 q 616 881 597 861 q 635 932 635 902 q 616 983 635 962 q 560 1004 597 1004 q 505 983 524 1004 q 486 932 486 962 z "},"ù":{"ha":833,"x_min":122,"x_max":715,"o":"m 602 0 l 715 0 l 715 734 l 589 734 l 589 208 q 564 164 579 184 q 528 130 549 144 q 471 102 504 112 q 395 92 437 92 q 332 102 359 92 q 286 135 304 111 q 257 197 267 158 q 248 296 248 237 l 248 734 l 122 734 l 122 298 q 140 157 122 216 q 191 60 158 98 q 271 4 224 22 q 376 -14 318 -14 q 503 17 448 -14 q 594 101 557 47 l 602 0 m 471 827 l 352 1007 l 201 1007 l 369 827 l 471 827 z "},"ý":{"ha":833,"x_min":46,"x_max":785,"o":"m 177 -296 q 264 -278 227 -296 q 331 -233 302 -260 q 379 -174 359 -205 q 412 -113 399 -142 l 785 734 l 644 734 l 455 258 l 420 172 l 388 260 l 186 734 l 46 734 l 362 35 l 312 -63 q 293 -98 305 -77 q 265 -138 281 -119 q 227 -172 248 -158 q 180 -186 205 -186 q 154 -185 170 -186 q 120 -183 137 -184 l 100 -286 q 136 -292 112 -288 q 177 -296 159 -296 m 496 1005 l 371 825 l 466 825 l 648 1005 l 496 1005 z "},"ÿ":{"ha":833,"x_min":46,"x_max":785,"o":"m 177 -296 q 264 -278 227 -296 q 331 -233 302 -260 q 379 -174 359 -205 q 412 -113 399 -142 l 785 734 l 644 734 l 455 258 l 420 172 l 388 260 l 186 734 l 46 734 l 362 35 l 312 -63 q 293 -98 305 -77 q 265 -138 281 -119 q 227 -172 248 -158 q 180 -186 205 -186 q 154 -185 170 -186 q 120 -183 137 -184 l 100 -286 q 136 -292 112 -288 q 177 -296 159 -296 m 208 933 q 226 882 208 903 q 281 862 245 862 q 337 882 318 862 q 356 933 356 903 q 337 984 356 964 q 281 1005 318 1005 q 226 984 245 1005 q 208 933 208 964 m 499 932 q 518 881 499 902 q 573 861 536 861 q 629 881 610 861 q 648 932 648 902 q 629 983 648 962 q 573 1004 610 1004 q 518 983 536 1004 q 499 932 499 962 z "},"`":{"ha":833,"x_min":281,"x_max":551,"o":"m 551 824 l 433 1004 l 281 1004 l 450 824 l 551 824 z "},"´":{"ha":833,"x_min":278,"x_max":555,"o":"m 403 1004 l 278 824 l 373 824 l 555 1004 l 403 1004 z "},"ˆ":{"ha":833,"x_min":131,"x_max":541,"o":"m 541 866 l 373 1029 l 297 1029 l 131 867 l 131 849 l 234 849 l 335 951 l 437 849 l 541 849 l 541 866 z "},"˜":{"ha":833,"x_min":94,"x_max":560,"o":"m 560 1011 l 490 1031 q 485 1002 490 1016 q 470 978 479 988 q 448 962 460 968 q 420 956 435 956 q 372 966 394 956 q 329 988 350 976 q 284 1010 307 1000 q 233 1020 262 1020 q 177 1007 202 1020 q 133 973 151 994 q 104 923 115 951 q 94 865 94 895 l 164 848 q 184 902 165 880 q 233 924 203 924 q 267 919 252 924 q 295 907 281 914 q 321 891 308 900 q 349 876 334 883 q 380 864 363 869 q 420 859 398 859 q 477 871 451 859 q 521 905 503 884 q 550 953 539 925 q 560 1011 560 981 z "},"¯":{"ha":833,"x_min":174,"x_max":659,"o":"m 659 890 l 659 987 l 174 987 l 174 890 l 659 890 z "},"¨":{"ha":833,"x_min":195,"x_max":635,"o":"m 195 930 q 213 879 195 899 q 269 859 232 859 q 324 879 305 859 q 343 930 343 899 q 324 981 343 960 q 269 1002 305 1002 q 213 981 232 1002 q 195 930 195 960 m 486 928 q 505 878 486 899 q 560 857 524 857 q 616 878 597 857 q 635 928 635 899 q 616 980 635 959 q 560 1001 597 1001 q 505 980 524 1001 q 486 928 486 959 z "},"˚":{"ha":833,"x_min":278,"x_max":554,"o":"m 278 890 q 289 836 278 861 q 319 795 300 812 q 363 768 338 777 q 417 758 389 758 q 470 768 446 758 q 514 795 495 777 q 543 836 532 812 q 554 890 554 861 q 543 944 554 919 q 514 987 532 968 q 470 1015 495 1004 q 417 1025 446 1025 q 363 1015 389 1025 q 319 987 338 1004 q 289 944 300 968 q 278 890 278 919 m 345 890 q 351 921 345 907 q 368 945 357 935 q 390 959 377 954 q 417 964 403 964 q 445 959 432 964 q 467 944 457 954 q 481 920 476 934 q 487 890 487 906 q 481 861 487 874 q 467 839 476 848 q 445 824 457 829 q 417 819 432 819 q 389 824 402 819 q 367 840 376 829 q 351 862 357 849 q 345 890 345 875 z "},"¸":{"ha":833,"x_min":313,"x_max":523,"o":"m 427 0 l 337 0 l 316 -91 q 363 -97 343 -93 q 398 -108 384 -101 q 418 -127 412 -115 q 425 -155 425 -138 q 416 -186 425 -174 q 392 -207 407 -199 q 356 -219 376 -215 q 313 -222 336 -222 l 317 -295 q 393 -288 359 -295 q 452 -267 427 -280 q 505 -220 486 -249 q 523 -153 523 -191 q 514 -103 523 -123 q 491 -68 505 -82 q 457 -47 476 -55 q 419 -35 439 -39 l 427 0 z "},"\r":{"ha":833,"x_min":0,"x_max":0,"o":""},"«":{"ha":833,"x_min":144,"x_max":667,"o":"m 264 349 l 439 620 l 344 620 l 144 356 l 144 343 l 344 80 l 439 80 l 264 349 m 492 349 l 667 620 l 571 620 l 371 356 l 371 343 l 571 80 l 667 80 l 492 349 z "},"µ":{"ha":833,"x_min":127,"x_max":705,"o":"m 253 734 l 127 734 l 127 -282 l 253 -282 l 253 36 q 319 -1 281 12 q 408 -14 358 -14 q 472 -5 443 -14 q 526 18 502 3 q 558 45 543 30 q 586 79 573 60 l 592 0 l 705 0 l 705 734 l 579 734 l 579 192 q 561 157 572 173 q 535 129 550 142 q 479 99 513 109 q 402 88 446 88 q 342 98 370 88 q 295 132 315 107 q 264 201 275 157 q 253 312 253 244 l 253 734 z "},"»":{"ha":833,"x_min":163,"x_max":693,"o":"m 260 644 l 163 644 l 338 373 l 163 103 l 260 103 l 459 367 l 459 380 l 260 644 m 494 644 l 397 644 l 572 373 l 397 103 l 494 103 l 693 367 l 693 380 l 494 644 z "},"ı":{"ha":833,"x_min":138,"x_max":752,"o":"m 138 734 l 138 625 l 387 625 l 387 109 l 138 109 l 138 0 l 752 0 l 752 109 l 513 109 l 513 734 l 138 734 z "},"́":{"ha":833,"x_min":-450,"x_max":-245,"o":"m -362 1057 l -450 822 l -372 822 l -245 1057 l -362 1057 z "},"Ђ":{"ha":833,"x_min":28,"x_max":779,"o":"m 736 884 l 736 987 l 28 987 l 28 884 l 264 884 l 264 0 l 389 0 l 389 466 q 429 469 409 467 q 471 470 450 470 q 546 458 514 470 q 600 425 578 447 q 639 359 627 399 q 652 269 652 319 q 645 195 652 228 q 621 139 637 162 q 577 103 604 116 q 510 91 549 91 l 511 -7 q 622 9 573 -7 q 703 56 670 25 q 760 144 741 91 q 779 269 779 198 q 758 398 779 340 q 699 496 738 456 q 602 558 659 536 q 471 580 545 580 q 430 578 450 580 q 389 576 409 577 l 389 884 l 736 884 z "},"Є":{"ha":833,"x_min":87,"x_max":767,"o":"m 767 298 l 642 298 q 620 207 635 245 q 581 142 606 168 q 518 102 555 115 q 430 89 481 89 q 336 112 376 89 q 269 174 296 134 q 227 269 241 214 q 213 388 213 323 l 213 448 l 600 448 l 600 551 l 213 551 l 213 602 q 227 720 213 665 q 269 814 241 774 q 336 877 296 854 q 430 899 376 899 q 518 885 481 899 q 580 844 555 871 q 620 777 605 817 q 642 686 635 736 l 767 686 q 736 819 760 760 q 669 918 711 878 q 567 980 627 959 q 430 1002 507 1002 q 287 972 351 1002 q 180 890 224 943 q 111 763 135 837 q 87 600 87 689 l 87 388 q 111 225 87 299 q 180 99 135 152 q 287 16 224 45 q 430 -14 351 -14 q 567 9 507 -14 q 669 73 627 32 q 736 172 711 115 q 767 298 760 229 z "},"Љ":{"ha":833,"x_min":20,"x_max":801,"o":"m 507 987 l 124 987 l 122 524 q 121 435 122 477 q 118 356 120 393 q 113 279 116 315 q 104 216 109 244 q 94 171 100 191 q 81 137 88 151 q 60 111 72 120 q 35 102 49 102 l 20 102 l 20 0 l 42 0 q 110 16 80 0 q 163 61 140 31 q 195 117 181 84 q 218 191 208 151 q 232 268 227 227 q 241 355 238 309 q 245 436 244 393 q 247 524 247 478 l 248 884 l 381 884 l 381 0 l 568 0 q 669 23 625 0 q 742 87 713 46 q 786 182 771 127 q 801 300 801 237 q 786 419 801 364 q 742 515 771 474 q 669 578 713 555 q 568 602 625 602 l 507 602 l 507 987 m 507 498 l 568 498 q 618 481 597 498 q 652 437 639 465 q 670 374 665 409 q 676 302 676 338 q 670 229 676 264 q 652 165 665 193 q 619 120 640 137 q 568 102 598 102 l 507 102 l 507 498 z "},"Њ":{"ha":833,"x_min":89,"x_max":789,"o":"m 89 0 l 214 0 l 214 456 l 383 456 l 383 0 l 541 0 q 649 22 603 0 q 727 83 696 44 q 773 174 758 121 q 789 288 789 227 q 773 400 789 349 q 727 490 758 452 q 649 548 696 527 q 541 569 603 569 l 508 569 l 508 987 l 383 987 l 383 559 l 214 559 l 214 987 l 89 987 l 89 0 m 508 466 l 541 466 q 599 451 576 466 q 637 412 623 436 q 657 355 651 387 q 664 289 664 323 q 658 222 664 254 q 637 165 652 190 q 599 124 623 140 q 541 109 576 109 l 508 109 l 508 466 z "},"Ћ":{"ha":833,"x_min":45,"x_max":765,"o":"m 738 884 l 738 987 l 45 987 l 45 884 l 280 884 l 280 0 l 406 0 l 406 475 q 441 478 423 477 q 479 479 460 479 q 550 470 520 479 q 601 441 581 461 q 630 388 621 420 q 640 310 640 356 l 640 0 l 765 0 l 765 310 q 745 433 765 382 q 689 518 726 485 q 599 567 652 551 q 479 583 546 583 q 443 582 461 583 q 406 578 425 581 l 406 884 l 738 884 z "},"Џ":{"ha":833,"x_min":110,"x_max":723,"o":"m 110 987 l 110 0 l 357 0 l 357 -243 l 482 -243 l 482 0 l 723 0 l 723 987 l 597 987 l 597 102 l 235 102 l 235 987 l 110 987 z "},"Б":{"ha":833,"x_min":110,"x_max":746,"o":"m 714 884 l 714 987 l 110 987 l 110 0 l 416 0 q 556 21 495 0 q 660 81 618 43 q 724 174 702 120 q 746 294 746 229 q 724 412 746 359 q 660 503 702 465 q 556 561 618 541 q 416 581 495 581 l 236 581 l 236 884 l 714 884 m 236 479 l 416 479 q 508 464 469 479 q 571 425 546 450 q 608 367 596 400 q 620 295 620 333 q 608 221 620 256 q 571 160 596 186 q 508 118 546 134 q 416 102 469 102 l 236 102 l 236 479 z "},"Д":{"ha":833,"x_min":47,"x_max":776,"o":"m 764 -242 l 776 102 l 690 102 l 690 987 l 250 987 l 228 591 q 223 495 227 540 q 216 412 220 450 q 203 329 210 367 q 187 259 196 290 q 146 161 170 199 q 92 102 123 123 l 47 102 l 66 -243 l 172 -243 l 172 0 l 650 0 l 650 -242 l 764 -242 m 355 591 l 370 884 l 564 884 l 564 102 l 260 102 q 292 174 278 134 q 317 262 307 214 q 335 353 328 304 q 347 456 342 402 q 351 522 349 488 q 355 591 353 555 z "},"Ж":{"ha":833,"x_min":20,"x_max":812,"o":"m 517 441 l 657 0 l 812 0 l 629 494 l 787 987 l 640 987 l 523 545 l 481 545 l 481 987 l 357 987 l 357 545 l 310 545 l 192 987 l 46 987 l 202 493 l 20 0 l 176 0 l 315 441 l 357 441 l 357 0 l 481 0 l 481 441 l 517 441 z "},"З":{"ha":833,"x_min":60,"x_max":770,"o":"m 60 274 q 91 144 60 199 q 170 54 121 90 q 281 2 219 19 q 408 -14 343 -14 q 552 5 486 -14 q 667 61 618 24 q 743 152 715 98 q 770 275 770 205 q 754 369 770 328 q 707 441 738 410 q 657 479 685 463 q 594 507 629 495 q 643 533 621 518 q 684 564 666 547 q 736 635 718 595 q 755 720 755 675 q 730 842 755 789 q 660 930 705 895 q 550 983 614 966 q 408 1001 486 1001 q 280 982 340 1001 q 174 928 220 963 q 101 843 128 893 q 75 729 75 792 l 200 729 q 217 797 200 766 q 261 851 233 828 q 327 886 289 873 q 408 899 365 899 q 505 885 463 899 q 574 848 546 871 q 615 792 602 824 q 629 723 629 760 q 618 658 629 688 q 585 608 607 629 q 556 586 572 595 q 522 570 541 577 q 474 559 500 563 q 417 555 448 555 l 293 555 l 293 452 l 417 452 q 482 447 452 452 q 536 434 512 443 q 582 411 562 425 q 616 377 602 397 q 637 331 630 357 q 644 273 644 305 q 628 198 644 232 q 581 140 612 164 q 506 102 550 115 q 408 88 463 88 q 318 103 359 88 q 248 142 277 117 q 203 201 219 168 q 186 274 186 235 l 60 274 z "},"И":{"ha":833,"x_min":110,"x_max":723,"o":"m 597 987 l 235 260 l 235 987 l 110 987 l 110 0 l 235 0 l 598 728 l 597 0 l 723 0 l 723 987 l 597 987 z "},"Л":{"ha":833,"x_min":32,"x_max":724,"o":"m 724 987 l 189 987 l 186 461 q 185 398 186 428 q 182 340 184 368 q 171 249 178 290 q 152 179 163 208 q 114 122 137 141 q 59 102 91 102 l 32 102 l 32 0 l 66 0 q 137 10 105 0 q 195 40 169 20 q 247 102 224 64 q 283 191 269 140 q 299 273 293 229 q 309 368 305 317 q 311 413 310 390 q 311 461 311 437 l 313 884 l 598 884 l 598 0 l 724 0 l 724 987 z "},"У":{"ha":833,"x_min":29,"x_max":817,"o":"m 70 9 q 123 -6 87 2 q 205 -14 159 -14 q 301 0 261 -14 q 370 39 342 14 q 419 95 399 63 q 454 163 439 127 l 817 987 l 671 987 l 476 507 l 427 385 l 379 515 l 170 987 l 29 987 l 367 251 l 338 193 q 317 155 330 174 q 288 121 305 136 q 246 97 270 106 q 191 88 222 88 q 134 94 165 88 q 86 105 104 100 l 70 9 z "},"Ц":{"ha":833,"x_min":113,"x_max":817,"o":"m 113 987 l 113 0 l 692 0 l 692 -238 l 804 -238 l 817 106 l 717 106 l 717 987 l 591 987 l 591 102 l 238 102 l 238 987 l 113 987 z "},"Ч":{"ha":833,"x_min":116,"x_max":721,"o":"m 721 987 l 595 987 l 595 513 q 498 487 547 497 q 393 477 449 477 q 326 487 354 477 q 279 521 297 497 q 251 582 260 544 q 241 678 241 621 l 241 987 l 116 987 l 116 678 q 135 538 116 596 q 189 444 153 481 q 275 391 224 408 q 393 374 327 374 q 504 384 457 374 q 595 409 550 393 l 595 0 l 721 0 l 721 987 z "},"Ш":{"ha":833,"x_min":85,"x_max":749,"o":"m 210 987 l 85 987 l 85 0 l 749 0 l 749 987 l 624 987 l 624 102 l 479 102 l 479 987 l 355 987 l 355 102 l 210 102 l 210 987 z "},"Щ":{"ha":833,"x_min":85,"x_max":810,"o":"m 210 987 l 85 987 l 85 0 l 686 0 l 686 -238 l 798 -238 l 810 103 l 749 103 l 749 987 l 624 987 l 624 102 l 479 102 l 479 987 l 355 987 l 355 102 l 210 102 l 210 987 z "},"Ъ":{"ha":833,"x_min":34,"x_max":777,"o":"m 34 987 l 34 884 l 241 884 l 241 0 l 464 0 q 597 22 539 0 q 696 83 656 43 q 756 175 735 121 q 777 294 777 229 q 756 412 777 359 q 696 503 735 465 q 597 561 656 540 q 464 581 539 581 l 366 581 l 366 987 l 34 987 m 366 479 l 464 479 q 549 464 513 479 q 607 425 584 450 q 640 366 629 399 q 650 295 650 332 q 640 222 650 257 q 607 161 629 187 q 549 118 584 134 q 464 102 513 102 l 366 102 l 366 479 z "},"Ы":{"ha":833,"x_min":98,"x_max":745,"o":"m 223 581 l 223 987 l 98 987 l 98 0 l 286 0 q 399 22 350 0 q 482 83 448 43 q 532 175 515 121 q 549 294 549 229 q 532 411 549 358 q 482 503 515 465 q 399 561 448 540 q 286 581 350 581 l 223 581 m 745 0 l 745 987 l 620 987 l 620 0 l 745 0 m 223 479 l 286 479 q 349 464 323 479 q 392 424 375 449 q 416 366 408 399 q 423 295 423 332 q 416 222 423 257 q 392 161 408 188 q 349 118 376 134 q 286 102 323 102 l 223 102 l 223 479 z "},"Ь":{"ha":833,"x_min":114,"x_max":749,"o":"m 239 581 l 239 987 l 114 987 l 114 0 l 420 0 q 560 21 498 0 q 663 81 621 43 q 727 174 705 120 q 749 294 749 229 q 727 412 749 359 q 663 503 705 465 q 560 561 621 541 q 420 581 498 581 l 239 581 m 239 479 l 420 479 q 511 464 473 479 q 574 425 549 450 q 611 367 600 400 q 623 295 623 333 q 611 221 623 256 q 574 160 600 186 q 511 118 549 134 q 420 102 473 102 l 239 102 l 239 479 z "},"Э":{"ha":833,"x_min":77,"x_max":751,"o":"m 203 315 l 77 315 q 101 180 78 241 q 166 77 123 119 q 268 10 208 33 q 402 -14 328 -14 q 546 15 481 -14 q 656 96 610 43 q 726 220 701 147 q 751 381 751 292 l 751 606 q 726 768 751 695 q 656 893 701 841 q 546 973 610 945 q 402 1002 481 1002 q 268 976 328 1002 q 166 905 208 950 q 101 800 123 861 q 77 671 78 740 l 203 671 q 217 765 203 723 q 255 838 230 808 q 317 883 280 867 q 402 899 354 899 q 497 878 456 899 q 567 817 538 856 q 610 725 595 779 q 625 607 625 671 l 625 544 l 297 544 l 297 441 l 625 441 l 625 380 q 610 263 625 317 q 566 171 595 210 q 496 111 538 132 q 402 89 455 89 q 317 105 354 89 q 255 151 280 121 q 217 222 230 180 q 203 315 203 264 z "},"Ю":{"ha":833,"x_min":81,"x_max":766,"o":"m 766 349 l 766 637 q 751 791 766 724 q 704 905 735 859 q 626 977 673 952 q 518 1001 580 1001 q 416 977 460 1001 q 342 905 372 952 q 298 791 313 859 q 283 637 283 724 l 283 534 l 206 534 l 206 987 l 81 987 l 81 0 l 206 0 l 206 432 l 283 432 l 283 349 q 298 196 283 263 q 343 82 313 128 q 416 11 372 35 q 519 -14 460 -14 q 626 11 580 -14 q 704 82 673 35 q 751 196 735 128 q 766 349 766 263 m 641 639 l 641 349 q 634 237 641 285 q 614 157 628 189 q 576 109 600 125 q 519 93 553 93 q 467 109 488 93 q 433 157 446 125 q 414 237 420 189 q 409 349 409 285 l 409 639 q 414 750 409 703 q 433 830 420 798 q 467 878 446 862 q 518 894 488 894 q 569 882 547 894 q 605 847 591 870 q 632 764 624 816 q 641 639 641 711 z "},"Я":{"ha":833,"x_min":44,"x_max":720,"o":"m 595 0 l 720 0 l 720 987 l 426 987 q 282 968 347 987 q 174 913 218 949 q 104 824 128 877 q 80 703 80 770 q 97 602 80 647 q 149 523 115 557 q 204 480 172 499 q 275 446 236 460 l 44 0 l 178 0 l 385 412 l 595 412 l 595 0 m 205 704 q 220 779 205 745 q 262 836 234 812 q 331 872 290 859 q 426 884 372 884 l 595 884 l 595 515 l 422 515 q 328 530 369 515 q 260 570 288 544 q 219 629 233 595 q 205 704 205 664 z "},"б":{"ha":833,"x_min":87,"x_max":743,"o":"m 438 692 q 366 683 400 692 q 300 660 331 675 q 243 623 270 644 q 195 576 217 602 q 228 683 205 639 q 283 758 250 728 q 357 807 315 789 q 446 835 398 825 q 550 859 513 849 q 617 890 587 869 q 671 951 652 913 q 690 1053 690 990 l 587 1053 q 574 1007 587 1025 q 539 978 562 989 q 485 958 516 966 q 418 943 454 950 q 282 890 343 929 q 178 786 220 851 q 140 716 157 754 q 113 634 124 678 q 94 531 100 587 q 87 411 87 475 l 87 344 q 110 202 87 267 q 174 89 132 137 q 277 14 216 41 q 416 -14 338 -14 q 554 14 493 -14 q 656 89 614 41 q 721 202 699 137 q 743 344 743 267 l 743 359 q 722 491 743 431 q 662 597 701 552 q 566 666 623 641 q 438 692 510 692 m 414 589 q 504 570 466 589 q 568 520 543 551 q 605 447 593 488 q 617 359 617 406 l 617 344 q 605 246 617 292 q 568 165 593 199 q 505 109 543 130 q 416 88 467 88 q 325 109 363 88 q 262 165 287 130 q 225 246 237 199 q 213 344 213 292 l 213 359 q 225 447 213 406 q 262 520 237 488 q 325 570 287 551 q 414 589 363 589 z "},"в":{"ha":833,"x_min":111,"x_max":727,"o":"m 111 0 l 446 0 q 563 13 511 0 q 651 52 614 26 q 707 117 688 78 q 727 208 727 156 q 718 265 727 238 q 690 315 708 292 q 646 352 671 336 q 587 377 621 368 l 581 378 q 620 397 602 387 q 651 420 637 407 q 688 470 675 441 q 701 532 701 499 q 679 623 701 585 q 618 685 658 661 q 523 722 578 709 q 399 734 467 734 l 111 734 l 111 0 m 237 322 l 446 322 q 513 315 484 322 q 562 293 543 307 q 591 259 581 279 q 601 212 601 239 q 592 166 601 186 q 566 133 583 146 q 516 109 547 117 q 446 101 486 101 l 237 101 l 237 322 m 237 422 l 237 632 l 399 632 q 474 626 441 632 q 528 607 507 620 q 563 574 551 594 q 575 526 575 553 q 568 488 575 505 q 547 459 560 471 q 488 431 525 440 q 401 422 452 422 l 237 422 z "},"г":{"ha":833,"x_min":124,"x_max":723,"o":"m 723 630 l 723 734 l 124 734 l 124 0 l 250 0 l 250 630 l 723 630 z "},"д":{"ha":833,"x_min":37,"x_max":799,"o":"m 106 102 l 37 102 l 49 -216 l 161 -216 l 161 0 l 673 0 l 673 -216 l 787 -216 l 799 102 l 705 102 l 705 734 l 232 734 l 221 458 q 209 316 216 380 q 188 206 201 252 q 155 133 175 160 q 106 102 135 106 m 347 458 l 353 618 l 579 618 l 579 102 l 279 102 q 307 170 296 132 q 326 254 318 208 q 338 350 333 298 q 347 458 343 401 z "},"ж":{"ha":833,"x_min":12,"x_max":811,"o":"m 513 319 l 659 0 l 811 0 l 609 382 l 788 734 l 643 734 l 514 430 l 474 430 l 474 734 l 349 734 l 349 430 l 309 430 l 180 734 l 35 734 l 213 382 l 12 0 l 163 0 l 309 319 l 349 319 l 349 0 l 474 0 l 474 319 l 513 319 z "},"з":{"ha":833,"x_min":92,"x_max":745,"o":"m 92 217 q 117 120 92 162 q 182 52 142 79 q 294 3 230 18 q 424 -13 357 -13 q 550 1 492 -13 q 652 44 608 16 q 720 113 695 72 q 745 206 745 153 q 733 270 745 241 q 699 321 721 299 q 654 354 680 340 q 597 377 629 368 q 639 397 619 386 q 673 421 659 408 q 715 473 701 444 q 730 534 730 501 q 708 626 730 587 q 645 693 686 666 q 548 733 604 720 q 424 747 492 747 q 301 732 359 747 q 200 689 243 717 q 130 620 156 661 q 103 529 104 580 l 229 529 q 244 575 229 554 q 288 612 260 597 q 349 636 314 627 q 424 645 385 645 q 502 636 468 645 q 559 612 536 627 q 593 576 581 597 q 605 533 605 556 q 596 492 605 510 q 570 460 587 473 q 542 445 558 452 q 507 434 526 438 q 472 429 491 431 q 431 427 453 427 l 268 427 l 268 321 l 431 321 q 472 320 452 321 q 509 315 492 319 q 541 307 526 312 q 568 296 555 302 q 605 259 592 281 q 618 206 618 237 q 604 159 618 181 q 565 121 590 138 q 503 96 539 105 q 424 87 467 87 q 342 97 380 87 q 276 126 304 108 q 233 167 248 144 q 217 217 217 191 l 92 217 z "},"и":{"ha":833,"x_min":112,"x_max":721,"o":"m 595 734 l 237 192 l 237 734 l 112 734 l 112 0 l 237 0 l 595 541 l 595 0 l 721 0 l 721 734 l 595 734 z "},"к":{"ha":833,"x_min":111,"x_max":795,"o":"m 356 313 l 636 0 l 795 0 l 456 380 l 771 734 l 618 734 l 345 423 l 237 423 l 237 734 l 111 734 l 111 0 l 237 0 l 237 313 l 356 313 z "},"л":{"ha":833,"x_min":37,"x_max":720,"o":"m 720 734 l 199 734 l 197 420 q 196 356 197 386 q 193 299 195 326 q 184 238 190 266 q 172 190 179 211 q 131 132 157 151 q 67 113 106 113 l 39 112 l 37 0 l 74 0 q 194 28 146 0 q 271 110 242 56 q 300 186 288 143 q 317 281 311 230 q 322 348 320 313 q 323 420 323 382 l 324 630 l 594 630 l 594 0 l 720 0 l 720 734 z "},"м":{"ha":833,"x_min":93,"x_max":722,"o":"m 410 166 l 255 734 l 93 734 l 93 0 l 218 0 l 218 469 l 366 0 l 453 0 l 597 452 l 597 0 l 722 0 l 722 734 l 566 734 l 410 166 z "},"н":{"ha":833,"x_min":112,"x_max":721,"o":"m 721 0 l 721 734 l 595 734 l 595 416 l 237 416 l 237 734 l 112 734 l 112 0 l 237 0 l 237 313 l 595 313 l 595 0 l 721 0 z "},"п":{"ha":833,"x_min":112,"x_max":721,"o":"m 721 0 l 721 734 l 112 734 l 112 0 l 237 0 l 237 630 l 595 630 l 595 0 l 721 0 z "},"т":{"ha":833,"x_min":71,"x_max":778,"o":"m 778 632 l 778 734 l 71 734 l 71 632 l 359 632 l 359 0 l 485 0 l 485 632 l 778 632 z "},"ф":{"ha":833,"x_min":83,"x_max":750,"o":"m 83 374 l 83 359 q 101 226 83 288 q 155 116 119 164 q 239 36 189 68 q 353 -7 290 3 l 353 -282 l 478 -282 l 478 -8 q 592 34 542 2 q 678 115 643 66 q 731 225 713 163 q 750 359 750 288 l 750 374 q 732 507 750 444 q 678 618 713 569 q 592 699 643 666 q 478 742 542 731 l 478 1042 l 353 1042 l 353 742 q 239 698 290 730 q 155 618 189 666 q 101 507 119 569 q 83 374 83 444 m 208 359 l 208 374 q 217 460 208 418 q 245 536 227 502 q 290 596 262 571 q 353 634 317 622 l 353 98 q 289 136 316 111 q 244 195 262 161 q 217 272 226 230 q 208 359 208 313 m 625 374 l 625 359 q 615 271 625 313 q 588 194 606 229 q 542 134 570 159 q 478 97 515 109 l 478 634 q 542 597 515 622 q 588 537 570 572 q 615 460 606 503 q 625 374 625 418 z "},"ц":{"ha":833,"x_min":115,"x_max":792,"o":"m 115 734 l 115 0 l 667 0 l 667 -218 l 780 -218 l 792 102 l 705 102 l 705 734 l 578 734 l 578 102 l 241 102 l 241 734 l 115 734 z "},"ч":{"ha":833,"x_min":96,"x_max":721,"o":"m 721 0 l 721 734 l 595 734 l 595 371 q 554 362 575 366 q 513 355 534 358 q 454 349 484 351 q 393 347 425 347 q 315 359 349 347 q 260 395 281 370 q 231 447 241 416 q 221 520 221 478 l 221 734 l 96 734 l 96 520 q 117 398 96 450 q 177 313 138 347 q 271 261 216 278 q 393 244 326 244 q 500 250 451 244 q 595 268 549 256 l 595 0 l 721 0 z "},"ш":{"ha":833,"x_min":87,"x_max":746,"o":"m 213 734 l 87 734 l 87 0 l 746 0 l 746 734 l 621 734 l 621 102 l 479 102 l 479 734 l 354 734 l 354 102 l 213 102 l 213 734 z "},"щ":{"ha":833,"x_min":80,"x_max":798,"o":"m 205 734 l 80 734 l 80 0 l 673 0 l 673 -218 l 785 -218 l 798 103 l 739 103 l 739 734 l 613 734 l 613 103 l 472 102 l 472 734 l 347 734 l 347 102 l 205 102 l 205 734 z "},"ъ":{"ha":833,"x_min":39,"x_max":775,"o":"m 242 0 l 503 0 q 619 18 568 0 q 705 67 670 36 q 757 140 739 98 q 775 231 775 182 q 757 321 775 279 q 705 392 739 362 q 619 439 670 422 q 503 456 568 456 l 368 456 l 368 734 l 39 734 l 39 631 l 242 631 l 242 0 m 368 353 l 503 353 q 570 342 542 353 q 615 313 597 330 q 641 272 633 294 q 649 226 649 249 q 641 180 649 202 q 615 140 633 157 q 570 113 597 123 q 503 102 543 102 l 368 102 l 368 353 z "},"ы":{"ha":833,"x_min":98,"x_max":737,"o":"m 223 456 l 223 734 l 98 734 l 98 0 l 290 0 q 395 18 350 0 q 472 67 441 36 q 518 140 503 98 q 534 231 534 182 q 518 320 534 279 q 472 392 503 361 q 395 439 441 422 q 290 456 349 456 l 223 456 m 737 0 l 737 734 l 612 734 l 612 0 l 737 0 m 223 353 l 290 353 q 345 342 322 353 q 381 312 367 330 q 401 271 395 294 q 408 226 408 248 q 401 180 408 202 q 381 141 395 158 q 345 113 367 123 q 290 102 322 102 l 223 102 l 223 353 z "},"ь":{"ha":833,"x_min":112,"x_max":738,"o":"m 237 456 l 237 734 l 112 734 l 112 0 l 462 0 q 579 18 528 0 q 666 66 631 35 q 720 139 701 97 q 738 231 738 182 q 719 321 738 280 q 665 393 701 363 q 579 439 630 422 q 462 456 528 456 l 237 456 m 237 353 l 462 353 q 529 342 501 353 q 576 313 557 331 q 603 272 594 295 q 612 226 612 250 q 603 179 612 201 q 576 140 595 157 q 530 113 558 123 q 462 102 501 102 l 237 102 l 237 353 z "},"э":{"ha":833,"x_min":87,"x_max":734,"o":"m 388 644 q 482 626 443 644 q 547 577 522 608 q 587 507 573 547 q 606 425 602 468 l 316 425 l 316 322 l 607 322 q 590 236 604 278 q 551 161 577 194 q 485 108 525 128 q 388 88 445 88 q 317 101 350 88 q 260 136 284 114 q 221 188 235 158 q 207 252 207 218 l 87 252 q 110 147 87 195 q 173 63 133 98 q 268 7 213 27 q 388 -14 323 -14 q 539 16 474 -14 q 647 96 604 45 q 712 213 690 146 q 734 353 734 279 l 734 381 q 712 521 734 454 q 648 637 690 587 q 539 718 604 688 q 388 747 474 747 q 275 727 330 747 q 180 673 221 707 q 113 595 138 640 q 87 500 87 550 l 207 500 q 222 558 207 532 q 264 604 238 584 q 321 633 289 623 q 388 644 354 644 z "},"ю":{"ha":833,"x_min":77,"x_max":782,"o":"m 202 422 l 202 734 l 77 734 l 77 0 l 202 0 l 202 319 l 290 319 q 310 188 294 249 q 357 82 327 127 q 432 12 388 37 q 536 -14 477 -14 q 645 16 599 -14 q 722 95 692 45 q 767 213 752 145 q 782 359 782 281 l 782 374 q 767 519 782 451 q 722 638 752 587 q 644 718 691 689 q 534 747 597 747 q 433 723 477 747 q 359 654 390 698 q 312 551 329 610 q 290 422 295 492 l 202 422 m 415 359 l 415 374 q 420 475 415 427 q 439 562 426 524 q 476 622 453 600 q 534 644 499 644 q 594 622 570 644 q 631 562 617 600 q 651 475 645 524 q 656 374 656 427 l 656 359 q 651 257 656 306 q 631 170 645 208 q 594 111 618 133 q 536 88 571 88 q 477 111 500 88 q 440 170 454 133 q 420 257 426 208 q 415 359 415 306 z "},"я":{"ha":833,"x_min":54,"x_max":717,"o":"m 717 734 l 372 734 q 255 717 307 734 q 167 671 203 700 q 112 600 131 641 q 92 510 92 559 q 130 384 92 438 q 239 304 168 330 l 54 0 l 189 0 l 363 286 l 591 286 l 591 0 l 717 0 l 717 734 m 218 509 q 228 554 218 532 q 256 594 237 576 q 304 622 275 611 q 372 632 334 632 l 591 632 l 591 389 l 357 389 q 295 399 321 389 q 252 426 269 409 q 227 464 235 442 q 218 509 218 486 z "},"ђ":{"ha":833,"x_min":-16,"x_max":720,"o":"m 416 820 l 416 922 l 238 922 l 238 1042 l 113 1042 l 113 922 l -16 922 l -16 820 l 113 820 l 113 0 l 238 0 l 238 533 q 275 578 254 558 q 320 613 296 599 q 371 633 344 626 q 427 641 398 641 q 500 630 469 642 q 553 595 532 618 q 583 540 573 573 q 593 463 593 507 l 593 -60 q 586 -121 593 -95 q 564 -165 578 -148 q 536 -186 553 -179 q 500 -193 520 -193 q 467 -191 490 -193 q 432 -184 445 -189 l 422 -285 q 460 -294 442 -292 q 500 -296 479 -296 q 593 -281 552 -296 q 661 -237 633 -267 q 705 -163 690 -208 q 720 -60 720 -118 l 719 462 q 701 590 719 536 q 650 679 683 644 q 569 731 616 714 q 465 747 522 747 q 389 736 425 747 q 323 708 353 726 q 277 671 298 692 q 238 625 256 650 l 238 820 l 416 820 z "},"є":{"ha":833,"x_min":97,"x_max":729,"o":"m 431 88 q 340 107 378 88 q 278 158 302 126 q 241 230 254 189 q 224 315 228 271 l 503 315 l 503 418 l 224 418 q 241 502 228 460 q 279 574 254 543 q 340 625 303 606 q 431 644 378 644 q 502 631 469 644 q 558 596 534 618 q 596 544 582 574 q 610 481 610 515 l 729 481 q 707 586 729 537 q 645 671 684 635 q 550 727 605 706 q 431 747 496 747 q 285 718 347 747 q 181 637 222 688 q 118 520 139 587 q 97 381 97 454 l 97 353 q 118 213 97 279 q 181 97 139 147 q 285 16 222 46 q 431 -14 347 -14 q 543 6 489 -14 q 637 60 596 26 q 704 138 679 94 q 729 231 728 182 l 610 231 q 594 175 610 201 q 554 130 579 149 q 497 99 529 110 q 431 88 465 88 z "},"љ":{"ha":833,"x_min":26,"x_max":814,"o":"m 526 734 l 144 734 l 144 420 q 143 387 144 403 q 143 355 143 370 q 137 260 142 302 q 124 187 132 218 q 95 126 113 147 q 49 106 77 106 l 28 105 l 26 0 l 56 0 q 158 28 117 0 q 224 111 199 57 q 254 215 243 155 q 268 350 265 275 q 269 384 269 366 q 269 420 269 401 l 269 630 l 401 630 l 401 0 l 571 0 q 675 18 630 0 q 751 67 721 36 q 798 139 782 98 q 814 229 814 181 q 798 319 814 278 q 751 391 782 360 q 675 437 721 420 q 571 454 630 454 l 526 454 l 526 734 m 687 231 q 681 184 687 208 q 661 143 675 161 q 625 113 647 125 q 571 101 603 101 l 526 101 l 526 351 l 571 351 q 625 341 603 351 q 661 313 647 330 q 681 275 675 296 q 687 231 687 253 z "},"њ":{"ha":833,"x_min":88,"x_max":793,"o":"m 214 456 l 214 734 l 88 734 l 88 0 l 214 0 l 214 354 l 382 354 l 382 0 l 564 0 q 663 18 620 0 q 735 67 706 36 q 779 139 764 98 q 793 229 793 181 q 779 318 793 277 q 735 390 764 359 q 663 437 706 420 q 564 454 620 454 l 508 454 l 508 734 l 382 734 l 382 456 l 214 456 m 508 351 l 564 351 q 612 341 593 351 q 644 313 632 330 q 662 275 656 296 q 667 231 667 253 q 662 184 667 208 q 644 143 656 161 q 612 113 632 125 q 564 101 593 101 l 508 101 l 508 351 z "},"ћ":{"ha":833,"x_min":19,"x_max":724,"o":"m 451 823 l 451 926 l 243 926 l 243 1042 l 117 1042 l 117 926 l 19 926 l 19 823 l 117 823 l 117 0 l 243 0 l 243 533 q 281 581 259 559 q 330 616 304 602 q 378 634 353 628 q 432 641 404 641 q 503 631 472 642 q 555 597 534 620 q 587 542 576 576 q 598 463 598 508 l 598 0 l 724 0 l 724 462 q 706 590 724 536 q 654 679 688 644 q 574 731 621 714 q 469 747 527 747 q 392 736 429 747 q 324 705 355 726 q 280 670 300 690 q 243 625 260 650 l 243 823 l 451 823 z "},"џ":{"ha":833,"x_min":112,"x_max":721,"o":"m 237 734 l 112 734 l 112 0 l 355 0 l 355 -241 l 481 -241 l 481 0 l 721 0 l 721 734 l 595 734 l 595 102 l 237 102 l 237 734 z "},"Ѡ":{"ha":833,"x_min":73,"x_max":781,"o":"m 780 987 l 655 987 l 654 216 q 649 160 654 184 q 633 119 644 135 q 610 96 623 104 q 580 88 597 88 q 549 94 563 88 q 524 111 534 100 q 500 154 508 127 q 492 216 492 180 l 492 987 l 362 987 l 361 216 q 353 154 361 180 q 329 111 345 127 q 304 94 319 100 q 274 88 290 88 q 245 95 258 88 q 223 115 232 102 q 205 157 211 132 q 199 216 199 182 l 198 987 l 73 987 l 73 216 q 87 117 73 160 q 128 45 102 75 q 192 1 155 16 q 274 -14 229 -14 q 328 -6 302 -14 q 374 17 353 2 q 404 47 390 30 q 427 86 417 64 q 446 52 435 67 q 470 24 456 37 q 519 -4 492 5 q 580 -14 547 -14 q 662 1 625 -14 q 725 45 699 16 q 766 117 751 75 q 781 216 781 160 l 780 987 z "},"ѡ":{"ha":833,"x_min":64,"x_max":777,"o":"m 777 734 l 652 734 l 652 214 q 647 162 652 185 q 632 123 642 138 q 608 97 622 106 q 575 88 593 88 q 543 94 557 88 q 518 112 529 100 q 494 154 503 127 q 486 214 486 180 l 486 734 l 356 734 l 356 214 q 349 157 356 182 q 328 116 341 132 q 301 95 317 102 q 267 88 286 88 q 237 96 250 88 q 214 117 223 103 q 196 158 202 134 q 191 214 191 182 l 191 734 l 65 734 l 64 214 q 79 116 64 159 q 121 45 94 73 q 184 1 147 16 q 267 -14 222 -14 q 319 -7 295 -14 q 363 13 343 -1 q 395 44 380 26 q 420 85 410 62 q 441 50 429 66 q 468 22 454 33 q 516 -5 489 3 q 575 -14 543 -14 q 657 1 620 -14 q 722 45 694 16 q 763 116 748 73 q 777 214 777 159 l 777 734 z "},"ѣ":{"ha":833,"x_min":19,"x_max":735,"o":"m 493 730 l 493 833 l 275 833 l 275 1058 l 149 1058 l 149 833 l 19 833 l 19 730 l 149 730 l 149 0 l 461 0 q 578 18 527 0 q 664 66 629 35 q 717 140 699 98 q 735 231 735 182 q 717 321 735 279 q 664 393 699 362 q 578 439 629 422 q 461 456 527 456 l 275 456 l 275 730 l 493 730 m 275 353 l 461 353 q 528 342 500 353 q 574 313 556 331 q 601 272 592 295 q 609 226 609 249 q 601 179 609 201 q 574 140 592 157 q 528 113 556 123 q 461 102 500 102 l 275 102 l 275 353 z "},"Ѥ":{"ha":833,"x_min":85,"x_max":795,"o":"m 210 564 l 210 987 l 85 987 l 85 0 l 210 0 l 210 462 l 311 462 l 311 357 q 316 271 311 311 q 330 195 321 230 q 356 121 340 155 q 394 63 372 88 q 468 7 425 27 q 562 -13 510 -13 q 628 -4 597 -13 q 683 23 659 5 q 736 78 714 44 q 774 155 759 113 q 787 209 782 180 q 795 267 792 237 l 682 267 q 676 227 680 245 q 669 191 673 208 q 651 143 663 163 q 625 110 640 123 q 597 94 613 100 q 562 89 581 89 q 518 100 538 89 q 486 129 499 111 q 462 173 472 148 q 447 231 452 199 q 439 289 441 257 q 437 357 437 321 l 437 462 l 628 462 l 628 564 l 437 564 l 437 633 q 439 699 437 668 q 446 756 441 730 q 464 820 453 792 q 491 867 475 847 q 522 891 505 882 q 562 899 540 899 q 604 891 585 899 q 635 867 622 883 q 654 837 646 854 q 669 798 663 820 q 676 760 673 781 q 682 717 680 740 l 795 717 q 773 835 790 782 q 728 925 757 888 q 658 982 699 962 q 562 1002 616 1002 q 485 989 520 1002 q 420 952 449 977 q 365 884 389 926 q 328 787 341 842 q 316 714 320 753 q 311 631 311 675 l 311 564 l 210 564 z "},"ѥ":{"ha":833,"x_min":105,"x_max":787,"o":"m 656 315 l 656 417 l 453 417 q 456 467 454 442 q 463 515 458 492 q 482 573 470 547 q 511 617 494 600 q 539 637 524 630 q 574 644 555 644 q 614 633 597 644 q 644 603 631 622 q 662 559 656 584 q 669 507 669 534 l 787 507 q 772 601 787 557 q 729 677 757 644 q 662 728 701 709 q 574 747 623 747 q 499 735 534 747 q 438 701 465 723 q 382 634 405 673 q 345 546 359 595 q 333 484 337 517 q 328 417 328 452 l 231 417 l 231 734 l 105 734 l 105 0 l 231 0 l 231 315 l 328 315 l 328 313 q 333 249 328 280 q 345 189 337 218 q 387 91 359 135 q 454 21 415 47 q 509 -5 479 4 q 574 -14 539 -14 q 657 4 618 -14 q 725 53 696 22 q 770 123 753 83 q 787 206 787 163 l 669 206 q 661 160 668 182 q 642 123 654 139 q 612 97 629 106 q 574 88 595 88 q 541 94 556 88 q 513 112 526 100 q 484 157 496 130 q 463 219 471 185 q 456 265 459 241 q 453 313 454 289 l 453 315 l 656 315 z "},"Ѧ":{"ha":833,"x_min":26,"x_max":815,"o":"m 589 298 l 687 0 l 815 0 l 478 987 l 370 987 l 26 0 l 155 0 l 254 298 l 355 298 l 355 0 l 480 0 l 480 298 l 589 298 m 290 408 l 416 785 l 423 806 l 430 784 l 553 408 l 290 408 z "},"ѧ":{"ha":833,"x_min":59,"x_max":782,"o":"m 571 201 l 653 0 l 782 0 l 473 734 l 366 734 l 59 0 l 187 0 l 267 201 l 359 201 l 359 0 l 484 0 l 484 201 l 571 201 m 309 304 l 401 537 l 418 593 l 435 537 l 529 304 l 309 304 z "},"Ѩ":{"ha":833,"x_min":77,"x_max":822,"o":"m 630 317 l 694 0 l 822 0 l 593 987 l 485 987 l 344 427 l 202 427 l 202 987 l 77 987 l 77 0 l 202 0 l 202 317 l 316 317 l 237 0 l 365 0 l 435 317 l 482 317 l 482 0 l 583 0 l 583 317 l 630 317 m 459 427 l 532 752 l 537 777 l 542 752 l 608 427 l 459 427 z "},"ѩ":{"ha":833,"x_min":76,"x_max":823,"o":"m 637 199 l 694 0 l 823 0 l 593 734 l 485 734 l 340 308 l 201 308 l 201 734 l 76 734 l 76 0 l 201 0 l 201 199 l 304 199 l 237 0 l 365 0 l 428 199 l 481 199 l 481 0 l 588 0 l 588 199 l 637 199 m 463 308 l 532 526 l 537 544 l 543 526 l 606 308 l 463 308 z "},"Ѫ":{"ha":833,"x_min":58,"x_max":785,"o":"m 58 0 l 184 0 l 184 290 q 191 359 184 331 q 213 404 198 387 q 250 428 227 420 q 304 435 273 435 l 360 435 l 360 0 l 486 0 l 486 435 l 538 435 q 592 428 569 435 q 629 404 614 420 q 652 359 644 387 q 659 290 659 331 l 659 0 l 785 0 l 785 290 q 768 403 785 356 q 721 480 752 450 q 644 524 689 510 q 540 538 598 538 l 539 538 l 749 987 l 77 987 l 306 538 l 304 538 q 200 525 245 538 q 123 481 154 511 q 74 403 91 450 q 58 290 58 356 l 58 0 m 562 884 l 425 565 l 423 563 l 422 565 l 270 884 l 562 884 z "},"ѫ":{"ha":833,"x_min":71,"x_max":755,"o":"m 71 0 l 197 0 l 197 149 q 203 224 197 194 q 224 273 210 254 q 258 299 237 291 q 307 307 279 307 l 349 307 l 352 300 l 352 0 l 478 0 l 478 300 l 484 307 l 518 307 q 567 299 547 307 q 602 273 588 291 q 622 224 615 254 q 629 149 629 194 l 629 0 l 755 0 l 755 149 q 741 262 755 214 q 699 341 726 309 q 633 389 672 372 q 547 408 595 405 l 545 408 l 737 734 l 97 734 l 289 409 l 287 409 q 197 391 237 407 q 129 344 157 375 q 86 264 100 313 q 71 149 71 216 l 71 0 m 539 631 l 421 414 l 418 410 l 415 410 l 412 414 l 294 631 l 539 631 z "},"Ѭ":{"ha":833,"x_min":54,"x_max":786,"o":"m 262 0 l 366 0 l 366 339 q 370 380 366 363 q 381 408 374 397 q 404 427 390 421 q 438 434 418 433 l 473 434 l 473 0 l 577 0 l 577 434 l 606 434 q 638 430 625 434 q 662 415 652 425 q 677 385 672 404 q 682 339 682 366 l 682 0 l 786 0 l 786 339 q 775 428 786 391 q 741 488 764 465 q 682 526 715 514 q 618 537 649 537 l 618 537 l 777 987 l 272 987 l 431 537 l 170 537 l 170 987 l 54 987 l 54 0 l 170 0 l 170 434 l 275 434 q 270 415 272 425 q 266 394 267 405 q 263 368 264 382 q 262 339 262 354 l 262 0 m 612 884 l 526 610 l 525 606 l 524 610 l 437 884 l 612 884 z "},"ѭ":{"ha":833,"x_min":55,"x_max":785,"o":"m 55 0 l 171 0 l 171 300 l 277 300 q 271 282 274 292 q 267 262 269 272 q 263 235 264 249 q 262 205 262 221 l 263 0 l 367 0 l 367 205 q 371 247 367 229 q 383 275 375 264 q 407 294 393 288 q 442 300 422 300 l 468 300 l 473 297 l 473 0 l 578 0 l 578 298 l 583 300 l 602 300 q 639 295 624 300 q 663 279 654 290 q 676 250 672 268 q 681 205 681 231 l 682 0 l 785 0 l 785 205 q 774 294 785 257 q 740 355 762 332 q 695 387 722 376 q 636 401 669 398 l 634 401 l 777 734 l 279 734 l 422 404 l 171 404 l 171 734 l 55 734 l 55 0 m 612 637 l 529 422 l 528 420 l 528 422 l 444 637 l 612 637 z "},"Ѯ":{"ha":833,"x_min":137,"x_max":719,"o":"m 366 558 l 271 558 l 271 456 l 366 456 q 462 445 420 456 q 533 411 504 433 q 577 354 562 389 q 593 273 593 319 q 588 227 593 249 q 572 186 583 205 q 550 154 563 169 q 520 127 536 139 q 463 99 495 109 q 393 90 431 90 l 362 90 q 270 79 311 90 q 199 48 229 69 q 153 -5 170 27 q 137 -83 137 -38 q 154 -158 138 -124 q 195 -219 170 -192 q 252 -266 220 -246 q 315 -300 283 -286 l 366 -216 q 331 -198 350 -209 q 296 -173 313 -188 q 268 -137 279 -158 q 256 -90 256 -117 q 261 -60 256 -73 q 277 -36 267 -46 q 310 -19 290 -25 q 357 -13 330 -13 l 393 -13 q 504 1 452 -13 q 596 40 555 14 q 637 73 618 54 q 671 112 656 91 q 707 186 694 145 q 719 275 719 227 q 703 368 719 327 q 656 440 686 410 q 603 480 633 463 q 536 509 572 497 q 606 545 574 524 q 659 594 637 567 q 692 653 680 621 q 704 721 704 685 q 693 799 704 763 q 661 865 682 836 q 611 917 640 894 q 547 956 583 941 q 468 979 511 971 q 380 987 426 987 l 172 987 l 172 884 l 380 884 q 466 872 429 884 q 528 838 503 860 q 565 787 553 817 q 578 724 578 758 q 573 680 578 700 q 559 642 568 659 q 525 602 547 619 q 473 574 503 585 q 425 563 452 567 q 366 558 398 559 m 388 1191 l 286 1294 l 179 1294 l 179 1280 l 349 1114 l 427 1114 l 599 1282 l 599 1294 l 490 1294 l 388 1191 z "},"ѯ":{"ha":833,"x_min":151,"x_max":701,"o":"m 377 418 l 281 418 l 281 316 l 377 316 q 430 313 405 316 q 475 306 454 311 q 518 291 500 300 q 549 269 537 282 q 569 240 562 256 q 575 203 575 223 q 571 176 575 189 q 559 151 567 163 q 525 119 546 133 q 477 98 504 106 q 442 92 460 94 q 404 90 424 90 l 376 90 q 284 79 326 90 q 213 48 242 69 q 167 -5 183 27 q 151 -83 151 -38 q 168 -158 151 -124 q 210 -219 184 -192 q 266 -266 235 -246 q 329 -300 298 -286 l 380 -216 q 346 -198 364 -209 q 310 -173 327 -188 q 282 -137 293 -158 q 271 -90 271 -117 q 275 -60 271 -73 q 291 -37 280 -47 q 323 -19 303 -25 q 372 -13 343 -13 l 404 -13 q 468 -9 437 -13 q 526 3 498 -5 q 610 41 572 16 q 669 98 647 65 q 692 148 684 121 q 701 206 701 175 q 689 267 701 239 q 654 315 677 294 q 610 347 636 333 q 553 370 585 360 q 602 393 580 380 q 640 422 623 406 q 674 469 662 443 q 686 524 686 495 q 676 584 686 556 q 649 633 667 611 q 589 686 626 663 q 503 721 551 709 q 448 730 477 727 q 391 734 420 734 l 187 734 l 187 630 l 391 630 q 436 627 414 630 q 475 619 457 625 q 522 597 503 610 q 550 565 541 583 q 557 547 555 557 q 559 527 559 537 q 549 481 559 502 q 516 448 538 461 q 493 436 506 441 q 464 427 479 431 q 424 420 446 422 q 377 418 402 418 m 393 959 l 291 1062 l 184 1062 l 184 1048 l 355 882 l 432 882 l 604 1050 l 604 1062 l 496 1062 l 393 959 z "},"Ѳ":{"ha":833,"x_min":67,"x_max":755,"o":"m 755 437 l 755 549 q 746 656 755 602 q 720 761 738 711 q 674 855 702 811 q 609 931 647 899 q 522 982 571 964 q 411 1001 472 1001 q 301 982 350 1001 q 214 931 252 964 q 148 854 176 898 q 103 760 121 810 q 76 656 85 710 q 67 549 68 602 l 67 437 q 77 330 68 384 q 104 227 85 277 q 149 133 121 176 q 215 56 177 89 q 302 5 253 24 q 412 -14 351 -14 q 523 5 473 -14 q 610 56 572 24 q 675 132 648 89 q 720 226 703 176 q 746 330 738 276 q 755 437 755 384 m 191 543 l 191 551 q 196 624 191 585 q 210 700 200 662 q 236 771 220 737 q 277 832 252 806 q 334 873 301 858 q 411 889 368 889 q 488 874 455 889 q 546 833 522 859 q 587 772 570 806 q 613 701 603 738 q 627 624 623 663 q 631 551 631 586 l 631 543 l 191 543 m 631 440 l 631 437 q 627 363 631 401 q 614 287 623 324 q 588 215 604 249 q 548 155 572 180 q 490 113 524 128 q 412 97 456 97 q 335 113 368 97 q 277 155 302 128 q 237 215 253 180 q 210 288 220 250 q 196 363 200 325 q 191 437 191 402 l 191 440 l 631 440 z "},"ѳ":{"ha":833,"x_min":63,"x_max":730,"o":"m 63 374 l 63 359 q 86 212 63 279 q 153 94 109 144 q 257 15 195 43 q 397 -14 319 -14 q 536 15 475 -14 q 642 94 598 43 q 707 212 684 144 q 730 359 730 279 l 730 374 q 707 521 730 453 q 642 640 684 589 q 536 719 598 690 q 396 747 474 747 q 257 719 319 747 q 153 640 195 690 q 86 521 109 589 q 63 374 63 453 m 396 644 q 478 627 442 644 q 541 578 515 609 q 582 507 566 548 q 602 420 597 466 l 191 420 q 211 507 195 466 q 252 578 227 548 q 314 627 278 609 q 396 644 350 644 m 397 88 q 314 106 350 88 q 252 155 277 124 q 210 228 225 186 q 191 317 195 270 l 603 317 q 583 228 598 270 q 543 155 568 186 q 480 106 517 124 q 397 88 444 88 z "},"Ѵ":{"ha":833,"x_min":18,"x_max":847,"o":"m 395 254 l 159 987 l 18 987 l 361 0 l 476 0 l 739 786 q 758 830 748 812 q 779 861 767 849 q 805 878 791 873 q 838 884 819 884 l 846 884 l 847 1000 l 816 1000 q 748 989 778 1000 q 694 953 718 977 q 652 891 671 928 q 616 802 633 854 l 441 253 l 418 165 l 395 254 z "},"ѵ":{"ha":833,"x_min":55,"x_max":760,"o":"m 333 0 l 429 0 l 644 572 q 657 600 649 587 q 677 621 666 612 q 696 632 686 628 q 716 635 706 635 q 733 634 726 635 q 745 630 741 632 l 760 730 q 724 744 742 742 q 688 747 707 747 q 645 741 666 747 q 606 722 625 734 q 557 668 580 703 q 518 583 535 634 l 399 214 l 382 146 l 366 214 l 184 734 l 55 734 l 333 0 z "},"Ѹ":{"ha":833,"x_min":47,"x_max":821,"o":"m 441 330 l 441 656 q 428 798 441 734 q 389 907 414 862 q 324 977 362 952 q 237 1001 286 1001 q 154 977 190 1001 q 95 907 119 952 q 59 798 71 862 q 47 656 47 734 l 47 330 q 59 189 47 252 q 95 81 71 125 q 154 11 119 35 q 237 -14 190 -14 q 325 11 286 -14 q 389 81 363 35 q 428 189 414 125 q 441 330 441 252 m 315 683 l 315 305 q 311 217 315 256 q 298 151 307 178 q 274 108 289 123 q 237 93 259 93 q 200 108 215 93 q 177 151 186 123 q 164 217 168 178 q 160 305 160 256 l 160 683 q 164 771 160 732 q 177 838 168 810 q 200 879 186 865 q 237 894 215 894 q 274 879 258 894 q 298 838 289 865 q 311 771 307 810 q 315 683 315 732 m 435 -281 q 465 -289 446 -285 q 498 -292 484 -292 q 564 -274 536 -292 q 610 -229 591 -256 q 640 -172 628 -203 q 657 -114 651 -140 l 821 734 l 709 734 l 643 347 l 638 315 l 635 347 l 586 734 l 475 734 l 583 -1 l 566 -64 q 557 -100 563 -79 q 543 -140 551 -121 q 519 -174 533 -160 q 486 -188 505 -188 q 462 -186 477 -188 q 438 -184 446 -185 l 435 -281 z "},"ѹ":{"ha":833,"x_min":37,"x_max":821,"o":"m 37 374 l 37 359 q 50 211 37 279 q 87 94 62 143 q 154 15 113 43 q 254 -14 195 -14 q 352 15 311 -14 q 420 94 393 43 q 458 211 446 143 q 470 359 470 279 l 470 374 q 458 522 470 454 q 420 640 446 590 q 352 719 393 690 q 252 747 311 747 q 154 719 195 747 q 87 640 113 690 q 49 522 61 590 q 37 374 37 454 m 163 359 l 163 374 q 165 476 163 427 q 178 562 168 525 q 204 622 186 600 q 252 644 222 644 q 301 622 283 644 q 329 562 319 600 q 341 476 338 525 q 344 374 344 427 l 344 359 q 341 256 344 304 q 330 170 338 207 q 302 110 320 132 q 254 88 284 88 q 205 110 223 88 q 178 170 187 132 q 165 256 168 207 q 163 359 163 304 m 436 -281 q 465 -288 446 -284 q 498 -292 485 -292 q 564 -274 537 -292 q 610 -229 591 -256 q 641 -172 629 -203 q 658 -114 652 -140 l 821 734 l 710 734 l 657 424 l 637 304 l 628 425 l 587 734 l 475 734 l 583 -1 l 567 -64 q 558 -100 564 -79 q 543 -140 552 -121 q 520 -174 534 -160 q 486 -188 506 -188 q 463 -186 478 -188 q 439 -184 447 -185 l 436 -281 z "},"Ѻ":{"ha":833,"x_min":72,"x_max":760,"o":"m 479 816 l 479 1078 l 353 1078 l 353 816 l 479 816 m 479 -96 l 479 172 l 353 172 l 353 -96 l 479 -96 m 760 437 l 760 549 q 751 656 760 602 q 725 761 743 711 q 679 855 707 811 q 614 931 652 899 q 526 982 576 964 q 416 1001 477 1001 q 306 982 355 1001 q 218 931 256 964 q 153 854 180 898 q 108 760 125 810 q 81 656 90 710 q 72 549 73 602 l 72 437 q 81 330 73 384 q 109 227 90 277 q 154 133 126 176 q 220 56 182 89 q 307 5 258 24 q 417 -14 356 -14 q 527 5 478 -14 q 614 56 576 24 q 680 132 652 89 q 725 226 707 176 q 751 330 743 276 q 760 437 760 384 m 636 551 l 636 437 q 632 363 635 401 q 618 287 628 324 q 592 215 608 249 q 553 155 576 180 q 495 113 528 128 q 417 97 461 97 q 340 113 373 97 q 282 155 307 128 q 241 215 258 180 q 215 288 225 250 q 200 363 205 325 q 195 437 196 402 l 195 551 q 200 624 196 585 q 215 700 205 662 q 241 771 224 737 q 281 832 257 806 q 339 873 306 858 q 416 889 372 889 q 493 874 460 889 q 551 833 526 859 q 591 772 575 806 q 618 701 608 738 q 631 624 627 663 q 636 551 635 586 z "},"ѻ":{"ha":833,"x_min":83,"x_max":750,"o":"m 480 568 l 480 832 l 354 832 l 354 568 l 480 568 m 480 -108 l 480 168 l 354 168 l 354 -108 l 480 -108 m 83 374 l 83 359 q 106 212 83 279 q 172 94 129 144 q 277 15 215 43 q 417 -14 339 -14 q 556 15 494 -14 q 661 94 618 43 q 727 212 704 144 q 750 359 750 279 l 750 374 q 727 521 750 453 q 661 640 704 589 q 556 719 618 690 q 416 747 494 747 q 277 719 338 747 q 172 640 215 690 q 106 521 129 589 q 83 374 83 453 m 208 359 l 208 374 q 221 476 208 427 q 260 563 234 526 q 325 622 286 600 q 416 644 363 644 q 507 622 468 644 q 572 563 546 600 q 611 476 598 526 q 625 374 625 427 l 625 359 q 612 255 625 304 q 573 169 599 206 q 508 110 547 132 q 417 88 469 88 q 326 110 365 88 q 260 169 286 132 q 221 255 234 206 q 208 359 208 304 z "},"Ѽ":{"ha":833,"x_min":52,"x_max":783,"o":"m 544 987 l 544 884 q 582 877 565 884 q 614 857 600 870 q 631 834 623 847 q 645 804 640 821 q 654 765 651 787 q 658 720 657 744 l 658 228 q 649 162 657 191 q 627 116 642 134 q 601 95 616 102 q 569 88 587 88 q 535 95 551 88 q 509 116 520 102 q 494 140 500 126 q 485 172 488 155 q 482 193 483 182 q 481 216 481 204 l 481 560 l 355 560 l 355 216 q 354 191 355 203 q 350 169 353 179 q 339 135 346 150 q 321 110 332 120 q 297 94 311 100 q 267 88 283 88 q 231 97 247 88 q 204 121 216 105 q 185 166 192 139 q 178 228 178 193 l 178 720 q 180 755 178 739 q 186 787 182 772 q 199 826 191 809 q 220 856 208 844 q 252 877 234 869 q 292 884 271 884 l 292 987 q 194 969 238 987 q 119 918 150 952 q 93 885 104 903 q 74 846 82 867 q 58 788 63 819 q 52 720 52 756 l 52 228 q 68 124 52 169 q 112 48 83 79 q 179 2 140 18 q 267 -14 218 -14 q 326 -4 298 -14 q 376 24 354 5 q 399 50 388 36 q 418 82 410 64 q 435 51 425 65 q 458 26 446 37 q 508 -4 479 6 q 569 -14 536 -14 q 656 2 616 -14 q 724 48 696 18 q 768 124 752 79 q 783 228 783 169 l 783 720 q 778 784 783 754 q 764 840 773 814 q 744 882 755 863 q 717 918 732 902 q 641 969 685 952 q 544 987 597 987 m 671 1185 l 644 1185 q 587 1191 613 1185 q 538 1207 561 1198 q 494 1228 515 1217 q 452 1249 473 1239 q 410 1264 431 1257 q 366 1270 389 1270 q 296 1260 327 1270 q 245 1230 266 1250 q 218 1184 228 1211 q 209 1122 209 1158 l 209 1098 l 295 1098 l 296 1110 q 300 1139 296 1126 q 310 1160 304 1152 q 333 1179 319 1173 q 368 1184 348 1184 q 395 1180 382 1184 q 423 1171 409 1177 q 451 1157 437 1164 q 481 1142 466 1149 q 553 1112 514 1126 q 642 1099 593 1099 l 671 1099 l 671 1185 m 345 935 l 397 897 q 430 921 414 906 q 458 955 446 937 q 477 992 470 972 q 485 1032 485 1013 l 485 1101 l 391 1101 l 391 1036 q 379 986 391 1010 q 345 935 368 962 z "},"ѽ":{"ha":833,"x_min":70,"x_max":779,"o":"m 551 747 l 551 644 q 586 637 570 644 q 614 618 602 631 q 643 564 633 598 q 653 481 653 530 l 653 225 q 647 163 653 190 q 630 119 641 136 q 606 96 620 104 q 576 88 593 88 q 546 94 559 88 q 521 110 532 99 q 504 133 511 119 q 492 164 496 146 q 489 187 490 175 q 488 213 488 199 l 488 395 l 361 395 l 361 213 q 360 190 361 201 q 357 168 359 178 q 344 132 353 147 q 323 106 336 116 q 300 93 313 97 q 273 88 288 88 q 243 95 256 88 q 220 116 230 102 q 202 161 209 134 q 196 225 196 189 l 196 481 q 206 564 196 530 q 234 617 216 597 q 262 637 247 631 q 297 644 278 644 l 297 747 q 204 730 246 747 q 133 680 163 713 q 86 596 103 646 q 70 481 70 547 l 70 225 q 84 121 70 166 q 126 47 99 77 q 190 1 153 16 q 273 -14 227 -14 q 326 -7 301 -14 q 372 15 351 1 q 401 43 388 27 q 425 81 414 60 q 441 53 432 66 q 460 29 450 40 q 511 -3 482 7 q 576 -14 541 -14 q 659 1 621 -14 q 723 47 696 16 q 764 121 749 77 q 779 225 779 166 l 779 481 q 762 596 779 547 q 715 680 745 646 q 643 730 685 713 q 551 747 602 747 m 218 846 l 304 846 l 304 859 q 310 889 305 876 q 323 911 315 903 q 346 927 332 922 q 378 932 359 932 q 432 919 404 932 q 492 890 459 906 q 522 877 507 884 q 554 864 537 869 q 601 852 576 857 q 654 847 625 847 l 683 847 l 683 933 l 656 933 q 606 938 629 933 q 562 951 583 943 q 532 963 547 956 q 505 977 518 970 q 441 1005 472 992 q 375 1019 410 1019 q 305 1008 336 1019 q 254 977 274 998 q 227 932 236 959 q 218 871 218 906 l 218 846 m 354 683 l 406 645 q 438 669 422 654 q 467 703 454 684 q 486 740 479 720 q 494 780 494 760 l 494 849 l 399 849 l 399 784 q 388 734 399 758 q 354 683 376 710 z "},"Ѿ":{"ha":833,"x_min":77,"x_max":785,"o":"m 192 1218 l 192 1145 l 374 1145 l 374 1060 l 488 1060 l 488 1145 l 681 1145 l 680 1218 l 192 1218 m 784 987 l 659 987 l 659 216 q 653 159 659 184 q 636 117 647 134 q 613 96 627 103 q 584 88 600 88 q 549 96 564 88 q 522 119 533 104 q 508 142 514 129 q 500 172 503 156 q 497 193 498 182 q 496 216 496 204 l 496 987 l 366 987 l 366 216 q 365 191 366 203 q 361 169 363 179 q 351 136 357 151 q 334 112 344 122 q 309 94 323 100 q 278 88 295 88 q 244 98 259 88 q 220 127 230 108 q 207 165 212 143 q 203 216 203 188 l 202 987 l 77 987 l 77 216 q 91 117 77 160 q 132 45 106 75 q 196 1 159 16 q 278 -14 233 -14 q 336 -4 309 -14 q 385 23 363 5 q 410 51 399 35 q 431 86 422 66 q 449 53 439 68 q 472 26 459 38 q 522 -3 494 7 q 584 -14 550 -14 q 666 1 629 -14 q 729 45 703 16 q 770 117 755 75 q 785 216 785 160 l 784 987 z "},"ѿ":{"ha":833,"x_min":64,"x_max":777,"o":"m 176 987 l 176 914 l 360 914 l 360 828 l 474 828 l 474 914 l 669 914 l 669 987 l 176 987 m 777 734 l 652 734 l 652 214 q 644 151 652 178 q 621 109 636 124 q 601 93 612 98 q 575 88 589 88 q 522 108 543 88 q 492 165 500 128 q 488 188 489 176 q 486 214 486 201 l 486 734 l 356 734 l 356 214 q 355 188 356 200 q 351 163 353 175 q 320 108 342 127 q 267 88 298 88 q 235 96 250 88 q 212 121 221 104 q 196 160 201 136 q 191 214 191 184 l 191 734 l 65 734 l 64 214 q 79 116 64 159 q 121 45 94 73 q 184 1 147 16 q 267 -14 222 -14 q 334 -2 304 -14 q 387 35 365 10 q 406 58 397 45 q 420 85 414 71 q 437 55 428 69 q 458 31 447 41 q 510 -3 480 8 q 575 -14 540 -14 q 657 1 620 -14 q 722 45 694 16 q 763 116 748 73 q 777 214 777 159 l 777 734 z "},"Ҁ":{"ha":833,"x_min":102,"x_max":763,"o":"m 549 -259 l 549 88 l 475 88 q 370 114 416 88 q 292 185 323 140 q 244 288 260 229 q 228 410 228 346 l 228 579 q 242 701 228 643 q 283 803 256 759 q 350 872 310 846 q 440 899 389 899 q 525 882 488 899 q 587 837 562 866 q 624 765 611 807 q 637 672 637 723 l 763 672 q 740 807 763 747 q 676 911 718 868 q 574 978 634 955 q 440 1002 515 1002 q 300 969 363 1002 q 194 879 238 936 q 126 744 150 821 q 102 578 102 667 l 102 410 q 125 256 102 328 q 189 128 147 184 q 290 36 231 72 q 424 -10 349 -1 l 424 -259 l 549 -259 z "},"ҁ":{"ha":833,"x_min":130,"x_max":734,"o":"m 519 -259 l 519 88 l 450 88 q 361 112 397 88 q 300 173 324 135 q 266 257 277 210 q 255 353 255 304 l 255 381 q 266 475 255 428 q 301 560 277 522 q 361 621 325 597 q 450 644 398 644 q 515 631 485 644 q 568 596 546 618 q 603 544 590 574 q 616 481 616 514 l 734 481 q 713 586 734 537 q 654 670 692 634 q 564 727 616 706 q 450 747 511 747 q 361 735 402 747 q 286 703 319 724 q 221 648 249 680 q 174 577 193 616 q 141 484 152 534 q 130 381 130 434 l 130 353 q 147 225 130 286 q 197 116 164 165 q 280 34 231 67 q 393 -9 329 1 l 393 -259 l 519 -259 z "},"҂":{"ha":833,"x_min":80,"x_max":793,"o":"m 408 302 l 549 550 l 745 435 l 793 517 l 595 633 l 751 910 l 640 910 l 512 686 l 315 802 l 267 717 l 464 601 l 325 353 l 126 469 l 80 386 l 276 270 l 123 0 l 237 0 l 361 218 l 558 102 l 604 186 l 408 302 z "},"҃":{"ha":833,"x_min":142,"x_max":619,"o":"m 254 892 l 619 892 l 619 1038 l 507 1039 l 508 966 l 142 966 l 142 808 l 254 807 l 254 892 z "},"҄":{"ha":833,"x_min":171,"x_max":684,"o":"m 199 970 l 171 970 l 171 884 l 201 884 q 277 891 242 884 q 343 909 313 899 q 390 928 368 918 q 433 947 413 938 q 477 963 456 956 q 519 969 498 969 q 553 964 538 969 q 578 949 568 959 q 592 927 587 940 q 597 896 597 913 l 597 884 l 684 884 l 684 908 q 674 969 684 943 q 646 1014 665 996 q 594 1045 625 1035 q 522 1056 562 1056 q 471 1049 495 1056 q 422 1034 446 1043 q 374 1013 398 1024 q 323 992 349 1002 q 265 976 296 983 q 199 970 235 970 z "},"҅":{"ha":833,"x_min":306,"x_max":468,"o":"m 306 1017 l 415 883 l 468 927 l 427 1006 l 428 1101 l 306 1101 l 306 1017 z "},"҆":{"ha":833,"x_min":388,"x_max":549,"o":"m 439 883 l 549 1017 l 549 1101 l 427 1101 l 427 1006 l 388 927 l 439 883 z "},"҈":{"ha":833,"x_min":-231,"x_max":1090,"o":"m 277 859 l 353 859 q 368 907 353 886 q 419 928 382 928 q 471 907 456 928 q 486 859 486 886 l 562 859 q 552 910 562 887 q 524 951 542 934 q 478 977 505 968 q 419 987 452 987 q 360 977 387 987 q 315 951 334 968 q 287 910 296 934 q 277 859 277 887 m 677 671 l 755 671 q 769 719 755 698 q 820 740 784 740 q 872 719 857 740 q 887 671 887 699 l 964 671 q 954 723 964 699 q 924 763 943 746 q 879 789 905 780 q 820 799 852 799 q 761 789 787 799 q 716 763 734 780 q 688 723 698 746 q 677 671 677 699 m 804 330 l 881 330 q 896 378 881 357 q 947 399 911 399 q 999 378 983 399 q 1014 330 1014 357 l 1090 330 q 1080 381 1090 358 q 1051 422 1069 405 q 1006 448 1032 439 q 947 458 979 458 q 888 448 914 458 q 843 422 861 439 q 814 381 825 405 q 804 330 804 358 m 671 -22 l 747 -22 q 762 26 747 5 q 813 47 777 47 q 865 26 850 47 q 880 -22 880 5 l 956 -22 q 946 30 956 6 q 918 70 936 53 q 872 96 899 87 q 813 106 846 106 q 754 96 781 106 q 709 70 728 87 q 681 30 691 53 q 671 -22 671 6 m 280 -214 l 357 -214 q 372 -167 357 -188 q 422 -146 387 -146 q 474 -166 459 -146 q 490 -214 490 -187 l 566 -214 q 555 -162 566 -186 q 527 -122 545 -139 q 481 -96 508 -106 q 422 -87 455 -87 q 363 -96 390 -87 q 319 -122 337 -106 q 290 -162 300 -139 q 280 -214 280 -186 m -112 671 l -35 671 q -20 719 -35 698 q 31 740 -6 740 q 83 719 68 740 q 98 671 98 699 l 174 671 q 164 723 174 699 q 136 763 154 746 q 90 789 117 780 q 31 799 64 799 q -28 789 -1 799 q -73 763 -54 780 q -102 723 -92 746 q -112 671 -112 699 m -231 330 l -155 330 q -139 378 -155 357 q -89 399 -124 399 q -37 378 -52 399 q -22 330 -22 357 l 54 330 q 44 381 54 358 q 16 422 34 405 q -30 448 -3 439 q -89 458 -56 458 q -148 448 -121 458 q -192 422 -174 439 q -221 381 -211 405 q -231 330 -231 358 m -119 -22 l -41 -22 q -26 26 -41 5 q 24 47 -12 47 q 76 26 60 47 q 91 -22 91 5 l 168 -22 q 157 30 168 6 q 128 70 147 53 q 83 96 109 87 q 24 106 56 106 q -35 96 -9 106 q -79 70 -61 87 q -109 30 -98 53 q -119 -22 -119 6 z "},"҉":{"ha":833,"x_min":-225,"x_max":1034,"o":"m 471 -41 l 378 -41 l 331 -280 l 396 -280 l 479 -50 l 471 -41 m 339 764 l 431 764 l 479 1002 l 414 1002 l 331 773 l 339 764 m 799 428 l 799 334 l 1034 286 l 1034 352 l 808 436 l 799 428 m 9 294 l 9 388 l -225 436 l -225 370 l 1 286 l 9 294 m 636 680 l 702 612 l 901 748 l 855 794 l 637 690 l 636 680 m 172 14 l 106 81 l -93 -54 l -46 -101 l 171 3 l 172 14 m 77 583 l 144 650 l 9 852 l -35 806 l 66 585 l 77 583 m 730 109 l 664 42 l 798 -161 l 842 -113 l 741 108 l 730 109 z "},"Ҏ":{"ha":833,"x_min":130,"x_max":777,"o":"m 728 317 l 481 650 l 392 603 l 638 269 l 728 317 m 255 396 l 450 396 q 575 416 516 397 q 680 473 635 436 q 750 565 724 511 q 777 691 777 620 q 750 817 777 762 q 680 909 724 872 q 575 966 635 947 q 450 987 516 986 l 130 987 l 130 0 l 255 0 l 255 396 m 255 499 l 255 884 l 450 884 q 530 870 493 884 q 594 831 567 857 q 636 770 621 806 q 651 690 651 734 q 636 610 651 645 q 593 551 621 575 q 530 513 566 526 q 450 499 493 500 l 255 499 z "},"ҏ":{"ha":833,"x_min":117,"x_max":737,"o":"m 731 1 l 486 255 l 409 191 l 655 -62 l 731 1 m 737 359 l 737 373 q 718 524 737 455 q 663 642 699 593 q 572 720 626 692 q 447 747 517 747 q 371 739 406 747 q 307 713 336 730 q 270 687 288 702 q 238 654 253 672 l 232 734 l 117 734 l 117 -282 l 243 -282 l 243 71 q 272 42 256 55 q 306 20 288 30 q 371 -5 336 3 q 449 -14 407 -14 q 572 15 518 -14 q 663 94 626 43 q 718 212 699 144 q 737 359 737 280 m 612 373 l 612 359 q 602 264 612 310 q 572 184 592 219 q 507 115 547 141 q 411 89 468 89 q 357 95 381 89 q 312 113 332 102 q 273 145 290 126 q 243 187 256 164 l 243 541 q 273 583 256 564 q 311 614 290 602 q 356 634 331 627 q 410 641 380 641 q 500 619 463 641 q 564 561 538 597 q 600 475 588 524 q 612 373 612 427 z "},"Ґ":{"ha":833,"x_min":123,"x_max":743,"o":"m 743 884 l 743 1215 l 617 1215 l 617 987 l 123 987 l 123 0 l 250 0 l 250 884 l 743 884 z "},"ґ":{"ha":833,"x_min":123,"x_max":728,"o":"m 728 630 l 728 949 l 602 949 l 602 734 l 123 734 l 123 0 l 250 0 l 250 630 l 728 630 z "},"Ҕ":{"ha":833,"x_min":125,"x_max":781,"o":"m 730 884 l 730 987 l 125 987 l 125 0 l 252 0 l 252 456 l 376 456 q 491 439 441 456 q 575 393 541 423 q 634 301 614 357 q 655 174 654 246 q 645 63 655 113 q 612 -22 635 14 q 551 -76 589 -57 q 458 -96 513 -96 l 460 -195 q 598 -171 538 -195 q 699 -99 658 -146 q 760 17 739 -52 q 781 174 781 85 q 753 338 781 265 q 675 461 726 410 q 548 538 623 511 q 376 566 473 566 l 252 566 l 252 884 l 730 884 z "},"ҕ":{"ha":833,"x_min":125,"x_max":750,"o":"m 724 630 l 724 734 l 125 734 l 125 0 l 251 0 l 251 328 l 399 328 q 488 314 447 328 q 559 274 529 300 q 607 207 590 247 q 625 115 625 167 q 615 45 625 77 q 585 -14 606 12 q 532 -61 565 -41 q 454 -94 500 -81 l 486 -193 q 606 -145 556 -180 q 688 -65 656 -110 q 735 28 720 -20 q 750 115 750 76 q 723 252 750 192 q 650 353 696 312 q 538 416 602 394 q 399 438 474 438 l 251 438 l 251 630 l 724 630 z "},"Ҝ":{"ha":833,"x_min":118,"x_max":827,"o":"m 798 987 l 651 987 l 450 550 l 413 550 l 413 724 l 312 724 l 312 550 l 243 550 l 243 987 l 118 987 l 118 0 l 243 0 l 243 448 l 312 448 l 312 281 l 413 281 l 413 448 l 450 448 l 671 0 l 827 0 l 570 522 l 798 987 z "},"ҝ":{"ha":833,"x_min":111,"x_max":780,"o":"m 755 734 l 604 734 l 428 423 l 398 423 l 398 568 l 298 568 l 298 423 l 237 423 l 237 734 l 111 734 l 111 0 l 237 0 l 237 313 l 298 313 l 298 181 l 398 181 l 398 313 l 433 313 l 621 0 l 780 0 l 526 385 l 755 734 z "},"Ҡ":{"ha":833,"x_min":31,"x_max":807,"o":"m 448 447 l 654 0 l 807 0 l 559 509 l 780 987 l 637 987 l 443 549 l 376 549 l 376 987 l 31 987 l 31 884 l 252 884 l 252 0 l 376 0 l 376 447 l 448 447 z "},"ҡ":{"ha":833,"x_min":38,"x_max":814,"o":"m 475 313 l 656 0 l 814 0 l 568 385 l 791 734 l 639 734 l 470 423 l 384 423 l 384 734 l 38 734 l 38 630 l 258 630 l 258 0 l 384 0 l 384 313 l 475 313 z "},"Ҥ":{"ha":833,"x_min":77,"x_max":799,"o":"m 203 542 l 203 987 l 77 987 l 77 0 l 203 0 l 203 439 l 454 439 l 454 0 l 579 0 l 579 884 l 799 884 l 799 987 l 454 987 l 454 542 l 203 542 z "},"ҥ":{"ha":833,"x_min":75,"x_max":800,"o":"m 200 416 l 200 734 l 75 734 l 75 0 l 200 0 l 200 313 l 458 313 l 458 0 l 583 0 l 583 630 l 800 630 l 800 734 l 458 734 l 458 416 l 200 416 z "},"Ҧ":{"ha":833,"x_min":74,"x_max":799,"o":"m 500 565 l 500 987 l 74 987 l 74 0 l 199 0 l 199 884 l 374 884 l 374 0 l 500 0 l 500 454 l 502 454 q 551 446 528 454 q 593 422 575 437 q 632 376 616 405 q 658 310 648 347 q 669 247 665 281 q 673 174 673 212 q 671 99 673 135 q 662 35 668 64 q 641 -29 654 -2 q 608 -72 628 -56 q 576 -90 594 -84 q 536 -96 558 -96 l 538 -196 q 606 -188 574 -196 q 665 -164 638 -180 q 734 -98 706 -139 q 778 0 763 -57 q 794 80 789 37 q 799 174 799 124 q 791 281 799 231 q 766 374 783 332 q 724 453 749 418 q 665 513 699 488 q 590 551 632 538 q 501 565 548 564 l 500 565 z "},"ҧ":{"ha":833,"x_min":79,"x_max":779,"o":"m 79 0 l 204 0 l 204 630 l 361 630 l 361 0 l 486 0 l 486 328 l 492 328 q 558 313 528 328 q 608 271 587 298 q 641 204 629 244 q 653 115 652 165 q 646 46 653 79 q 624 -13 640 14 q 582 -60 608 -40 q 517 -93 555 -81 l 549 -192 q 649 -148 607 -180 q 719 -75 690 -116 q 763 23 749 -28 q 779 115 777 74 q 758 249 779 189 q 699 351 736 309 q 608 415 661 393 q 492 437 555 437 l 486 437 l 486 734 l 79 734 l 79 0 z "},"Ҩ":{"ha":833,"x_min":71,"x_max":749,"o":"m 749 -20 l 749 86 q 692 91 719 86 q 642 103 666 95 q 675 151 660 125 q 701 205 690 177 q 730 307 720 252 q 741 421 741 361 l 741 665 q 727 797 741 736 q 685 903 712 858 q 619 974 658 948 q 531 1000 580 1000 q 443 973 482 1000 q 377 901 404 947 q 335 795 350 856 q 321 665 321 734 l 321 435 q 330 330 321 380 q 357 237 339 280 q 396 162 373 197 q 448 98 419 127 q 427 94 437 95 q 404 92 416 92 q 346 102 373 92 q 297 132 319 113 q 251 187 271 154 q 218 260 231 220 q 202 336 208 296 q 196 421 196 377 l 196 612 q 198 683 196 649 q 206 747 201 718 q 225 818 214 787 q 252 869 236 850 q 274 888 262 881 q 299 895 286 895 l 298 1002 q 235 989 264 1002 q 182 953 206 976 q 127 880 151 924 q 91 781 104 835 q 76 700 81 743 q 71 610 71 656 l 71 421 q 79 319 71 368 q 102 225 87 269 q 156 120 123 168 q 233 41 189 73 q 312 0 269 15 q 404 -14 355 -14 q 482 -4 445 -14 q 551 24 519 5 q 644 -8 594 3 q 749 -20 693 -20 m 446 434 l 446 667 q 451 753 446 713 q 467 825 456 794 q 494 874 478 856 q 531 892 509 892 q 568 875 552 892 q 595 827 584 858 q 610 755 605 797 q 615 667 615 714 l 615 421 q 609 331 615 374 q 589 250 602 288 q 569 204 581 226 q 543 163 557 182 q 505 210 522 184 q 475 266 488 236 q 454 344 461 302 q 446 434 446 387 z "},"ҩ":{"ha":833,"x_min":62,"x_max":789,"o":"m 789 -8 l 789 98 q 726 102 756 98 q 669 113 696 106 q 697 151 684 131 q 720 193 709 171 q 747 278 737 233 q 756 373 756 323 l 756 444 q 750 520 756 484 q 733 590 745 557 q 702 656 720 627 q 657 706 683 686 q 604 737 633 726 q 541 748 574 748 q 475 738 507 748 q 424 709 444 727 q 382 664 399 687 q 353 612 366 642 q 333 541 340 580 q 326 458 326 501 l 326 388 q 338 287 326 335 q 376 197 351 239 q 412 146 391 170 q 458 100 433 121 q 428 94 443 96 q 396 92 412 92 q 309 115 347 92 q 243 178 270 138 q 203 271 217 217 q 189 386 189 324 l 189 427 q 196 510 189 471 q 218 578 203 549 q 253 624 232 607 q 301 640 274 640 l 301 747 q 221 731 258 747 q 156 687 184 715 q 118 639 135 666 q 90 581 101 612 q 69 507 76 547 q 62 425 62 468 l 62 386 q 74 277 62 329 q 105 180 85 224 q 154 102 125 138 q 217 42 182 67 q 299 0 254 15 q 396 -14 345 -14 q 491 -2 446 -14 q 574 31 535 9 q 674 2 621 12 q 789 -8 728 -7 m 452 387 l 452 460 q 454 512 452 487 q 463 557 457 536 q 477 598 468 580 q 500 627 486 616 q 518 638 508 634 q 541 642 528 642 q 565 636 554 642 q 585 621 576 631 q 608 585 598 608 q 623 536 617 562 q 629 493 627 515 q 631 446 631 470 l 631 373 q 624 303 630 336 q 606 240 618 269 q 586 199 597 218 q 559 163 574 180 q 513 206 533 182 q 480 257 493 229 q 459 318 466 285 q 452 387 452 351 z "},"Ҵ":{"ha":833,"x_min":39,"x_max":818,"o":"m 221 884 l 221 0 l 694 0 l 694 -238 l 806 -238 l 818 106 l 720 106 l 720 987 l 594 987 l 594 102 l 347 102 l 347 884 l 508 884 l 508 987 l 39 987 l 39 884 l 221 884 z "},"ҵ":{"ha":833,"x_min":35,"x_max":789,"o":"m 193 631 l 193 0 l 664 0 l 664 -218 l 777 -218 l 789 102 l 702 102 l 702 734 l 576 734 l 576 102 l 318 102 l 318 631 l 473 631 l 473 734 l 35 734 l 35 631 l 193 631 z "},"Ҹ":{"ha":833,"x_min":116,"x_max":721,"o":"m 460 210 l 460 684 l 359 684 l 359 210 l 460 210 m 721 987 l 595 987 l 595 513 q 552 500 574 506 q 507 489 530 494 q 452 480 481 484 q 393 477 424 477 q 326 487 354 477 q 279 521 297 497 q 251 582 260 544 q 241 678 241 621 l 241 987 l 116 987 l 116 678 q 135 538 116 596 q 189 444 153 481 q 275 391 224 408 q 393 374 327 374 q 453 377 425 374 q 505 384 480 379 q 551 395 528 389 q 595 409 573 401 l 595 0 l 721 0 l 721 987 z "},"ҹ":{"ha":833,"x_min":99,"x_max":724,"o":"m 466 143 l 466 527 l 364 527 l 364 143 l 466 143 m 724 0 l 724 734 l 599 734 l 599 371 q 563 363 581 367 q 527 357 545 359 q 464 350 496 352 q 397 347 431 347 q 320 358 353 347 q 266 392 288 369 q 235 445 245 413 q 224 520 224 477 l 224 734 l 99 734 l 99 520 q 120 398 99 450 q 180 313 141 347 q 274 261 219 278 q 397 244 329 244 q 504 250 454 244 q 599 268 553 256 l 599 0 l 724 0 z "},"Һ":{"ha":833,"x_min":154,"x_max":759,"o":"m 154 0 l 279 0 l 279 473 q 376 499 328 490 q 481 509 425 509 q 549 499 520 509 q 596 467 577 490 q 624 405 614 443 q 633 309 633 366 l 633 0 l 758 0 l 759 309 q 740 448 759 391 q 686 543 722 506 q 599 596 650 579 q 481 612 547 612 q 370 603 416 612 q 279 577 323 593 l 279 987 l 154 987 l 154 0 z "},"Ҽ":{"ha":833,"x_min":26,"x_max":787,"o":"m 26 733 q 37 640 26 682 q 71 565 48 597 q 125 511 92 532 q 202 481 158 490 l 202 384 q 225 224 202 297 q 292 98 248 151 q 400 15 336 45 q 549 -15 465 -15 q 680 7 625 -15 q 760 53 736 30 l 728 145 q 695 125 713 136 q 656 106 677 115 q 607 92 633 98 q 549 87 581 87 q 448 111 490 87 q 379 175 406 134 q 340 269 352 215 q 328 384 328 323 l 328 476 l 787 476 l 787 604 q 782 709 787 660 q 766 798 777 758 q 728 888 751 849 q 671 952 705 926 q 599 988 640 976 q 509 1000 558 1000 q 427 987 466 1000 q 354 949 387 974 q 293 889 320 925 q 246 810 266 854 q 214 706 225 763 q 202 581 202 648 l 202 578 q 174 595 186 585 q 153 621 161 606 q 134 670 140 642 q 127 733 127 699 l 26 733 m 328 566 l 328 576 q 335 689 328 638 q 357 779 343 741 q 383 829 368 807 q 416 865 397 850 q 458 889 435 881 q 509 897 481 897 q 558 889 536 897 q 596 867 580 882 q 630 823 616 850 q 651 762 643 795 q 659 705 656 735 q 662 642 662 674 l 662 566 l 328 566 z "},"ҽ":{"ha":833,"x_min":26,"x_max":785,"o":"m 519 -14 q 672 15 612 -14 q 764 78 732 44 l 714 162 q 634 110 682 131 q 519 88 587 88 q 437 108 473 88 q 377 161 401 127 q 340 241 353 195 q 325 336 327 286 l 325 337 l 785 337 l 785 418 q 767 550 785 490 q 715 654 750 610 q 626 723 680 698 q 499 747 572 747 q 396 726 445 747 q 307 665 347 704 q 241 569 268 625 q 203 448 214 514 q 145 499 163 463 q 126 587 127 535 l 26 587 q 35 505 26 543 q 62 439 44 468 q 118 384 84 406 q 199 354 152 362 l 199 353 q 221 207 199 274 q 285 91 243 140 q 386 14 326 41 q 519 -14 445 -14 m 499 644 q 571 629 541 644 q 621 587 601 613 q 650 527 640 561 q 659 456 659 493 l 659 440 l 329 440 q 350 521 335 484 q 387 586 365 558 q 437 629 408 613 q 499 644 465 644 z "},"Ӄ":{"ha":833,"x_min":136,"x_max":789,"o":"m 484 557 l 782 987 l 636 987 l 357 562 l 261 562 l 261 987 l 136 987 l 136 0 l 261 0 l 261 452 l 413 452 q 523 433 476 452 q 602 378 570 414 q 648 290 632 342 q 664 170 663 237 q 660 96 664 131 q 647 32 656 61 q 621 -26 637 -1 q 581 -69 604 -52 q 532 -92 559 -84 q 470 -100 505 -100 l 471 -199 q 609 -175 549 -199 q 708 -102 668 -150 q 769 13 748 -56 q 789 170 789 81 q 769 318 789 251 q 710 434 749 385 q 614 515 671 484 q 486 557 557 547 l 484 557 z "},"ӄ":{"ha":833,"x_min":122,"x_max":735,"o":"m 466 415 l 735 734 l 583 734 l 328 423 l 248 423 l 248 734 l 122 734 l 122 0 l 248 0 l 248 313 l 382 313 q 471 302 431 313 q 541 268 511 291 q 587 207 570 244 q 604 119 604 170 q 596 53 604 84 q 568 -2 587 22 q 520 -46 549 -27 q 448 -76 490 -65 l 481 -175 q 594 -130 547 -163 q 671 -54 641 -96 q 715 35 701 -12 q 729 119 729 81 q 710 235 729 184 q 656 323 690 286 q 573 382 621 359 q 466 415 524 406 z "},"Ӈ":{"ha":833,"x_min":123,"x_max":711,"o":"m 249 987 l 123 987 l 123 0 l 249 0 l 249 437 l 586 437 l 586 -60 q 563 -156 586 -119 q 496 -193 541 -193 q 484 -193 492 -193 q 465 -191 475 -192 q 446 -188 455 -190 q 431 -184 437 -186 l 422 -284 q 459 -294 441 -291 q 496 -296 477 -296 q 588 -280 548 -296 q 656 -234 628 -264 q 697 -160 683 -203 q 711 -60 711 -116 l 711 987 l 586 987 l 586 540 l 249 540 l 249 987 z "},"ӈ":{"ha":833,"x_min":121,"x_max":709,"o":"m 247 734 l 121 734 l 121 0 l 247 0 l 247 313 l 584 313 l 584 -60 q 560 -157 584 -121 q 491 -193 536 -193 q 477 -193 486 -193 q 459 -191 469 -192 q 439 -188 449 -190 q 425 -184 430 -186 l 415 -284 q 453 -294 435 -291 q 491 -296 471 -296 q 583 -280 543 -296 q 652 -234 624 -264 q 694 -160 680 -204 q 709 -60 709 -117 l 709 734 l 584 734 l 584 416 l 247 416 l 247 734 z "},"Ә":{"ha":833,"x_min":61,"x_max":753,"o":"m 389 1001 q 302 994 340 1001 q 234 975 263 986 q 184 952 204 964 q 153 932 164 941 l 184 840 q 222 860 201 850 q 268 880 243 871 q 323 893 293 888 q 389 899 353 899 q 457 890 426 899 q 512 865 488 881 q 564 815 543 846 q 600 750 586 785 q 621 667 614 712 q 628 574 628 622 l 628 511 l 61 511 l 61 398 q 67 304 61 349 q 85 221 73 260 q 136 113 102 161 q 214 37 169 66 q 299 -1 252 12 q 402 -14 346 -14 q 493 -1 450 -14 q 574 38 537 13 q 659 118 622 69 q 720 229 696 168 q 745 322 736 273 q 753 426 753 372 l 753 574 q 743 690 753 635 q 713 791 733 745 q 657 882 690 842 q 581 950 624 922 q 493 988 541 975 q 389 1001 445 1001 m 402 88 q 330 98 361 88 q 273 126 298 108 q 227 181 246 149 q 198 253 207 214 q 189 304 192 277 q 186 360 186 332 l 186 421 l 628 421 q 621 337 627 378 q 603 261 615 296 q 566 183 589 218 q 513 125 544 148 q 463 98 490 107 q 402 88 435 88 z "},"Ӡ":{"ha":833,"x_min":100,"x_max":750,"o":"m 571 884 l 307 577 l 307 475 l 404 475 q 503 462 460 475 q 573 422 545 449 q 611 361 598 398 q 625 273 625 323 q 610 199 625 233 q 570 140 596 165 q 505 102 543 116 q 418 88 467 88 q 340 103 376 88 q 279 143 304 117 q 240 202 254 168 q 226 274 226 235 l 100 274 q 128 144 100 199 q 200 55 155 90 q 302 3 245 20 q 418 -14 359 -14 q 551 5 490 -14 q 656 62 612 24 q 725 153 701 99 q 750 275 750 206 q 730 398 750 343 q 669 489 710 452 q 551 555 616 536 q 441 574 486 574 l 440 574 l 719 907 l 718 987 l 129 987 l 129 884 l 571 884 z "},"ӡ":{"ha":833,"x_min":93,"x_max":743,"o":"m 551 630 l 298 323 l 298 220 l 394 220 q 496 207 452 220 q 568 165 541 193 q 605 104 593 140 q 618 18 618 67 q 604 -55 618 -22 q 563 -113 589 -89 q 498 -151 536 -138 q 411 -165 460 -165 q 333 -150 368 -165 q 273 -111 298 -136 q 233 -52 247 -85 q 219 20 219 -18 l 93 20 q 121 -109 93 -55 q 193 -199 149 -163 q 295 -251 238 -234 q 411 -268 352 -268 q 544 -249 483 -268 q 650 -192 605 -229 q 719 -101 694 -155 q 743 21 743 -47 q 723 140 743 87 q 664 231 703 193 q 552 297 618 275 q 443 318 486 318 l 442 318 l 712 654 l 711 734 l 122 734 l 122 630 l 551 630 z "},"Ӻ":{"ha":833,"x_min":45,"x_max":778,"o":"m 778 884 l 778 987 l 174 987 l 174 0 l 300 0 l 300 884 l 778 884 m 477 484 l 477 587 l 45 587 l 45 484 l 477 484 m 413 102 l 288 102 l 288 -60 q 282 -113 288 -90 q 265 -153 276 -136 q 235 -178 253 -169 q 195 -186 218 -186 q 163 -184 185 -186 q 128 -178 140 -182 l 119 -284 q 156 -294 138 -291 q 195 -296 174 -296 q 296 -277 252 -296 q 367 -222 340 -258 q 401 -152 389 -193 q 413 -60 413 -111 l 413 102 z "},"ӻ":{"ha":833,"x_min":79,"x_max":779,"o":"m 779 630 l 779 734 l 180 734 l 180 0 l 306 0 l 306 630 l 779 630 m 511 336 l 511 438 l 79 438 l 79 336 l 511 336 m 406 102 l 280 102 l 280 -60 q 274 -113 280 -90 q 258 -153 269 -136 q 228 -178 245 -169 q 187 -186 210 -186 q 155 -184 178 -186 q 121 -178 133 -182 l 111 -284 q 149 -294 131 -291 q 187 -296 167 -296 q 289 -277 245 -296 q 359 -222 332 -258 q 394 -152 382 -193 q 406 -60 406 -111 l 406 102 z "},"Ԁ":{"ha":833,"x_min":66,"x_max":727,"o":"m 602 595 l 396 595 q 255 573 317 595 q 152 513 194 552 q 88 420 110 475 q 66 300 66 366 q 88 180 66 235 q 152 85 110 125 q 255 22 194 45 q 396 0 317 0 l 727 0 l 727 987 l 602 987 l 602 595 m 602 102 l 396 102 q 304 119 343 102 q 241 163 266 136 q 204 227 216 191 q 192 302 192 263 q 204 374 192 340 q 241 435 216 409 q 304 477 266 461 q 396 492 343 492 l 602 492 l 602 102 z "},"Ԃ":{"ha":833,"x_min":52,"x_max":790,"o":"m 314 0 l 550 0 q 641 20 598 0 q 717 81 684 41 q 768 182 749 122 q 789 323 787 243 q 777 453 790 388 q 745 580 763 518 l 623 580 q 654 451 643 518 q 663 323 665 385 q 655 234 663 274 q 633 164 648 193 q 598 119 619 135 q 550 102 578 103 l 517 102 l 517 987 l 391 987 l 391 595 l 314 595 q 201 573 250 595 q 119 513 153 551 q 69 419 86 473 q 52 300 52 365 q 69 181 52 236 q 119 86 86 126 q 201 23 153 45 q 314 0 250 0 m 391 102 l 314 102 q 251 119 277 102 q 209 164 225 136 q 185 228 193 192 q 178 302 178 264 q 185 374 178 339 q 209 435 193 408 q 251 477 225 461 q 314 492 277 492 l 391 492 l 391 102 z "},"ԃ":{"ha":833,"x_min":68,"x_max":794,"o":"m 68 391 l 68 302 q 72 236 68 268 q 81 176 75 205 q 114 88 93 128 q 164 24 136 48 q 213 -4 186 6 q 272 -14 240 -14 q 330 -4 304 -14 q 378 25 356 6 q 398 48 389 35 q 416 75 408 60 q 436 43 425 58 q 461 19 448 29 q 512 -6 483 2 q 576 -14 541 -15 q 642 0 611 -14 q 700 43 673 14 q 743 105 727 73 q 771 182 759 138 q 787 263 781 219 q 793 359 793 308 q 789 445 794 402 q 774 530 784 488 q 763 581 769 555 q 749 632 756 607 l 628 631 q 642 578 635 605 q 653 524 648 551 q 664 442 661 484 q 667 359 668 400 q 664 286 667 320 q 657 221 662 251 q 643 162 651 189 q 623 119 635 136 q 602 97 614 104 q 576 88 590 89 q 558 92 566 88 q 543 102 550 96 q 528 125 534 111 q 517 156 522 139 q 514 181 515 168 q 513 209 513 195 l 513 1058 l 388 1058 l 388 698 q 372 713 380 706 q 354 726 363 720 q 317 742 337 736 q 273 747 296 747 q 204 732 235 747 q 149 688 172 716 q 112 629 127 663 q 87 555 97 595 q 73 477 78 519 q 68 391 68 435 m 388 591 l 388 209 q 390 179 389 193 q 393 151 391 165 q 380 131 387 140 q 364 115 373 121 q 337 98 352 104 q 303 92 322 92 q 271 98 286 92 q 246 114 257 104 q 217 158 228 130 q 200 219 205 186 q 195 259 197 238 q 194 302 194 280 l 194 391 q 196 452 194 422 q 203 508 198 481 q 217 561 208 536 q 237 604 226 586 q 267 631 250 621 q 304 641 283 641 q 339 634 323 641 q 366 617 354 628 q 378 605 372 612 q 388 591 383 599 z "},"Ԅ":{"ha":833,"x_min":37,"x_max":788,"o":"m 341 251 l 341 181 q 354 103 343 137 q 384 45 364 69 q 449 0 409 14 q 541 -14 488 -15 q 636 10 591 -14 q 713 81 680 34 q 746 140 732 107 q 770 214 760 174 q 782 281 777 245 q 787 359 786 318 q 774 497 788 429 q 742 632 760 566 l 621 632 q 640 556 631 594 q 653 479 648 517 q 659 419 657 450 q 661 359 661 389 q 658 300 661 328 q 652 247 656 272 q 642 203 648 224 q 629 165 637 182 q 592 109 614 129 q 541 88 570 89 q 509 96 523 88 q 486 116 495 103 q 471 145 476 128 q 467 181 467 162 l 467 252 q 460 328 467 292 q 439 394 454 364 q 400 447 424 424 q 344 484 377 469 q 381 507 363 494 q 412 536 398 520 q 457 613 441 569 q 473 709 473 656 q 454 829 473 777 q 398 916 435 881 q 309 969 361 951 q 190 987 256 987 l 37 987 l 37 884 l 190 884 q 259 872 230 884 q 309 838 289 860 q 338 782 328 814 q 348 710 348 750 q 338 633 348 667 q 307 577 328 600 q 255 545 286 556 q 180 534 223 534 l 124 534 l 124 431 l 214 431 q 266 417 243 431 q 307 380 290 404 q 332 323 323 357 q 341 251 341 290 z "},"ԅ":{"ha":833,"x_min":54,"x_max":779,"o":"m 497 515 q 478 608 497 567 q 422 676 458 648 q 331 719 385 704 q 210 734 277 734 l 54 734 l 58 632 l 210 632 q 286 622 254 632 q 338 593 318 612 q 363 557 355 578 q 371 511 371 536 q 365 473 371 490 q 345 441 358 455 q 294 412 327 422 q 212 401 260 401 l 111 401 l 113 300 l 230 300 q 295 291 267 299 q 340 267 323 283 q 362 236 355 254 q 370 196 370 218 l 370 151 q 380 80 370 111 q 410 29 391 50 q 471 -7 433 5 q 557 -18 508 -19 q 623 -6 591 -18 q 680 26 654 5 q 714 63 698 41 q 743 112 731 85 q 768 189 758 146 q 778 284 777 232 q 775 334 779 309 q 767 385 772 359 q 751 443 760 414 q 732 500 742 472 l 610 500 q 642 392 631 448 q 652 284 653 337 q 645 203 651 239 q 627 140 639 166 q 598 99 615 114 q 557 85 581 85 q 530 88 541 85 q 511 98 518 92 q 500 118 504 106 q 496 144 496 130 l 496 197 q 486 261 496 231 q 454 313 476 290 q 418 339 439 328 q 370 359 397 351 q 417 382 396 369 q 454 410 439 395 q 486 457 475 431 q 497 515 497 483 z "},"Ԇ":{"ha":833,"x_min":121,"x_max":750,"o":"m 184 429 l 333 429 q 407 417 374 429 q 463 381 439 404 q 499 324 486 357 q 512 250 512 291 l 512 161 q 513 126 512 148 q 518 82 514 105 q 531 36 522 58 q 555 0 539 14 l 613 0 l 613 -1 q 610 -48 613 -24 q 599 -97 606 -73 q 581 -146 592 -121 q 554 -193 569 -170 l 632 -235 q 682 -180 661 -211 q 720 -114 704 -149 q 742 -45 734 -80 q 750 22 750 -10 l 750 141 l 638 141 q 637 150 637 146 q 637 159 637 155 l 637 252 q 629 330 637 293 q 602 396 621 366 q 555 448 584 426 q 484 484 526 471 q 534 511 511 496 q 575 544 557 526 q 624 616 607 575 q 640 707 640 656 q 618 828 640 776 q 553 916 595 881 q 449 969 511 951 q 309 987 387 987 l 121 987 l 121 884 l 309 884 q 400 872 361 884 q 465 838 439 860 q 503 782 490 814 q 515 708 515 749 q 504 636 515 667 q 471 583 493 605 q 400 545 444 558 q 295 532 357 532 l 184 532 l 184 429 z "},"ԇ":{"ha":833,"x_min":141,"x_max":727,"o":"m 191 299 l 354 299 q 416 290 389 298 q 462 267 444 282 q 488 230 479 252 q 497 182 497 209 l 497 117 q 498 93 497 109 q 502 60 498 77 q 513 26 505 42 q 534 0 520 9 l 591 0 l 591 -1 q 587 -56 591 -28 q 575 -113 583 -85 q 557 -160 568 -137 q 531 -205 546 -184 l 609 -248 q 659 -193 637 -224 q 696 -127 681 -161 q 719 -58 711 -93 q 727 9 727 -23 l 727 128 q 667 128 692 128 q 623 128 641 128 q 623 149 623 142 q 623 167 623 155 q 623 174 623 170 q 623 182 623 178 q 616 241 623 214 q 593 291 609 269 q 553 330 578 313 q 493 357 528 347 q 542 380 520 368 q 580 409 564 393 q 612 457 601 430 q 623 516 623 484 q 604 609 623 568 q 547 677 584 649 q 456 719 509 705 q 334 734 402 734 l 142 734 l 141 632 l 334 632 q 411 623 378 632 q 463 595 443 613 q 489 559 480 580 q 497 512 497 538 q 488 466 497 486 q 459 431 479 445 q 408 409 439 416 q 334 401 377 401 l 191 401 l 191 299 z "},"Ԉ":{"ha":833,"x_min":14,"x_max":806,"o":"m 414 884 l 414 184 q 421 118 415 148 q 439 66 427 89 q 465 29 450 45 q 500 3 481 14 q 541 -11 519 -6 q 589 -14 563 -15 q 672 10 633 -14 q 741 82 711 35 q 773 152 760 113 q 795 240 787 192 q 802 297 800 267 q 805 359 804 326 q 804 424 806 391 q 798 487 802 456 q 787 560 793 524 q 773 632 781 596 l 652 631 q 672 495 665 564 q 679 359 680 427 q 677 310 679 334 q 674 264 676 286 q 667 211 671 236 q 656 165 663 186 q 628 109 645 130 q 589 88 612 89 q 574 91 581 88 q 562 100 568 94 q 552 117 556 107 q 545 137 548 126 q 541 160 542 148 q 540 184 540 172 l 539 987 l 153 987 l 153 521 q 152 460 153 490 q 151 405 151 431 q 142 294 148 343 q 126 208 136 245 q 109 159 119 180 q 85 125 98 138 q 59 108 73 114 q 29 102 45 102 l 14 102 l 14 0 l 37 0 q 108 11 76 0 q 165 45 140 22 q 199 84 183 62 q 227 136 214 107 q 258 245 246 182 q 274 383 269 307 q 277 450 276 415 q 278 521 278 484 l 277 884 l 414 884 z "},"ԉ":{"ha":833,"x_min":32,"x_max":785,"o":"m 517 734 l 132 734 l 132 422 q 131 340 132 378 q 127 271 130 302 q 123 228 125 248 q 116 192 120 208 q 90 133 106 153 q 50 113 74 113 l 34 112 l 32 0 l 58 0 q 119 10 92 0 q 168 40 146 20 q 206 93 190 61 q 234 168 222 124 q 247 233 241 197 q 254 308 252 268 q 257 363 256 334 q 258 422 258 391 l 258 630 l 391 630 l 391 196 q 397 132 391 161 q 413 79 404 102 q 438 37 423 55 q 473 7 454 18 q 516 -9 492 -4 q 566 -14 539 -15 q 628 -2 599 -14 q 683 32 658 9 q 728 89 708 55 q 762 168 749 123 q 777 242 771 201 q 783 328 783 282 q 771 459 785 394 q 739 587 758 524 l 618 587 q 635 524 627 555 q 648 460 643 492 q 656 395 653 428 q 658 328 659 361 q 655 267 657 296 q 648 213 653 238 q 634 155 643 181 q 612 115 625 129 q 591 95 603 102 q 566 88 580 89 q 553 91 559 88 q 542 100 547 94 q 529 119 534 107 q 522 146 524 130 q 518 170 519 157 q 517 196 517 182 l 517 734 z "},"Ԋ":{"ha":833,"x_min":75,"x_max":795,"o":"m 529 987 l 404 987 l 404 540 l 201 540 l 201 987 l 75 987 l 75 0 l 201 0 l 201 437 l 404 437 l 404 209 q 410 140 404 172 q 424 87 415 108 q 449 41 436 58 q 481 11 463 24 q 525 -8 500 -2 q 578 -14 549 -15 q 662 10 623 -14 q 730 82 701 35 q 760 144 747 109 q 781 220 772 178 q 790 286 787 251 q 794 359 793 320 q 792 424 795 391 q 783 488 789 456 q 768 561 777 524 q 749 632 759 597 l 629 631 q 659 495 648 564 q 668 359 669 427 q 667 308 668 333 q 663 262 665 283 q 655 210 660 234 q 645 166 651 186 q 617 109 634 130 q 578 88 601 89 q 566 91 571 88 q 555 98 560 94 q 542 119 547 106 q 534 149 537 132 q 530 178 531 163 q 529 209 529 193 l 529 987 z "},"ԋ":{"ha":833,"x_min":79,"x_max":780,"o":"m 387 313 l 387 196 q 393 137 389 164 q 407 88 398 110 q 440 34 419 56 q 489 0 460 12 q 528 -11 507 -7 q 574 -14 549 -15 q 653 8 616 -14 q 718 73 690 30 q 745 127 733 97 q 764 193 756 157 q 774 256 770 222 q 779 328 778 290 q 770 459 780 394 q 746 587 760 524 l 625 587 q 646 458 639 523 q 653 328 654 393 q 652 280 653 303 q 648 235 650 256 q 641 193 645 213 q 633 156 637 173 q 608 106 623 124 q 574 88 593 89 q 556 92 564 88 q 542 101 548 95 q 529 117 534 108 q 520 136 524 125 q 514 163 516 149 q 513 196 513 178 l 513 734 l 387 734 l 387 415 l 205 415 l 205 734 l 79 734 l 79 0 l 205 0 l 205 313 l 387 313 z "},"Ԍ":{"ha":833,"x_min":96,"x_max":774,"o":"m 448 -14 q 571 4 513 -14 q 675 61 630 23 q 745 155 719 98 q 773 288 772 212 q 762 411 774 349 q 735 533 749 473 l 614 533 q 639 411 629 472 q 648 288 649 349 q 634 207 647 243 q 597 145 621 171 q 534 103 572 118 q 448 88 496 89 q 352 113 394 88 q 281 182 310 138 q 237 283 252 225 q 222 405 222 340 l 222 584 q 228 661 222 623 q 245 731 233 698 q 281 806 258 772 q 334 861 304 840 q 386 889 357 879 q 448 899 414 899 q 554 887 506 899 q 647 852 603 875 l 687 942 q 583 987 642 972 q 448 1002 524 1002 q 360 990 401 1002 q 283 958 318 979 q 194 883 232 929 q 133 780 157 836 q 106 687 115 736 q 96 583 96 637 l 96 405 q 107 294 96 347 q 138 196 118 241 q 191 108 159 148 q 262 42 222 68 q 348 0 301 15 q 448 -14 395 -14 z "},"ԍ":{"ha":833,"x_min":109,"x_max":749,"o":"m 469 88 q 363 112 408 88 q 290 173 319 135 q 248 257 262 210 q 235 353 235 304 l 235 381 q 247 475 235 429 q 287 560 260 522 q 355 621 314 597 q 455 644 397 644 q 557 634 510 644 q 642 605 605 624 l 671 703 q 628 723 652 714 q 575 737 604 732 q 519 745 549 742 q 455 747 489 747 q 307 717 372 747 q 199 637 243 687 q 132 520 155 587 q 109 381 109 454 l 109 353 q 133 213 109 279 q 203 96 157 146 q 315 16 248 46 q 469 -14 382 -14 q 579 0 528 -14 q 667 42 629 14 q 726 114 704 71 q 749 216 747 157 q 743 290 749 253 q 730 364 738 328 l 610 364 q 621 290 619 328 q 623 216 623 252 q 614 163 623 186 q 589 124 606 140 q 541 98 571 106 q 469 88 511 89 z "},"Ԏ":{"ha":833,"x_min":52,"x_max":795,"o":"m 296 884 l 296 234 q 302 174 298 201 q 315 122 307 146 q 350 57 328 85 q 401 13 371 28 q 456 -8 426 -1 q 523 -14 487 -15 q 627 10 578 -14 q 713 81 676 34 q 748 138 732 106 q 773 206 763 169 q 788 278 783 239 q 793 359 793 316 q 781 497 795 429 q 749 632 767 566 l 627 631 q 658 495 647 564 q 668 359 669 427 q 664 297 667 326 q 656 241 661 267 q 645 200 651 220 q 631 165 639 181 q 586 109 612 129 q 523 88 559 89 q 495 92 508 88 q 472 104 483 96 q 447 132 458 115 q 429 172 436 150 q 424 202 426 186 q 422 234 422 218 l 422 884 l 686 884 l 686 987 l 52 987 l 52 884 l 296 884 z "},"ԏ":{"ha":833,"x_min":50,"x_max":766,"o":"m 278 632 l 278 234 q 297 123 281 170 q 341 45 313 76 q 412 0 370 14 q 507 -14 454 -15 q 606 5 559 -14 q 688 63 652 24 q 744 158 723 101 q 766 289 764 214 q 763 345 766 317 q 753 400 759 372 q 738 455 746 428 q 720 509 729 483 l 600 509 q 630 399 619 456 q 640 289 642 342 q 630 208 639 244 q 605 144 622 171 q 564 103 588 118 q 507 88 539 89 q 463 99 481 88 q 431 130 444 111 q 411 176 417 150 q 404 234 404 203 l 404 632 l 661 632 l 661 734 l 50 734 l 50 632 l 278 632 z "},"Ԑ":{"ha":833,"x_min":73,"x_max":770,"o":"m 74 275 q 101 152 74 205 q 178 61 129 98 q 292 5 226 24 q 436 -14 358 -14 q 557 3 498 -14 q 665 55 617 20 q 741 144 711 90 q 770 274 770 199 l 644 274 q 628 201 644 235 q 586 142 613 168 q 520 103 558 117 q 436 88 482 88 q 337 102 381 88 q 263 140 294 115 q 216 198 233 164 q 199 273 199 232 q 215 353 199 319 q 259 409 230 387 q 331 441 288 431 q 427 452 373 452 l 550 452 l 550 555 l 427 555 q 332 567 372 555 q 267 602 292 579 q 227 654 240 623 q 214 723 214 685 q 228 792 214 760 q 270 848 242 824 q 339 885 297 871 q 436 899 380 899 q 512 886 477 899 q 574 850 547 873 q 615 797 600 828 q 631 729 630 766 l 756 729 q 730 843 756 792 q 661 928 705 893 q 559 983 617 964 q 436 1002 500 1002 q 294 984 358 1002 q 184 930 230 966 q 113 842 138 895 q 88 720 88 789 q 99 654 88 686 q 132 595 111 622 q 182 545 152 567 q 249 507 212 522 q 185 478 214 495 q 135 439 156 460 q 89 367 105 408 q 74 275 73 326 z "}," ":{"ha":833,"x_min":0,"x_max":0,"o":""}," ":{"ha":833,"x_min":0,"x_max":0,"o":""},"​":{"ha":833,"x_min":0,"x_max":0,"o":""},"⁴":{"ha":833,"x_min":184,"x_max":711,"o":"m 608 596 l 608 1000 l 494 1000 l 184 574 l 186 511 l 498 511 l 498 385 l 608 385 l 608 511 l 711 511 l 711 596 l 608 596 m 307 596 l 483 832 l 498 862 l 498 596 l 307 596 z "},"€":{"ha":833,"x_min":86,"x_max":733,"o":"m 595 368 l 595 451 l 334 451 l 334 545 l 595 545 l 595 628 l 334 628 l 334 629 q 352 743 334 687 q 401 831 370 798 q 474 882 431 865 q 570 899 517 899 q 648 892 610 899 q 721 875 686 886 l 733 980 q 652 995 692 989 q 570 1001 612 1001 q 426 977 491 1001 q 313 907 361 954 q 237 785 267 861 q 208 629 208 710 l 208 628 l 86 628 l 86 545 l 208 545 l 208 451 l 86 451 l 86 368 l 208 368 l 208 365 q 237 203 208 278 q 312 83 266 129 q 426 10 359 35 q 571 -14 492 -14 q 654 -9 614 -14 q 733 7 695 -3 l 721 111 q 648 94 686 100 q 571 88 611 88 q 474 106 517 88 q 400 159 431 123 q 352 247 371 192 q 334 365 334 302 l 334 368 l 595 368 z "},"№":{"ha":833,"x_min":82,"x_max":774,"o":"m 501 0 l 501 987 l 382 987 l 382 370 l 201 987 l 82 987 l 82 0 l 201 0 l 201 621 l 382 0 l 501 0 m 557 865 l 557 725 q 565 674 557 698 q 586 632 572 650 q 620 603 600 614 q 666 593 640 593 q 713 603 692 593 q 747 632 733 614 q 767 674 760 650 q 774 725 774 698 l 774 865 q 767 916 774 892 q 747 959 760 941 q 712 988 733 977 q 665 998 692 998 q 619 988 640 998 q 585 959 599 977 q 565 916 572 941 q 557 865 557 892 m 626 731 l 626 859 q 628 887 626 873 q 633 911 629 901 q 645 926 637 920 q 665 932 653 932 q 686 926 678 932 q 699 911 694 920 q 704 887 703 901 q 706 859 706 873 l 706 731 q 705 702 706 715 q 699 680 703 689 q 687 664 694 669 q 666 658 679 658 q 645 664 653 658 q 633 680 637 669 q 627 702 629 689 q 626 731 626 715 m 773 482 l 773 547 l 565 547 l 565 482 l 773 482 z "},"﻿":{"ha":833,"x_min":0,"x_max":0,"o":""},"�":{"ha":833,"x_min":10,"x_max":813,"o":"m 414 1097 l 10 436 l 414 -225 l 813 436 l 414 1097 m 484 266 l 347 266 q 349 315 347 298 q 359 345 352 332 q 378 372 366 358 q 410 410 390 385 q 426 432 416 418 q 443 461 435 445 q 457 494 451 477 q 463 529 463 511 q 452 586 463 564 q 416 608 441 608 q 386 591 399 608 q 370 538 372 575 l 233 538 q 248 620 233 585 q 288 676 262 654 q 345 708 312 698 q 416 718 378 718 q 494 705 459 718 q 552 667 528 692 q 588 607 575 642 q 600 529 600 572 q 592 479 600 501 q 572 439 585 458 q 545 400 560 419 q 515 361 530 382 q 502 340 507 350 q 492 320 496 330 q 486 296 488 309 q 484 266 484 283 m 484 204 l 484 89 l 347 89 l 347 204 l 484 204 m 410 -374 l 410 -376 l 413 -376 l 413 -374 l 410 -374 m 409 1455 l 409 1453 l 412 1453 l 412 1455 l 409 1455 z "}," ":{"ha":833,"x_min":0,"x_max":0,"o":"z "},"­":{"ha":833,"x_min":148,"x_max":667,"o":"m 667 380 l 667 484 l 148 484 l 148 380 l 667 380 z "},"Ё":{"ha":833,"x_min":123,"x_max":730,"o":"m 661 456 l 661 563 l 249 563 l 249 880 l 724 880 l 724 987 l 123 987 l 123 0 l 730 0 l 730 106 l 249 106 l 249 456 l 661 456 m 198 1165 q 217 1114 198 1135 q 272 1094 235 1094 q 328 1114 309 1094 q 347 1165 347 1135 q 328 1216 347 1196 q 272 1237 309 1237 q 217 1216 235 1237 q 198 1165 198 1196 m 490 1164 q 508 1113 490 1134 q 564 1093 527 1093 q 619 1113 600 1093 q 638 1164 638 1134 q 619 1215 638 1194 q 564 1236 600 1236 q 508 1215 527 1236 q 490 1164 490 1194 z "},"Ѓ":{"ha":833,"x_min":123,"x_max":727,"o":"m 727 884 l 727 987 l 123 987 l 123 0 l 249 0 l 249 884 l 727 884 m 490 1237 l 365 1057 l 460 1057 l 642 1237 l 490 1237 z "},"Ѕ":{"ha":833,"x_min":80,"x_max":766,"o":"m 635 250 q 617 179 635 209 q 572 131 600 150 q 508 102 544 111 q 436 93 473 93 q 351 105 390 93 q 282 143 312 118 q 233 203 252 168 q 208 285 214 239 l 80 285 q 113 159 82 214 q 195 66 144 104 q 307 7 244 27 q 436 -14 370 -14 q 554 3 495 -14 q 660 53 613 20 q 736 135 707 85 q 766 251 766 184 q 753 331 766 295 q 718 398 741 368 q 666 452 696 428 q 602 494 636 475 q 530 528 567 513 q 456 554 492 543 q 385 578 422 564 q 315 612 347 591 q 262 662 283 632 q 240 734 241 691 q 256 803 240 773 q 299 853 272 833 q 360 884 326 873 q 430 894 394 894 q 510 880 475 894 q 572 841 546 866 q 613 781 597 816 q 634 703 629 746 l 763 703 q 734 826 762 771 q 660 920 706 881 q 554 980 614 958 q 430 1001 494 1001 q 314 983 372 1001 q 211 930 256 965 q 137 846 165 896 q 109 732 109 795 q 137 621 109 668 q 210 539 165 574 q 308 481 254 505 q 414 440 362 457 q 489 414 450 429 q 561 379 528 400 q 595 350 580 366 q 621 314 611 334 q 631 284 627 300 q 635 250 635 268 z "},"І":{"ha":833,"x_min":118,"x_max":715,"o":"m 118 987 l 118 878 l 349 878 l 349 109 l 118 109 l 118 0 l 715 0 l 715 109 l 478 109 l 478 878 l 715 878 l 715 987 l 118 987 z "},"Ї":{"ha":833,"x_min":118,"x_max":715,"o":"m 118 987 l 118 878 l 349 878 l 349 109 l 118 109 l 118 0 l 715 0 l 715 109 l 478 109 l 478 878 l 715 878 l 715 987 l 118 987 m 163 1165 q 182 1114 163 1135 q 237 1094 201 1094 q 293 1114 274 1094 q 312 1165 312 1135 q 293 1216 312 1196 q 237 1237 274 1237 q 182 1216 201 1237 q 163 1165 163 1196 m 455 1164 q 474 1113 455 1134 q 529 1093 492 1093 q 585 1113 566 1093 q 604 1164 604 1134 q 585 1215 604 1194 q 529 1236 566 1236 q 474 1215 492 1236 q 455 1164 455 1194 z "},"Ј":{"ha":833,"x_min":66,"x_max":709,"o":"m 581 987 l 581 300 q 567 221 580 258 q 529 155 553 183 q 469 110 504 126 q 389 93 433 93 q 310 107 345 93 q 250 148 275 121 q 211 209 225 174 q 194 286 196 244 l 66 286 q 98 162 73 217 q 165 68 123 106 q 263 7 206 28 q 389 -14 319 -14 q 515 10 457 -14 q 616 75 573 33 q 683 174 659 117 q 709 300 708 232 l 709 987 l 581 987 z "},"К":{"ha":833,"x_min":115,"x_max":818,"o":"m 356 447 l 664 0 l 818 0 l 454 509 l 790 987 l 646 987 l 346 549 l 240 549 l 240 987 l 115 987 l 115 0 l 240 0 l 240 447 l 356 447 z "},"Ќ":{"ha":833,"x_min":117,"x_max":806,"o":"m 355 458 l 653 0 l 806 0 l 437 555 l 783 987 l 630 987 l 340 625 l 245 505 l 245 987 l 117 987 l 117 0 l 245 0 l 245 334 l 355 458 m 488 1225 l 363 1044 l 458 1044 l 640 1225 l 488 1225 z "},"Ў":{"ha":833,"x_min":29,"x_max":817,"o":"m 70 9 q 123 -6 87 2 q 205 -14 159 -14 q 301 0 261 -14 q 370 39 342 14 q 419 95 399 63 q 454 163 439 127 l 817 987 l 671 987 l 476 507 l 427 385 l 379 515 l 170 987 l 29 987 l 367 251 l 338 193 q 317 155 330 174 q 288 121 305 136 q 246 97 270 106 q 191 88 222 88 q 134 94 165 88 q 86 105 104 100 l 70 9 m 642 1265 l 540 1265 q 534 1226 540 1245 q 515 1194 528 1208 q 485 1173 503 1181 q 439 1164 466 1164 q 393 1173 412 1164 q 362 1194 374 1181 q 344 1226 350 1208 q 338 1265 338 1245 l 236 1265 q 251 1192 236 1225 q 292 1135 265 1158 q 355 1098 318 1111 q 439 1084 393 1084 q 523 1098 486 1084 q 587 1135 560 1111 q 627 1192 613 1158 q 642 1265 642 1225 z "},"А":{"ha":833,"x_min":55,"x_max":792,"o":"m 589 256 l 667 0 l 792 0 l 479 987 l 374 987 l 55 0 l 180 0 l 260 256 l 589 256 m 294 365 l 426 793 l 556 365 l 294 365 z "},"В":{"ha":833,"x_min":117,"x_max":760,"o":"m 117 0 l 433 0 q 555 20 496 1 q 660 75 614 39 q 732 163 705 110 q 759 285 760 216 q 746 367 759 329 q 709 435 732 405 q 652 486 686 463 q 580 518 617 509 l 580 520 q 641 553 616 536 q 688 597 667 571 q 720 654 708 622 q 732 724 732 686 q 706 843 733 793 q 633 924 679 892 q 530 971 588 956 q 410 987 471 987 l 117 987 l 117 0 m 243 462 l 443 462 q 517 448 483 460 q 578 414 552 436 q 618 358 604 391 q 632 283 633 326 q 616 210 632 242 q 573 155 600 177 q 511 120 546 132 q 436 106 475 107 l 243 106 l 243 462 m 243 566 l 243 880 l 414 880 q 486 871 451 880 q 548 844 521 862 q 590 795 574 825 q 606 725 606 766 q 590 657 606 686 q 547 608 574 628 q 487 577 521 588 q 418 566 453 567 l 243 566 z "},"Г":{"ha":833,"x_min":123,"x_max":727,"o":"m 727 884 l 727 987 l 123 987 l 123 0 l 249 0 l 249 884 l 727 884 z "},"Е":{"ha":833,"x_min":123,"x_max":730,"o":"m 661 456 l 661 563 l 249 563 l 249 880 l 724 880 l 724 987 l 123 987 l 123 0 l 730 0 l 730 106 l 249 106 l 249 456 l 661 456 z "},"Й":{"ha":833,"x_min":110,"x_max":723,"o":"m 597 987 l 235 260 l 235 987 l 110 987 l 110 0 l 235 0 l 598 728 l 597 0 l 723 0 l 723 987 l 597 987 m 614 1257 l 513 1257 q 507 1218 513 1237 q 488 1186 500 1200 q 457 1164 476 1173 q 412 1156 439 1156 q 366 1164 385 1156 q 335 1186 347 1173 q 317 1218 323 1200 q 311 1257 311 1237 l 209 1257 q 223 1184 209 1217 q 264 1126 238 1150 q 328 1089 291 1103 q 412 1076 366 1076 q 496 1089 458 1076 q 559 1126 533 1103 q 600 1184 586 1150 q 614 1257 614 1217 z "},"М":{"ha":833,"x_min":100,"x_max":746,"o":"m 256 987 l 100 987 l 100 0 l 222 0 l 222 394 l 212 792 l 380 275 l 452 275 l 634 806 l 624 394 l 624 0 l 746 0 l 746 987 l 590 987 l 416 494 l 256 987 z "},"Н":{"ha":833,"x_min":96,"x_max":737,"o":"m 737 0 l 737 987 l 618 987 l 618 563 l 214 563 l 214 987 l 96 987 l 96 0 l 214 0 l 214 456 l 618 456 l 618 0 l 737 0 z "},"О":{"ha":833,"x_min":72,"x_max":760,"o":"m 760 437 l 760 549 q 751 656 760 602 q 725 761 743 711 q 679 855 707 811 q 614 931 652 899 q 526 982 576 964 q 416 1001 477 1001 q 306 982 355 1001 q 218 931 256 964 q 153 854 180 898 q 108 760 125 810 q 81 656 90 710 q 72 549 73 602 l 72 437 q 81 330 73 384 q 109 227 90 277 q 154 133 126 176 q 220 56 182 89 q 307 5 258 24 q 417 -14 356 -14 q 527 5 478 -14 q 614 56 576 24 q 680 132 652 89 q 725 226 707 176 q 751 330 743 276 q 760 437 760 384 m 636 551 l 636 437 q 632 363 635 401 q 618 287 628 324 q 592 215 608 249 q 553 155 576 180 q 495 113 528 128 q 417 97 461 97 q 340 113 373 97 q 282 155 307 128 q 241 215 258 180 q 215 288 225 250 q 200 363 205 325 q 195 437 196 402 l 195 551 q 200 624 196 585 q 215 700 205 662 q 241 771 224 737 q 281 832 257 806 q 339 873 306 858 q 416 889 372 889 q 493 874 460 889 q 551 833 526 859 q 591 772 575 806 q 618 701 608 738 q 631 624 627 663 q 636 551 635 586 z "},"П":{"ha":833,"x_min":110,"x_max":723,"o":"m 723 0 l 723 987 l 110 987 l 110 0 l 235 0 l 235 884 l 597 884 l 597 0 l 723 0 z "},"Р":{"ha":833,"x_min":130,"x_max":777,"o":"m 255 396 l 450 396 q 575 416 516 397 q 680 473 635 436 q 750 565 724 511 q 777 691 777 620 q 750 817 777 762 q 680 909 724 872 q 575 966 635 947 q 450 987 516 986 l 130 987 l 130 0 l 255 0 l 255 396 m 255 499 l 255 884 l 450 884 q 530 870 493 884 q 594 831 567 857 q 636 770 621 806 q 651 690 651 734 q 636 610 651 645 q 593 551 621 575 q 530 513 566 526 q 450 499 493 500 l 255 499 z "},"С":{"ha":833,"x_min":73,"x_max":758,"o":"m 758 297 l 632 297 q 611 214 626 252 q 571 148 596 176 q 510 104 546 119 q 424 88 473 88 q 345 103 378 88 q 286 143 311 117 q 244 201 260 168 q 218 273 228 235 q 203 349 208 310 q 199 425 199 388 l 199 564 q 203 639 199 600 q 218 715 208 678 q 244 786 228 753 q 286 844 261 819 q 345 884 311 869 q 424 899 379 899 q 510 882 473 899 q 571 836 546 865 q 611 768 596 807 q 632 685 626 730 l 758 685 q 724 814 749 755 q 656 914 699 872 q 556 978 614 956 q 424 1001 498 1001 q 313 984 362 1001 q 224 936 263 966 q 157 864 185 905 q 111 773 129 822 q 82 671 92 724 q 73 562 73 617 l 73 425 q 82 316 73 370 q 111 214 92 262 q 157 123 129 165 q 224 52 185 82 q 313 4 263 21 q 424 -14 363 -14 q 553 9 495 -14 q 654 73 611 32 q 722 171 696 114 q 758 297 749 229 z "},"Т":{"ha":833,"x_min":52,"x_max":784,"o":"m 784 880 l 784 987 l 52 987 l 52 880 l 357 880 l 357 0 l 479 0 l 479 880 l 784 880 z "},"Ф":{"ha":833,"x_min":47,"x_max":786,"o":"m 479 848 l 479 987 l 354 987 l 354 848 q 232 815 288 843 q 134 740 176 787 q 70 629 93 693 q 47 490 47 566 q 70 351 47 414 q 134 240 93 287 q 232 165 176 193 q 354 133 288 138 l 354 0 l 479 0 l 479 133 q 601 166 545 138 q 699 242 657 195 q 763 352 739 289 q 786 492 786 416 q 763 630 786 567 q 699 740 739 693 q 601 814 657 787 q 479 848 545 842 m 171 490 q 183 589 171 544 q 219 667 195 633 q 276 720 242 700 q 354 745 310 740 l 354 236 q 276 260 310 240 q 219 313 242 280 q 183 391 195 346 q 171 490 171 436 m 661 492 q 649 392 661 437 q 614 314 637 347 q 556 261 590 281 q 479 236 523 241 l 479 745 q 556 720 523 740 q 614 667 590 700 q 649 590 637 634 q 661 492 661 545 z "},"Х":{"ha":833,"x_min":59,"x_max":791,"o":"m 424 600 l 214 987 l 66 987 l 353 498 l 59 0 l 208 0 l 427 395 l 645 0 l 791 0 l 498 498 l 785 987 l 637 987 l 424 600 z "}}}
